<svg width="24" height="24" viewBox="0 0 24 24" fill="none" xmlns="http://www.w3.org/2000/svg">
  <path
    d="M16.705 11.108C16.543 8.121 14.911 6.411 12.171 6.394C10.519 6.384 9.13797 7.084 8.29197 8.367L9.79997 9.4C10.434 8.439 11.435 8.24 12.16 8.247C13.063 8.253 13.743 8.515 14.184 9.027C14.504 9.399 14.719 9.914 14.826 10.563C14.0246 10.427 13.1613 10.3853 12.236 10.438C9.62997 10.588 7.95597 12.108 8.06797 14.219C8.12497 15.29 8.65797 16.212 9.56997 16.814C10.34 17.323 11.334 17.571 12.365 17.515C13.728 17.44 14.797 16.921 15.543 15.97C16.109 15.248 16.467 14.312 16.625 13.134C17.275 13.526 17.755 14.041 18.022 14.661C18.474 15.715 18.5 17.447 17.087 18.859C15.849 20.095 14.361 20.631 12.112 20.647C9.61697 20.629 7.72997 19.828 6.50397 18.269C5.35397 16.809 4.76097 14.699 4.73897 12C4.76097 9.3 5.35497 7.191 6.50397 5.73C7.72997 4.171 9.61697 3.371 12.112 3.353C14.625 3.372 16.544 4.175 17.818 5.743C18.443 6.511 18.913 7.477 19.224 8.603L20.99 8.133C20.613 6.746 20.021 5.551 19.216 4.56C17.583 2.55 15.183 1.521 12.106 1.5C9.03497 1.521 6.67397 2.555 5.08697 4.571C3.67597 6.366 2.94697 8.877 2.92297 12.007C2.94697 15.137 3.67597 17.634 5.08697 19.429C6.67397 21.445 9.04697 22.479 12.117 22.5C14.848 22.481 16.772 21.766 18.357 20.183C20.432 18.11 20.369 15.513 19.686 13.919C19.161 12.694 18.116 11.713 16.706 11.109M12.268 15.666C11.126 15.73 9.93997 15.218 9.88097 14.12C9.83797 13.306 10.461 12.398 12.338 12.29C13.1863 12.2332 14.0384 12.2917 14.871 12.464C14.655 15.166 13.386 15.604 12.268 15.666Z"
    fill="#232323"/>
</svg>
