<svg width="24" height="24" viewBox="0 0 24 24" fill="none" xmlns="http://www.w3.org/2000/svg">
  <path d="M2.42492 11.9131C2.42445 13.5991 2.86474 15.2453 3.70194 16.6963L2.34485 21.6539L7.41562 20.3237C8.81813 21.0876 10.3895 21.4879 11.9864 21.488H11.9906C17.2622 21.488 21.5533 17.196 21.5556 11.9207C21.5566 9.3644 20.5625 6.96064 18.7564 5.15218C16.9507 3.34388 14.5491 2.34748 11.9902 2.34631C6.71803 2.34631 2.42717 6.63802 2.42499 11.9131" fill="url(#paint0_linear_216_11539)"/>
  <path d="M2.08318 11.91C2.08263 13.6566 2.5387 15.3617 3.40575 16.8646L2 22L7.25259 20.622C8.69985 21.4115 10.3293 21.8278 11.9874 21.8284H11.9917C17.4523 21.8284 21.8977 17.3821 21.9 11.9179C21.9009 9.26977 20.8711 6.7796 19.0005 4.90635C17.1297 3.03334 14.6422 2.00109 11.9917 2C6.53005 2 2.08535 6.44571 2.08318 11.91ZM5.21128 16.6058L5.01516 16.2943C4.19071 14.9827 3.75555 13.467 3.75617 11.9106C3.75789 7.36884 7.45213 3.67375 11.9948 3.67375C14.1947 3.67468 16.2621 4.53271 17.8171 6.08949C19.372 7.64642 20.2276 9.71605 20.2271 11.9173C20.2251 16.459 16.5307 20.1546 11.9917 20.1546H11.9884C10.5104 20.1538 9.06092 19.7567 7.79681 19.0062L7.49598 18.8277L4.37898 19.6454L5.21128 16.6058Z" fill="#F0EFEF"/>
  <path d="M9.51527 7.76702C9.3298 7.35457 9.1346 7.34625 8.95823 7.33902C8.81379 7.33279 8.64869 7.33326 8.48373 7.33326C8.31863 7.33326 8.05037 7.3954 7.82361 7.64312C7.59663 7.89107 6.95703 8.49026 6.95703 9.70894C6.95703 10.9276 7.84421 12.1055 7.96789 12.2709C8.09172 12.436 9.68061 15.017 12.197 16.0099C14.2884 16.835 14.714 16.6709 15.1679 16.6295C15.6218 16.5883 16.6327 16.0305 16.8389 15.452C17.0453 14.8737 17.0453 14.3779 16.9834 14.2743C16.9216 14.1711 16.7565 14.1092 16.5089 13.9853C16.2613 13.8615 15.044 13.2622 14.8171 13.1795C14.5902 13.0969 14.4251 13.0557 14.26 13.3037C14.0949 13.5513 13.6208 14.1092 13.4763 14.2743C13.3319 14.4399 13.1874 14.4605 12.9399 14.3366C12.6922 14.2124 11.8949 13.9511 10.9489 13.1073C10.2129 12.4507 9.71606 11.6399 9.57163 11.3919C9.4272 11.1442 9.55616 11.01 9.6803 10.8866C9.79154 10.7756 9.92796 10.5973 10.0519 10.4527C10.1753 10.3081 10.2165 10.2048 10.2991 10.0396C10.3817 9.8743 10.3403 9.72963 10.2785 9.60573C10.2165 9.48184 9.73541 8.25678 9.51527 7.76702Z" fill="white"/>
  <defs>
    <linearGradient id="paint0_linear_216_11539" x1="962.881" y1="1933.11" x2="962.881" y2="2.34631" gradientUnits="userSpaceOnUse">
      <stop stop-color="#1FAF38"/>
      <stop offset="1" stop-color="#60D669"/>
    </linearGradient>
  </defs>
</svg>
