<svg width="24" height="24" viewBox="0 0 24 24" fill="none" xmlns="http://www.w3.org/2000/svg">
  <path
    d="M11.808 14.77L8.09302 10.312C7.9957 10.1952 7.93369 10.053 7.91427 9.90218C7.89485 9.75137 7.91881 9.59814 7.98335 9.46045C8.04789 9.32277 8.15033 9.20633 8.27868 9.12478C8.40702 9.04323 8.55595 8.99994 8.70802 9H15.292C15.444 9.00013 15.5928 9.04355 15.721 9.12518C15.8492 9.2068 15.9515 9.32326 16.0159 9.46091C16.0803 9.59855 16.1042 9.75171 16.0847 9.90243C16.0653 10.0532 16.0033 10.1952 15.906 10.312L12.192 14.77C12.1686 14.7981 12.1392 14.8208 12.106 14.8363C12.0728 14.8518 12.0366 14.8599 12 14.8599C11.9634 14.8599 11.9272 14.8518 11.894 14.8363C11.8608 14.8208 11.8315 14.7981 11.808 14.77Z"
    fill="#232323"/>
</svg>
