<svg width="24" height="24" viewBox="0 0 24 24" fill="none" xmlns="http://www.w3.org/2000/svg">
  <path
    d="M11.808 9.08986L8.09302 13.5479C7.9957 13.6647 7.93369 13.8069 7.91427 13.9577C7.89485 14.1085 7.91881 14.2617 7.98335 14.3994C8.04789 14.5371 8.15033 14.6535 8.27868 14.7351C8.40702 14.8166 8.55595 14.8599 8.70802 14.8599H15.292C15.444 14.8597 15.5928 14.8163 15.721 14.7347C15.8492 14.6531 15.9515 14.5366 16.0159 14.399C16.0803 14.2613 16.1042 14.1082 16.0847 13.9574C16.0653 13.8067 16.0033 13.6646 15.906 13.5479L12.192 9.08986C12.1686 9.06173 12.1392 9.03909 12.106 9.02356C12.0728 9.00803 12.0366 8.99998 12 8.99998C11.9634 8.99998 11.9272 9.00803 11.894 9.02356C11.8608 9.03909 11.8315 9.06173 11.808 9.08986Z"
    fill="#232323"/>
</svg>
