<svg width="24" height="25" viewBox="0 0 24 25" fill="none" xmlns="http://www.w3.org/2000/svg">
  <path fill-rule="evenodd" clip-rule="evenodd"
        d="M10.53 5.97001C10.6704 6.11064 10.7493 6.30126 10.7493 6.50001C10.7493 6.69876 10.6704 6.88939 10.53 7.03001L5.80995 11.75H20C20.1989 11.75 20.3896 11.829 20.5303 11.9697C20.6709 12.1103 20.75 12.3011 20.75 12.5C20.75 12.6989 20.6709 12.8897 20.5303 13.0303C20.3896 13.171 20.1989 13.25 20 13.25H5.80995L10.53 17.97C10.6036 18.0387 10.6627 18.1215 10.7037 18.2135C10.7447 18.3055 10.7668 18.4048 10.7685 18.5055C10.7703 18.6062 10.7518 18.7062 10.7141 18.7996C10.6764 18.893 10.6202 18.9778 10.549 19.049C10.4778 19.1203 10.3929 19.1764 10.2995 19.2141C10.2062 19.2519 10.1061 19.2704 10.0054 19.2686C9.90473 19.2668 9.80541 19.2448 9.71341 19.2038C9.62141 19.1628 9.53861 19.1037 9.46995 19.03L3.46995 13.03C3.3295 12.8894 3.25061 12.6988 3.25061 12.5C3.25061 12.3013 3.3295 12.1106 3.46995 11.97L9.46995 5.97001C9.61058 5.82956 9.8012 5.75067 9.99995 5.75067C10.1987 5.75067 10.3893 5.82956 10.53 5.97001Z"
        fill="#232323"/>
</svg>
