<svg width="24" height="24" viewBox="0 0 24 24" fill="none" xmlns="http://www.w3.org/2000/svg">
  <path
    d="M18.5337 6.46155H8.92789C7.56577 6.46155 6.46155 7.56577 6.46155 8.92789V18.5337C6.46155 19.8958 7.56577 21 8.92789 21H18.5337C19.8958 21 21 19.8958 21 18.5337V8.92789C21 7.56577 19.8958 6.46155 18.5337 6.46155Z"
    stroke="#232323" stroke-width="1.5" stroke-linejoin="round"/>
  <path
    d="M17.5168 6.46154L17.5385 5.42308C17.5366 4.781 17.2808 4.16574 16.8267 3.71172C16.3727 3.2577 15.7575 3.00183 15.1154 3H5.76923C5.03545 3.00217 4.33235 3.29462 3.81348 3.81348C3.29462 4.33235 3.00217 5.03545 3 5.76923V15.1154C3.00183 15.7575 3.2577 16.3727 3.71172 16.8267C4.16574 17.2808 4.781 17.5366 5.42308 17.5385H6.46154"
    stroke="#232323" stroke-width="1.5" stroke-linecap="round" stroke-linejoin="round"/>
</svg>
