<svg width="322" height="101" viewBox="0 0 322 101" fill="none" xmlns="http://www.w3.org/2000/svg">
  <path
    d="M225.57 7.7525C225.57 7.7525 219.534 10.1553 212.513 17.8923C205.493 25.6293 201.404 34.3295 204.43 36.6433C205.592 37.5227 208.273 37.6903 213.136 33.293C217.625 29.3964 221.148 24.5117 223.428 19.023C226.57 11.3645 225.57 7.84673 225.57 7.76297M263.99 21.6718C256.19 17.6724 250.489 12.7727 244.557 9.74172C238.898 6.83642 235.239 5.62195 230.663 6.23442C230.025 6.34818 229.395 6.5056 228.779 6.70555C228.779 6.70555 231.135 14.7514 221.758 28.2676C212.262 41.9723 203.645 41.8781 201.195 38.1143C198.63 34.1411 201.944 26.0429 207.477 18.8346C213.272 11.2965 223.449 5.04612 223.449 5.04612C223.449 5.04612 220.204 3.06213 212.236 7.57976C204.462 11.9665 191.081 22.4361 178.663 40.093C166.246 57.75 163.785 67.4657 162.005 75.1138C160.225 82.7618 161.843 90.9542 170.324 90.9542C178.805 90.9542 188.678 78.0191 191.463 73.5224C196.641 65.1467 200.017 52.3005 192.971 54.0647C189.5 54.9336 186.689 58.776 184.914 62.477C183.793 64.8541 182.937 67.3467 182.359 69.9104C179.897 70.9251 177.584 72.2706 175.485 73.9098C173.151 75.6392 170.968 77.5657 168.963 79.668C168.963 79.668 168.994 73.5538 173.868 63.66C178.742 53.7663 187.688 49.2487 192.756 48.8246C197.321 48.4582 203.263 52.332 198.227 66.6229C193.191 80.9139 178.333 98.2882 162.728 98.5028C148.326 98.7017 138.903 80.3224 158.948 48.2488C181.134 12.8145 207.158 1.94189 215.607 0.732654C224.057 -0.476582 226.805 3.25059 226.805 3.25059C231.891 1.16403 237.385 0.258369 242.872 0.601784C253.19 1.29801 261.168 8.60054 271.701 13.7306C268.963 16.348 266.351 19.0963 263.995 21.6718M310.347 9.74172C303.196 14.3274 293.301 18.4838 283.794 17.5939C281.386 20.0804 278.811 22.9596 276.23 26.1004C292.715 29.3617 307.159 19.1486 314.838 10.4537C317.638 7.32749 320.043 3.86933 322 0.156827C318.504 3.79839 314.59 7.01551 310.341 9.74172M288.391 56.1848C288.516 55.9674 288.617 55.7376 288.694 55.499C288.645 55.1215 288.469 54.7722 288.193 54.5093C287.918 54.2464 287.561 54.0858 287.181 54.0542C285.611 53.9809 283.47 54.2793 277.852 60.4982C273.193 65.6339 269.182 71.3232 265.911 77.438C262.697 83.3114 261.393 87.6877 263.241 88.8184C263.842 89.1294 264.538 89.2005 265.189 89.0174C266.44 88.719 267.859 87.5464 270.016 85.0494C271.026 83.8768 272.146 82.2174 273.486 80.38C277.203 75.3232 286.543 59.4042 288.391 56.1848ZM230.04 62.9481C230.977 60.4982 232.171 55.6875 229.69 53.7977C227.025 51.7928 220.23 56.4989 220.193 61.3253C220.146 66.267 224.978 68.5022 226.135 68.8163C226.795 68.9943 227.025 68.9681 227.344 68.4394C228.369 66.6736 229.27 64.8388 230.04 62.9481ZM224.9 71.9362C223.216 71.1587 221.645 70.1568 220.23 68.9576C218.811 67.7675 217.625 66.3244 216.733 64.7018C216.639 64.5447 216.544 64.6651 216.44 64.8065C216.335 64.9478 215.916 65.3299 212.293 70.638C208.671 75.9461 203.106 86.9444 208.142 88.8184C211.367 90.0172 216.733 84.3689 219.659 80.626C221.653 78.0135 223.46 75.2636 225.067 72.3969C225.219 72.0776 225.067 72.0043 224.905 71.9362M282.03 84.6411C280.664 86.8292 279.104 91.0275 283.601 88.4154C289.103 85.2378 296.94 73.3496 296.94 73.3496H300.494C297.26 78.3226 293.659 83.047 289.72 87.4836C284.145 93.6606 277.345 99.2723 272.555 98.7174C266.958 98.0631 268.712 90.7187 268.712 90.7187C268.712 90.7187 260.708 99.2409 255.169 98.6284C247.688 97.8013 249.97 88.5567 249.97 88.5567C249.97 88.5567 241.51 98.9373 235.747 98.618C226.711 98.0945 228.983 87.1014 231.496 79.3592C232.841 75.2185 234.087 71.9677 234.087 71.9677C234.087 71.9677 233.192 72.2032 231.265 72.4911C230.26 72.6325 228.428 72.7372 228.428 72.7372C228.428 72.7372 224.664 79.3749 221.654 83.3638C218.644 87.3527 205.849 101.104 198.321 98.351C191.358 95.8069 193.662 85.1488 197.714 76.679C203.629 64.3301 220.266 46.5894 229.862 48.9346C239.809 51.3478 230.088 69.4968 230.088 69.4968C230.088 69.4968 230.087 69.5649 230.192 69.612C230.391 69.6853 230.909 69.7429 232.108 69.5073C233.351 69.2539 234.568 68.8913 235.747 68.4237C235.747 68.4237 245.746 47.4845 256.792 33.7851C267.838 20.0857 289.872 -3.50752 298.521 2.19839C300.615 3.60132 299.672 8.43303 296.824 14.296C295.542 14.7126 294.238 15.0621 292.919 15.3429C294.825 11.8828 296.086 8.96698 296.463 6.93064C297.767 -0.146791 281.24 14.7828 269.429 30.8222C262.315 40.4917 255.995 50.7206 250.531 61.4091C252.664 60.108 254.701 58.6541 256.624 57.059C261.892 52.6911 266.899 48.0171 271.618 43.0611C276.161 38.4095 280.423 33.4905 284.381 28.3305C285.638 28.2697 286.891 28.1403 288.134 27.9431C283.82 33.7988 279.115 39.3568 274.052 44.5792C269.34 49.3429 264.241 54.4678 259.812 58.1897C255.856 61.5536 251.684 64.654 247.321 67.471C247.321 67.471 236.993 88.3002 242.61 89.6351C245.913 90.4307 252.436 80.3852 252.436 80.3852C252.436 80.3852 260.948 67.3977 266.079 61.5399C273.078 53.5831 279.104 48.9765 285.124 48.8927C288.632 48.8299 290.699 52.5571 290.699 52.5571L292.348 50.0025H302.505C302.505 50.0025 283.538 82.186 282.02 84.6097M310.341 9.74172C303.19 14.3274 293.296 18.4838 283.789 17.5939C281.381 20.0804 278.805 22.9596 276.224 26.1004C292.71 29.3617 307.153 19.1486 314.833 10.4537C317.635 7.32778 320.042 3.86961 322 0.156827C318.504 3.79839 314.59 7.01551 310.341 9.74172ZM167.711 25.5298H158.053L152.592 34.3505H162.251L167.711 25.5298ZM121.978 56.0748C126.087 50.4422 137.426 30.7018 137.426 30.7018C137.379 30.3248 137.203 29.9755 136.928 29.7126C136.654 29.4496 136.297 29.2888 135.919 29.257C134.348 29.1837 131.731 29.7124 126.532 36.2193C121.334 42.7261 117.297 47.9033 114.355 53.2899C111.131 59.1686 109.722 63.3145 111.576 64.44C112.177 64.7413 112.868 64.8121 113.518 64.6389C114.722 64.3353 116.298 63.1261 118.46 60.6396C119.475 59.4774 120.627 57.9122 121.978 56.0748ZM70.1502 29.3774C67.4803 27.362 60.6904 32.0786 60.6538 36.8946C60.6119 41.8414 66.7631 43.3543 67.5589 43.3909C67.7929 43.4104 68.0276 43.3613 68.2342 43.2496C68.3761 43.1668 68.4894 43.0426 68.5588 42.8936C69.282 41.4725 69.932 40.0154 70.5062 38.5278C71.4433 36.0779 72.6317 31.2672 70.1502 29.3774ZM66.1244 46.4062C64.2834 45.8311 62.524 45.0218 60.8893 43.9982C59.3053 42.9655 58.0171 41.5386 57.1515 39.8575C57.0573 39.7004 56.9526 39.8208 56.8583 39.9622C56.7641 40.1035 56.2196 40.784 52.5865 46.113C48.9533 51.442 43.5717 62.3409 48.6131 64.2149C51.8274 65.4346 57.2562 59.7392 60.2035 56.012C62.4091 53.083 64.4471 50.0315 66.3077 46.8721C66.4281 46.5528 66.3077 46.4795 66.1297 46.4219M145.012 49.6884H148.551C148.551 49.6884 130.82 75.3389 120.805 74.1453C115.214 73.491 116.873 66.5915 116.873 66.5915C116.873 66.5915 109.021 75.7838 101.807 73.9202C95.263 72.2399 99.4877 61.3567 99.4877 61.3567C98.7443 61.6551 84.5834 77.616 74.6315 73.7894C64.2189 69.769 69.6267 56.4046 71.6056 52.3843C73.286 48.9974 75.1445 45.6995 75.1445 45.6995C75.1445 45.6995 73.5478 46.1497 72.527 46.38C71.5061 46.6103 70.0298 46.9035 70.0298 46.9035C70.0298 46.9035 65.1036 54.9075 62.0934 58.9016C59.0832 62.8958 46.2887 76.6214 38.7501 73.8888C31.2116 71.1563 33.0805 60.6082 37.3157 52.2325C44.1842 38.6482 60.481 21.9545 70.2968 24.4881C80.2121 27.0165 72.0034 43.0978 72.0034 43.0978C72.0034 43.0978 73.9771 43.3543 78.7044 40.1297C85.51 35.4864 94.4934 22.9962 104.22 24.4619C108.806 25.1529 113.078 29.8381 107.236 38.7372C105.372 41.5954 102.247 44.15 99.8541 41.6216C98.3621 40.0511 99.6657 37.1877 101.231 35.2299C101.84 34.4318 102.636 33.7957 103.549 33.3777C104.462 32.9596 105.464 32.7723 106.466 32.8324C106.466 32.8324 108.073 29.168 103.985 29.2204C100.676 29.2832 92.2999 36.994 87.5726 44.7834C83.238 51.9341 76.6679 64.1155 83.2641 66.7695C89.3107 69.2089 100.817 55.5513 106.147 48.3954C111.476 41.2394 123.621 25.0221 133.809 24.373C137.316 24.1426 139.405 27.3411 139.405 27.3411L140.583 25.4775H150.771C150.771 25.4775 131.584 57.4935 130.087 59.9172C128.909 61.8122 127.344 66.0733 131.657 63.6862C135.971 61.2992 145.012 49.6884 145.012 49.6884ZM139.468 100.989C131.967 95.7972 122.985 93.1762 113.868 93.5193C111.401 93.5866 108.984 94.2345 106.814 95.4105C104.644 96.5865 102.781 98.2575 101.378 100.288C97.4931 93.5088 89.8132 89.3472 77.94 89.4414C58.7534 89.6612 39.7239 98.508 24.6468 98.4976C10.198 98.4976 -0.340282 89.4152 -9.95584e-07 73.2868C0.633445 44.9823 24.5526 19.4941 42.4042 8.02471C52.6964 1.43411 61.3029 -0.523696 66.9306 0.109714C71.035 0.56514 75.9716 5.30786 72.8568 12.2963C68.2813 22.5094 61.9625 21.6718 62.1981 16.7877C62.329 13.6102 64.444 11.6105 66.0354 10.506C67.0458 9.80978 68.831 9.61085 69.7628 9.58991C70.6685 8.82564 71.3334 3.23488 64.0042 5.07229C56.6751 6.9097 47.7754 14.1337 39.326 23.4673C30.8766 32.801 17.7208 50.4422 14.4698 68.9681C12.9516 77.5584 13.9463 93.2261 34.316 93.0481C51.5918 92.9068 77.0553 81.5316 100.456 81.7672C109.539 81.8562 117.444 84.306 123.606 88.1065C129.658 91.8337 136.913 97.2778 139.489 100.995"
    fill="#E61D2B"/>
</svg>
