<svg width="324" height="60" viewBox="0 0 324 60" fill="none" xmlns="http://www.w3.org/2000/svg">
  <path
    d="M22.1307 14.6577C17.607 14.6577 4.79322 17.1372 1.34844 29.1939C-2.1342 41.3642 4.81214 45.6607 12.2506 45.6607H31.1022L35.1338 29.951H21.7521L18.667 41.4967H15.5818C14.3894 41.4967 13.1402 41.1939 13.6701 38.9794L18.1749 22.0772C19.1212 18.5189 24.9509 18.3675 29.0013 21.4716L31.3483 17.3265C28.6795 15.6609 25.6322 14.7334 22.4903 14.6577H22.1307ZM60.4586 14.6577C56.0296 14.6577 43.8404 15.4148 40.3766 27.869C36.5723 41.5156 46.8498 46.1339 52.5469 46.1339C60.7803 46.1339 69.4301 43.9383 72.7992 31.8816C77.2282 15.9826 63.3166 14.7902 60.4586 14.6577ZM122.181 15.377L114.08 45.6607H130.717C138.95 45.6607 147.241 43.8816 150.647 31.8627C154.83 17.0993 144.326 15.377 138.477 15.377H122.181ZM188.862 15.377L193.991 32.1466L189.96 45.6607H204.666L208.016 33.339L223.045 15.377H215.776L206.597 25.9195L203.095 15.377H188.862ZM225.865 15.377L217.953 45.6607H243.429L245.019 40.0014H233.606L235.499 32.8848H242.956L244.376 27.2633H236.937L238.698 21.0173H249.921L251.511 15.358L225.865 15.377ZM264.779 15.377L245.625 45.6607H251.795L255.032 40.6828H266.313L266.824 45.6607H280.508L277.499 15.377H264.779ZM291.713 15.377L283.48 45.6607H297.732L299.984 37.0488H302.01L303.997 45.6607H318.098L315.656 35.4021C319.839 32.8848 322.735 29.3264 323 24.8596C323.303 19.522 320.71 15.358 311.511 15.358H291.713V15.377ZM59.2094 18.746H59.4554C60.9128 18.8028 62.1999 19.7681 61.8781 21.1687L57.1274 39.6608C55.9917 43.6734 50.9381 41.8753 51.5816 39.3579L56.3324 21.0173C56.6731 19.6924 57.8466 18.746 59.2094 18.746ZM134.597 18.9542H137.19C139.31 18.9732 139.745 20.2413 139.405 21.623L134.995 38.6198C134.427 40.6071 133.083 41.4967 131.55 41.4967H128.654L134.597 18.9542ZM304.697 18.9542H307.139C307.139 18.9542 309.58 19.7113 308.956 21.9258C308.331 24.1403 307.139 29.0425 307.139 29.0425C306.76 30.5756 305.398 31.6734 303.827 31.6923H301.366L304.697 18.9542ZM264.779 25.3327L265.877 36.2349H257.89L264.779 25.3327ZM99.3922 14.6577C94.9632 14.6577 82.755 15.4148 79.3102 27.869C75.5058 41.5156 85.7834 46.1339 91.4805 46.1339C99.7139 46.1339 108.364 43.9383 111.733 31.8816C116.162 15.9826 102.25 14.7902 99.3922 14.6577ZM98.1051 18.765C99.6571 18.7082 101.133 19.6924 100.774 21.1687L96.0231 39.6418C94.9253 43.6734 89.8528 41.8753 90.4963 39.3579L95.2092 21.0173C95.5688 19.6924 96.7423 18.765 98.1051 18.765Z"
    fill="black"/>
  <path
    d="M213.713 0.235352C211.631 0.443553 208.849 0.859955 201.884 1.52241C197.019 2.01452 192.098 1.88203 187.253 1.16279C184.319 0.765318 179.531 0.273206 175.764 2.54449C172.66 4.2101 170.691 7.42775 170.635 10.9482C170.635 13.8063 172.016 15.8315 172.016 15.8315C170.426 19.5791 172.471 22.7211 173.341 24.2352C174.174 25.6548 174.818 25.5034 175.669 24.3488C176.805 22.8346 176.9 20.0144 176.9 20.0144C176.9 20.0144 177.411 21.1122 178.338 21.7936C179.171 22.4182 179.322 22.21 179.777 21.4718C180.78 19.882 180.344 16.7211 180.344 16.7211C180.799 17.4971 181.575 18.046 182.464 18.2353C184.168 15.3772 182.332 11.3836 182.332 11.3836C187.84 12.3489 190.016 10.8347 190.016 10.8347C188.994 10.5508 188.124 9.86938 187.613 8.94194C192.231 9.66118 193.972 8.03342 193.972 8.03342C191.19 7.54131 190.452 6.10283 190.452 6.10283C198.098 7.03027 204.401 7.12491 208.925 5.70536C213.448 4.30473 213.713 0.235352 213.713 0.235352ZM169.045 6.85993C163.953 9.62332 155.531 15.2637 155.531 15.2637C156.856 17.9324 158.824 20.393 158.824 20.393L168.591 14.1091C167.379 10.9104 169.026 6.85993 169.045 6.85993ZM169.215 16.5886C167.285 17.7242 165.373 18.8977 163.499 20.128C166.414 20.7148 169.158 20.7148 169.158 20.7337C168.874 18.6138 169.215 16.5886 169.215 16.5886ZM160.13 22.4939C160.319 23.516 160.565 26.1469 160.584 26.128C163.215 24.8788 165.751 22.9671 165.751 22.9671C163.215 22.9103 160.13 22.4939 160.13 22.4939Z"
    fill="black"/>
  <path
    d="M169.972 23.251C169.972 23.251 171.752 26.3929 172.698 27.2068C173.663 28.0207 174.439 28.5696 175.802 27.5286C177.184 26.4686 178.168 24.6705 178.168 24.6705C178.168 24.6705 179.587 27.2636 180.231 28.0017C180.572 28.3992 180.61 28.6831 180.193 29.0049C179.777 29.3267 174.231 33.2825 168.458 38.3929C167.928 38.866 167.701 38.9039 167.36 38.3361C166.982 37.7872 161.928 29.762 161.758 29.4024C161.569 29.0238 161.379 28.5696 162.118 28.1721C162.837 27.7557 168.912 23.7999 169.972 23.251ZM181.764 30.5759L182.767 32.1847C182.767 32.1847 173.909 38.6957 169.859 42.7651C165.808 46.8345 163.707 49.6546 160.301 52.4748C156.875 55.295 153.79 57.4527 150.856 59.0805L149.928 57.5284C149.928 57.5284 154.244 55.0679 159.6 50.336C165.941 44.7146 168.458 41.3266 170.218 39.7556C171.941 38.2036 177.241 33.4528 181.764 30.5759ZM165.998 40.6641C165.998 40.6641 162.477 44.866 158.9 48.008C155.323 51.1499 151.234 54.254 148.528 55.5221C148.528 55.5221 147.884 54.7461 147.752 53.9322C147.638 53.0994 147.808 52.0773 149.417 50.6389C151.745 48.6893 153.354 46.0395 154.017 43.0868C155.077 38.2414 156.023 35.4591 159.487 30.1216C159.468 30.1216 164.54 37.9197 165.998 40.6641Z"
    fill="black"/>
</svg>
