<svg width="269" height="138" viewBox="0 0 269 138" fill="none" xmlns="http://www.w3.org/2000/svg">
  <path fill-rule="evenodd" clip-rule="evenodd"
        d="M36.2163 46.5707L34.6352 46.1756C-15.0997 91.9786 -13.9213 157.525 65.9234 131.281C133.311 101.969 200.696 72.7218 268.082 43.4756C241.47 50.4574 214.859 57.4399 188.312 64.4882C187.126 64.4224 186.007 64.4224 184.886 64.4224L184.973 64.133C185.539 62.2529 186.103 60.3768 186.666 58.5595L170.264 57.9665C171.824 53.0221 173.451 48.1419 175.078 43.2631L175.139 43.0798C180.801 42.5594 186.528 42.0385 192.256 41.5175L192.463 41.4986L197.206 28.2588C191.878 27.8642 186.614 27.5352 181.352 27.2063L181.33 27.2049C181.528 24.7672 181.528 24.7672 185.217 13.8329C191.145 13.5035 197.14 13.1741 203.134 12.8448C204.319 8.56295 205.505 4.28113 206.757 0C190.091 0.262949 173.426 0.527267 156.762 0.854583L156.487 1.16614C152.167 6.06858 147.846 10.971 143.588 15.8735C143.544 15.8073 143.504 15.7467 143.469 15.6827C143.094 14.983 143.458 13.8863 147.803 0.789531C142.007 0.657372 136.21 0.591635 130.414 0.525897L129.706 2.614C121.84 25.8292 113.973 49.0463 106.107 72.3253C111.705 72.1288 117.304 71.9309 122.904 71.733L131.204 49.6008C132.258 57.1763 133.377 64.7518 134.497 72.3266C136.595 72.3649 138.699 72.4033 140.806 72.4417C145.911 72.5349 151.04 72.6285 156.168 72.7211C140.248 77.163 130.794 79.8006 121.317 82.3513C107.465 86.0799 93.5624 89.6229 59.338 98.3449C25.2821 98.3449 24.4925 72.5903 36.2163 46.5707ZM63.1576 0L38.4555 72.3266H55.7772C57.0947 66.8588 57.0947 66.8588 64.4073 46.9007C64.538 55.2405 64.7331 63.6454 64.9282 72.0515L64.9346 72.3266H83.2465L83.4914 71.5798C91.3146 47.7196 99.1379 23.8595 107.026 0C101.691 0.131474 96.3556 0.329371 91.0863 0.527267L90.602 1.86712C87.6682 9.98363 84.7332 18.1033 81.7989 26.2825L81.4038 0H63.1576ZM110.453 0.658057C102.285 24.5042 94.1171 48.4154 86.015 72.3266L86.0229 72.3263C91.5538 72.0628 97.0841 71.7993 102.68 71.6015L102.776 71.3294C111.11 47.7725 119.444 24.2149 127.843 0.658057H110.453ZM147.758 34.3129C147.85 38.5204 148.344 42.719 150.963 65.0141L172.504 3.55666C170.923 4.14966 170.923 4.14966 147.736 31.1567C147.736 32.36 147.736 33.3367 147.758 34.3129Z"
        fill="black"/>
</svg>
