<svg width="224" height="130" viewBox="0 0 224 130" fill="none" xmlns="http://www.w3.org/2000/svg">
  <path
    d="M160.294 21.3682H150.791V40.0071C150.791 46.0597 157.268 51.2639 165.253 51.2639C173.243 51.2639 180.262 45.9985 180.262 40.0071V21.3682H170.759V38.1309C170.759 40.9167 168.398 43.1558 165.494 43.1558C162.529 43.1558 160.167 40.9167 160.167 38.0741V21.3725H160.294V21.3682Z"
    fill="#E21B4D"/>
  <path
    d="M9.91018 11.1389V49.7506H0.0440674V3.15332H17.7733C25.4572 3.15332 31.8115 9.38524 31.8115 17.0122C31.8115 23.489 27.2721 28.9338 21.1626 30.3245L34.8378 49.7506H23.1L13.2339 34.5009V23.3666H15.5342C19.164 23.3666 22.1291 20.642 22.1291 17.314C22.1291 13.9859 19.3433 11.1433 15.7135 11.1433H9.91018V11.1389Z"
    fill="#E21B4D"/>
  <path
    d="M100.38 49.7504V0.914062H91.0607V23.97C88.5811 21.5472 85.4936 20.2177 81.8637 20.2177C74.1799 20.2177 67.9436 26.9963 67.9436 35.4061C67.9436 43.759 74.1755 50.5945 81.8637 50.5945C85.4936 50.5945 88.9441 49.2038 91.0607 46.6017V49.8073H100.38V49.7504ZM84.5839 42.6701C80.8316 42.6701 77.7441 39.342 77.7441 35.1656C77.7441 30.9891 80.8316 27.661 84.5839 27.661C88.3362 27.661 91.4237 30.9891 91.4237 35.1656C91.3013 39.2808 88.2793 42.6701 84.5839 42.6701Z"
    fill="#E21B4D"/>
  <path
    d="M139.473 24.4553C142.014 22.0938 143.588 18.9494 143.588 15.4376C143.588 12.232 142.377 9.38503 140.26 7.08468C138.021 4.66189 134.146 3.20996 128.824 3.20996H112.966V49.8072H133.481C141.288 49.6848 147.703 43.7546 147.703 36.4337C147.642 31.1115 145.77 27.3592 139.473 24.4553ZM131.605 41.6992H122.71V11.5629H128.942C131.666 11.5629 133.967 13.6184 133.967 16.4041C133.967 19.1899 131.666 21.429 128.942 21.429H125.675V29.8388H131.728C134.994 29.8388 137.479 32.5634 137.479 35.8302C137.356 39.0971 135.178 41.5199 131.605 41.6992Z"
    fill="#E21B4D"/>
  <path
    d="M43.0113 31.9601C43.0113 28.8113 45.5522 26.3317 48.6398 26.3317C51.7885 26.3317 54.2682 28.8726 54.2682 31.9601H43.0113ZM63.5264 37.2211C63.5876 36.5564 63.6488 35.9485 63.6488 35.2838C63.7713 25.2384 57.172 19.7324 48.701 19.7324C40.2299 19.7324 33.3289 26.6903 33.3289 35.2838C33.3289 43.8773 40.2299 50.8352 48.701 50.8352C55.1778 50.8352 60.2595 47.8701 62.8616 43.2694L55.2959 39.8189C54.3294 41.8743 52.0903 43.3306 49.4882 43.3306C46.0377 43.3306 43.1338 40.6673 43.1338 37.2168C43.3131 37.2211 63.5264 37.2211 63.5264 37.2211Z"
    fill="#E21B4D"/>
  <path d="M193.999 0.975586H184.679V49.812H193.999V0.975586Z" fill="#E21B4D"/>
  <path d="M209.856 0.975586H200.537V49.812H209.856V0.975586Z" fill="#E21B4D"/>
  <path
    d="M83.556 82.0644C83.556 69.4781 93.7239 59.249 106.371 59.249C118.958 59.249 129.187 69.4169 129.187 82.0644C129.187 94.7119 119.019 104.88 106.371 104.88C93.7239 104.819 83.556 94.5938 83.556 82.0644Z"
    fill="#FFD300"/>
  <path
    d="M88.0345 68.5119C88.3975 68.6955 88.7604 68.8748 89.1234 69.1154C90.8159 70.2655 91.966 71.2933 94.5681 73.4711C95.3553 74.2583 96.2038 75.4697 96.8685 76.2569C98.2592 78.0106 99.2913 79.2832 99.4706 80.7352C99.8948 83.7002 100.319 85.3358 101.408 88.3622C101.53 88.6639 102.011 89.0881 102.318 89.4511C103.044 90.3607 103.345 91.7514 104.618 92.5386C105.344 92.9628 105.466 93.0241 105.707 93.2034C106.07 93.5051 105.466 94.5328 103.651 94.2923C104.618 94.7777 104.5 95.8055 103.105 95.8667C100.441 95.9891 98.8102 94.476 98.4429 94.0518C98.2592 93.8681 97.7169 94.5984 96.8073 94.9614C95.8408 95.4469 94.5681 94.9614 93.5404 95.1451C92.5739 95.3288 91.3625 95.9323 90.3348 95.9935C88.5811 96.0547 88.3362 94.8433 88.3362 93.7544C88.3362 93.5139 88.3362 93.3302 88.3362 93.269C88.1526 93.9337 87.4878 95.0226 87.4878 95.0226C87.2473 95.5693 86.8843 96.1728 86.2764 96.4133L84.4003 96.6539C82.9484 97.3186 81.4352 97.7428 79.922 98.2895C79.0124 98.4732 78.0459 98.2895 77.3812 97.7428C76.8345 97.3186 76.5328 96.7763 76.2922 96.2909C75.9905 96.1684 75.5663 96.2909 75.2033 96.1684C74.9015 96.1072 74.7178 95.8667 74.5385 95.683L73.2659 93.4439C73.1435 93.1421 73.1435 92.7179 73.2659 92.4162C73.5065 91.9307 74.0531 91.6902 74.5385 91.6902C75.505 91.629 76.5371 91.3272 77.5036 91.6902C77.9278 91.2048 78.5926 91.266 79.1392 91.1436C78.8987 90.7806 78.5357 90.5969 78.2296 90.2951C76.5371 90.7193 74.661 90.4176 72.9642 90.1115C71.451 89.7485 70.1215 90.6581 68.6084 90.4132L68.123 91.4409C67.397 92.2281 67.3358 93.4964 66.308 94.043C65.5209 94.2267 64.9786 94.769 64.3095 95.132C63.1593 95.7967 61.5237 95.495 60.2554 95.2544C59.7088 95.1932 59.3458 95.2544 58.926 95.4381C58.5017 95.7399 58.0163 96.2253 57.5965 96.5271C56.8093 96.8288 56.2058 97.4935 55.3574 97.5548C54.8719 97.5548 54.3909 97.253 53.9667 97.3711C53.3631 98.0358 53.057 99.0635 52.1518 99.3697C51.1853 99.6714 50.0351 99.4309 49.0642 99.186C48.7625 99.3085 48.5788 99.549 48.2158 99.4878C47.5511 99.3041 46.9432 99.1248 46.3397 98.7618C46.0991 98.5213 46.0379 98.2151 45.9767 97.9746C45.9767 97.5504 46.3397 97.1874 46.5233 96.8857C46.5846 96.4615 46.5846 95.8579 46.7639 95.495C47.0656 94.8302 47.7304 94.406 48.3383 94.1655C48.3995 93.6801 48.7012 93.2558 49.1254 93.0765C49.9126 92.6523 50.6998 91.7471 51.7275 92.2281L52.8165 93.1378C53.783 92.7136 53.5425 91.8083 53.9667 91.0211C54.2072 90.4744 54.5133 89.9322 55.0556 89.9322C55.4798 89.8709 55.9652 89.9934 56.3282 89.9322C56.9317 89.7485 57.5396 89.5079 57.9638 89.0225L57.9026 88.6595C57.2991 87.5706 57.1154 86.1799 57.0542 84.846C55.9652 84.9685 54.8763 85.1478 53.7874 84.9073C52.1517 84.6667 50.5205 83.3941 49.9126 81.7017C49.1867 80.1273 49.4884 77.8882 50.6386 76.4975C51.5482 75.4085 52.5147 74.4989 53.6037 73.6548C53.2407 73.5324 52.8165 73.5936 52.5147 73.4711C51.0016 73.2306 49.4272 71.8968 49.1254 70.3224C48.8849 69.2947 49.1254 68.385 49.6109 67.5366C49.7946 67.3529 49.9739 67.1736 50.2756 67.2961C51.0628 67.5978 51.3033 68.022 51.9681 68.385L52.3923 68.6256C54.3296 69.2903 56.9317 69.2903 57.7189 71.7131C58.2044 73.5892 56.993 74.9799 55.6635 76.0689C54.5745 76.8561 53.5468 77.7613 53.0002 78.9115C52.7596 79.7599 52.8777 80.5471 53.6037 81.1506C54.3296 81.8766 55.541 81.8766 56.4463 81.5136C58.0819 80.7876 59.6519 79.7599 61.1082 78.6097C62.4989 77.5208 64.257 77.1578 66.0719 77.0966C66.9203 76.9129 67.585 76.5499 68.2498 76.0077C69.3387 74.9187 70.5501 74.0703 71.9408 73.7073C72.6056 73.5849 73.2134 73.5236 73.8782 73.4668C74.4248 73.2262 74.7878 72.5571 75.1508 72.3166C77.0882 70.6241 79.6903 70.681 81.7457 69.2903C82.8959 68.3807 84.2253 67.8384 85.7385 67.8996C86.4645 67.9608 87.068 68.0833 87.6759 68.3238L88.0345 68.5119ZM89.9718 88.5414C88.6992 88.6027 87.8552 88.9044 86.9455 89.0269C87.0068 89.8753 87.4922 90.54 88.0957 91.4497C88.5199 90.0546 89.6089 89.5079 89.9718 88.5414Z"
    fill="#FFD300"/>
  <path
    d="M123.134 88.8433C123.738 89.7529 124.101 90.597 124.586 91.5678C125.133 90.5401 125.614 89.6305 126.038 89.0269C126.038 88.9657 124.468 89.145 123.134 88.8433ZM124.346 93.1991C124.284 93.3827 124.162 93.4396 123.921 93.4396C124.105 94.288 123.497 95.8011 122.045 95.8624C121.018 95.9236 119.382 94.8959 118.477 94.8347C117.449 94.7734 115.634 95.5606 114.602 93.925C113.211 95.6175 111.514 96.1029 110.124 96.0417C109.275 96.0417 108.431 95.5562 109.638 94.5285C106.914 95.4382 106.914 93.562 107.399 93.2559C107.701 93.0154 108.064 92.8317 109.035 91.8652C112.787 87.9336 111.396 81.0938 115.512 76.5544C117.086 74.8007 118.415 73.7686 121.625 71.4726C122.714 70.6854 123.865 69.5965 124.892 68.8093L124.954 68.9317V68.8705C125.618 68.3851 126.165 67.904 126.891 67.7816C128.343 67.5979 129.734 68.0833 130.822 68.8705C131.426 69.2947 131.911 69.7802 132.336 70.3225C132.699 70.6854 133.245 70.6854 133.665 70.8691C134.995 71.1096 136.206 71.6563 137.295 72.321C138.082 72.8065 138.686 73.5937 139.656 73.7117C140.745 73.8954 141.773 74.2584 142.805 74.8007C143.955 75.5879 145.044 76.4931 146.435 76.738C149.278 77.0398 151.639 78.6142 153.878 80.1886C155.151 80.9757 156.721 81.8242 158.295 81.2775C158.781 81.0938 159.144 80.674 159.262 80.2498C159.384 79.1608 158.715 78.3736 158.112 77.5865C156.782 76.0121 154.421 74.6214 154.722 72.321C155.147 70.6286 157.023 69.5965 158.475 69.1154C159.323 68.8137 160.29 68.9317 161.016 68.2058C161.379 67.9652 161.562 67.1168 162.105 67.4186C162.59 67.7203 162.651 68.3282 162.708 68.8093C162.949 70.4449 162.586 72.0761 161.072 73.047C160.346 73.5324 159.62 73.7117 158.772 73.8954C159.983 74.9231 161.252 76.1345 161.978 77.5252C162.402 78.3737 162.642 79.0384 162.704 80.0049C162.642 81.7586 161.615 83.2717 160.04 84.1813C159.131 84.6668 158.164 84.8461 157.075 84.8461C156.651 84.8461 156.288 84.7236 155.986 84.7236C156.17 85.5721 156.17 86.661 155.986 87.6275C155.925 88.1129 155.623 88.6552 155.623 89.2019C155.864 89.5036 156.227 89.5036 156.533 89.5036C157.32 89.5036 158.225 89.4424 158.65 90.2908C159.013 91.078 159.196 91.9264 159.498 92.7136C159.62 92.8361 159.682 93.1378 159.861 93.0766C160.408 92.5912 160.95 91.9876 161.676 92.1101C162.402 92.5955 163.067 93.1378 163.793 93.6233C163.976 93.8069 164.033 94.0475 164.094 94.3492C164.698 94.5897 165.424 95.014 165.608 95.6787C165.73 96.1641 165.669 96.6452 165.791 97.0082C165.975 97.4936 166.456 98.0971 166.093 98.6438L165.852 98.8275L163.613 99.5534C163.43 99.5534 163.25 99.431 163.067 99.2517C161.916 99.1904 160.465 99.5534 159.555 98.705C159.131 98.342 158.829 97.9178 158.527 97.4936C157.801 97.8566 156.835 98.0971 156.104 97.616C154.652 96.5271 153.139 95.3769 151.141 95.4382C150.231 95.6218 149.203 95.8624 148.298 95.4994C147.45 94.8959 146.544 94.5898 145.875 93.7457C144.909 92.718 144.909 91.5678 144.603 90.3564C143.33 90.6582 141.878 90.4789 140.61 90.4176C139.521 90.3564 138.554 90.5401 137.522 90.7806C136.311 91.0212 134.92 91.1436 133.648 91.0824L132.983 91.5678C133.285 91.629 133.586 91.629 133.831 91.8696L134.072 92.1101C135.161 92.2326 136.372 92.0489 137.339 92.2938C137.579 92.355 137.824 92.5955 137.942 92.8404C138.065 93.1422 138.065 93.5052 137.881 93.7501C137.334 94.476 137.033 95.2632 136.368 95.8667C136.184 96.1073 135.642 95.8055 135.581 96.2297C135.34 97.3187 134.369 98.1671 133.341 98.4076C132.917 98.4689 132.432 98.4076 132.13 98.2852C130.919 97.861 129.65 97.498 128.439 97.1962C128.015 97.0738 127.652 96.6496 127.35 96.409C126.803 96.409 126.077 96.5927 125.714 96.1073C125.531 95.9848 125.352 95.5606 125.29 95.3813C124.831 94.9571 124.525 93.9862 124.346 93.1991Z"
    fill="#FFD300"/>
  <path
    d="M87.4309 75.9553C87.7939 76.8649 87.7939 78.0107 87.5534 78.9816C87.4922 79.0428 87.4309 79.0428 87.3697 78.9816C87.186 78.1332 87.0067 77.346 86.705 76.5019C86.5213 76.0165 85.9178 75.5923 86.1583 75.1112C86.2808 74.9888 86.5213 74.9888 86.705 75.05C87.0067 75.2862 87.186 75.5923 87.4309 75.9553ZM96.8728 84.1858C97.5376 84.973 97.9618 85.7602 97.7825 86.7879C97.66 86.9716 97.7212 87.3346 97.4195 87.3914C97.297 87.4526 97.179 87.3302 97.179 87.2077C97.1177 86.6611 97.1177 86.1188 96.816 85.6946C96.453 85.3316 96.0288 84.6056 95.4865 84.6056C95.0623 84.7281 94.7605 85.2091 94.52 85.5153C94.52 85.5765 94.4588 85.5765 94.3976 85.5153C94.157 84.9118 94.6381 84.4263 94.8218 84.0021C95.1847 83.6391 95.1235 82.6726 95.9107 82.9132C96.3874 83.2149 96.5098 83.8228 96.8728 84.1858ZM95.6002 91.2049C95.6614 91.5679 95.6614 92.1145 95.2985 92.2938C94.9355 92.4163 94.45 92.4775 94.0871 92.4163C93.9646 92.3551 93.8465 92.2939 93.9034 92.1758C94.0871 91.6291 94.6293 91.0868 95.176 90.9644C95.3597 90.96 95.539 90.96 95.6002 91.2049ZM52.6328 69.6621C54.0235 70.0251 55.5979 70.0251 56.6256 71.1141C57.2291 71.84 57.2903 73.0514 56.8093 73.7774C55.9608 75.1681 54.3296 75.8941 53.3587 77.1055C52.331 77.9539 52.0293 79.2221 52.2698 80.4947C52.6328 81.5837 53.7217 82.3709 54.8719 82.4321C56.6256 82.4933 57.9594 81.5837 59.3501 80.7965C60.7408 79.7688 62.0747 78.4962 63.6447 78.072C64.7336 77.709 65.8838 77.8883 66.9115 77.4684C68.0005 77.2279 68.9101 76.3183 69.8154 75.4699C70.8431 74.6214 71.9933 74.1972 73.2659 74.2585C74.4161 74.4421 75.0808 73.3488 75.9292 72.6841C77.2587 71.4727 79.078 71.3546 80.648 70.6286C81.7369 70.2657 82.6466 69.4785 83.7355 68.9362C84.7632 68.512 86.0971 68.3895 87.0636 68.8137C87.7283 69.1155 88.3931 69.4172 89.0009 69.9027L93.7809 73.8955C93.8421 74.0792 94.0215 74.1972 94.1439 74.2585C95.4734 75.8941 96.9297 77.5253 98.0186 79.3402C98.3816 80.0049 98.5653 80.6128 98.7446 81.3388C98.9851 84.0633 99.7111 86.4205 100.559 88.7821C100.8 89.1451 101.285 89.4468 101.526 89.8098C102.313 90.8988 102.737 92.2326 104.006 92.9586L104.732 93.3216C104.793 93.3828 104.793 93.5052 104.732 93.5621L104.609 93.6845C103.157 93.9251 102.007 93.0198 101.281 91.9921C100.796 91.0256 100.192 90.0547 99.1032 89.6305C99.042 89.6305 98.9807 89.6917 98.9807 89.6917C99.1032 90.0547 99.4662 90.2953 99.5843 90.6014C100.008 91.2661 100.371 91.9309 100.551 92.6568C100.791 93.444 101.64 93.9294 102.243 94.3493L103.21 94.8347C103.332 94.8959 103.393 95.0752 103.271 95.1977L103.148 95.2589C101.574 95.3202 100.122 94.7735 99.0332 93.6233C98.7927 93.3216 98.4297 93.0767 98.0055 93.0767C97.2795 93.7414 96.6148 94.2881 95.6439 94.3493C94.6162 94.1656 93.5885 94.1656 92.6789 94.533C91.8304 94.8347 91.0433 95.1977 90.138 95.1977C89.7138 95.1977 89.2283 95.014 89.049 94.5942C89.049 94.0475 88.6861 93.5052 88.9878 92.9586L89.5913 92.0489C89.5913 91.9265 89.5301 91.8084 89.4076 91.8084C89.1671 91.7472 88.7429 92.1714 88.6205 91.7472C88.6817 90.8375 89.587 90.2953 90.1336 89.6917C90.2561 88.9658 90.5578 88.3623 91.1001 87.7544C91.1001 87.6932 91.0389 87.5707 90.9164 87.5707C90.1292 87.6932 89.4033 87.8725 88.5549 87.8725C87.8901 88.2354 87.1029 88.476 86.3157 88.2354C86.1321 88.113 86.1933 87.9337 86.2545 87.8112C87.1029 86.7223 87.3435 85.2704 87.1642 83.9365C87.1029 83.8753 87.1029 83.7528 86.9805 83.7528C86.858 83.7528 86.858 83.8753 86.7968 83.9365C86.6131 85.2091 86.1933 86.2369 85.5242 87.3258C84.9775 87.8725 84.1947 87.8725 83.4687 88.0518C83.2851 88.113 83.1058 88.2923 83.1058 88.476C83.1058 88.9614 83.4075 89.2632 83.5912 89.6261L85.1043 92.4688C85.1656 93.256 84.8026 93.9819 84.6189 94.7079C84.6801 94.8303 84.8026 94.7691 84.9207 94.7079C85.4673 94.2225 85.8303 93.6189 86.0096 92.893C86.0708 92.5912 85.9484 92.2283 85.8259 91.9833L84.2516 88.7777C84.374 88.5941 84.6145 88.5941 84.7982 88.5372C85.1612 88.5372 85.5242 88.7209 85.8872 88.839C86.2501 89.8055 86.6744 90.7763 87.2779 91.6247C87.4003 92.1714 87.5796 92.8361 87.2166 93.2603C86.8537 93.9863 86.4907 94.533 86.0665 95.1977C85.6423 95.6219 85.0387 95.5607 84.4921 95.6219H84.3084C82.9177 96.4091 81.4046 96.8333 79.8914 97.3144C79.2267 97.6161 78.5007 97.3756 77.954 96.9514C77.4074 96.5272 77.1669 95.9237 76.8651 95.4382C76.4409 94.8916 75.7761 95.377 75.3519 95.0752C74.9277 94.4105 74.5035 93.8026 74.2018 93.0767C74.2018 92.893 74.2018 92.7137 74.3855 92.5912C74.9321 92.4075 75.4744 92.4076 76.0779 92.3507C76.6246 92.2895 77.1668 92.4119 77.5298 92.7749C78.2558 93.6233 78.5576 94.7123 79.5853 95.2545C80.4337 95.3158 81.0984 95.0709 81.8244 94.7079C82.2486 94.4674 82.734 94.1044 82.734 93.6189C82.6728 92.53 81.9468 91.7428 81.0984 91.1393C80.1888 90.6539 79.2835 90.0504 78.6188 89.2019C78.2558 88.7165 78.1946 88.1742 78.0153 87.75C77.954 87.6276 77.7135 87.6276 77.6523 87.6888C77.2893 87.9905 77.5911 88.5372 77.5911 88.839C77.6523 89.0795 77.7747 89.3856 77.6523 89.5649C77.1056 89.9891 76.4409 89.7486 75.7761 89.8055C74.5035 89.7442 73.2353 89.2019 71.9014 89.32C70.6288 89.3812 68.8139 90.2865 67.9086 88.957C67.4232 87.7456 67.5456 86.2325 67.7862 85.0255C67.7862 84.903 67.6637 84.7849 67.5457 84.7849C67.4232 84.7237 67.3051 84.7849 67.2439 84.9074C66.8809 86.1188 66.8197 87.5095 66.5179 88.7821C66.0325 89.8711 65.2453 91.0824 64.0951 91.686C63.0674 92.2326 61.9172 92.4119 60.7058 92.5344C58.4667 92.5956 56.4113 93.0198 55.0162 94.9572C54.8938 95.1408 54.7145 95.3202 54.7757 95.5607C54.8369 95.6219 55.0162 95.6831 55.0774 95.6219C56.5906 93.9294 58.528 93.1991 60.7671 93.3216C62.8837 93.3216 65.0048 92.9586 66.3343 91.1437C66.6972 90.7195 66.9378 90.2953 67.2439 89.871C67.4844 89.871 67.6681 90.1728 67.8474 90.2953C67.9086 90.96 67.362 91.3842 67.1214 91.8696C66.8197 92.4732 66.5179 93.1423 65.9713 93.5052C65.2453 93.6889 64.6986 94.17 64.0339 94.533C63.3692 94.8347 62.582 94.9572 61.7948 94.7735C60.8283 94.5898 59.5557 94.3493 58.5892 94.7735C58.1037 95.0752 57.6795 95.6219 57.2597 95.8624C56.595 96.1642 56.0483 96.7108 55.2611 96.6496C54.7145 96.5272 54.1109 96.1642 53.6255 96.6496C53.022 97.1963 52.8995 98.1015 52.1736 98.4645C51.2639 98.95 50.3587 98.4645 49.449 98.4033C49.5715 97.4937 49.6896 96.7109 50.2975 96.0417C50.6604 95.9805 50.9622 95.9193 51.2639 95.6788C51.6269 95.377 51.8675 94.9528 52.1124 94.5898C52.8995 94.1044 53.748 93.7414 54.229 92.9542C54.592 92.167 54.592 91.5023 55.1955 90.7763L55.4973 90.6539L57.0717 90.5314C57.7364 90.2297 58.2831 89.9279 58.8866 89.4425C59.0702 89.2588 59.1271 88.957 59.0702 88.6553C58.7685 87.8681 58.5236 87.3827 58.3443 86.5386C58.1606 85.6902 58.2831 84.903 58.1606 83.9365C58.0994 83.8753 58.0381 83.696 57.9201 83.696C56.8311 83.9365 55.8646 84.2426 54.6532 84.059C53.0789 83.8753 51.3864 82.8476 50.8397 81.2163C50.2931 79.8869 50.4155 77.9495 51.4432 76.7993C52.4097 75.6492 53.5599 74.7439 54.7101 73.7118C54.8938 73.5894 54.8938 73.3488 54.9506 73.1651C54.9506 72.9246 54.7101 72.7409 54.5264 72.6185C53.8004 72.4348 53.0133 72.6797 52.2873 72.3779C51.0759 71.9537 50.1094 70.8036 49.9257 69.4741C49.8645 68.8706 49.9869 68.3851 50.2887 67.9609C51.0584 68.7525 51.7275 69.4172 52.6328 69.6621ZM49.121 95.9849V96.1686C48.8193 96.8945 48.6356 97.6817 48.3951 98.5301C47.8484 98.4689 47.3674 98.2896 47.0044 98.1059C46.8819 97.9835 47.0044 97.8654 47.0044 97.7429C47.551 97.2575 47.3674 96.654 47.4898 96.0505C47.551 95.6875 47.914 95.3857 48.277 95.2021C48.64 95.3202 48.8805 95.7444 49.121 95.9849ZM51.6663 93.5621C51.3645 94.1656 50.9403 94.8347 50.3368 95.1977C50.0963 95.2589 49.7902 95.2589 49.5496 95.1365C49.4272 95.014 49.1866 94.8959 49.1866 94.651C49.2479 94.4105 49.1254 94.1044 49.3703 93.9863C49.8558 93.6845 50.3368 93.3828 50.761 92.9586C50.8835 92.8974 51.124 92.8361 51.1852 92.9586C51.4826 93.1991 51.6051 93.3216 51.6663 93.5621ZM81.199 93.3216C81.2602 93.5621 81.6232 93.8682 81.3827 94.1088C80.8973 94.4717 80.355 94.7123 79.7471 94.6554C79.2617 94.2924 79.3229 93.6277 78.8987 93.2035C78.7762 92.8405 78.2339 92.8405 78.352 92.4775L78.5357 92.3551C79.2004 92.3551 79.8083 92.3551 80.473 92.2326C81.1378 92.1102 80.9541 92.8974 81.199 93.3216Z"
    fill="#E21B4D"/>
  <path
    d="M118.415 83.7004C118.778 84.1859 119.08 84.6669 119.325 85.2136C119.386 85.336 119.325 85.4541 119.264 85.5766C119.203 85.699 119.08 85.8171 118.901 85.699C118.477 85.5766 118.538 84.9118 117.991 84.9731C117.628 84.9731 117.388 85.2748 117.081 85.4585C116.535 85.9439 115.87 86.425 115.752 87.0941C115.63 87.3346 115.691 87.7588 115.45 87.8813C115.328 87.9425 115.149 87.82 115.149 87.6976C115.087 86.7311 115.389 85.8827 116.058 85.218C116.723 84.6713 117.147 83.9453 117.694 83.2806C118.052 83.215 118.293 83.4599 118.415 83.7004ZM118.656 91.5067C118.778 91.7472 119.019 92.0534 118.84 92.3551C118.599 92.5388 118.175 92.4164 117.873 92.4164C117.51 92.2327 117.388 91.7516 117.388 91.3274C117.388 91.205 117.388 91.1437 117.51 91.0257C117.93 91.0825 118.354 91.205 118.656 91.5067ZM127.49 73.5326C127.674 73.7731 127.49 74.018 127.367 74.1973C126.519 74.9845 125.553 75.7717 124.945 76.7382C124.704 77.0399 124.52 77.4029 124.398 77.7659C124.398 77.8271 124.337 77.8271 124.276 77.8271C124.092 77.3417 124.337 76.7994 124.459 76.3752C124.883 75.2862 125.789 74.1973 126.821 73.4101C126.948 73.292 127.372 73.2308 127.49 73.5326ZM130.822 69.7191C131.487 70.1433 131.732 70.9917 132.458 71.171C133.731 71.4727 135.06 71.7745 136.21 72.3212C137.059 72.7454 137.785 73.3489 138.572 73.9568C139.298 74.3198 140.146 74.3197 140.933 74.5603C142.022 74.862 142.932 75.6492 143.96 76.314C145.232 77.3417 147.108 77.2236 148.56 77.8271C150.922 78.6143 152.798 80.4292 154.976 81.4569C156.065 82.0604 157.819 82.3053 158.908 81.6406C159.695 81.0939 160.119 80.4292 159.996 79.4015C159.572 76.9787 156.909 75.7717 155.702 73.7731C155.461 73.2877 155.278 72.6841 155.4 72.1375C155.886 70.9873 157.093 70.3226 158.186 69.8984C159.034 69.4742 160.062 69.5966 160.849 69.1112C161.151 68.9275 161.396 68.687 161.575 68.5077C161.759 68.5077 161.759 68.6913 161.816 68.8094C162.056 70.2001 161.816 71.7133 160.604 72.5005C160.119 72.8634 159.515 72.9859 159.03 73.104C158.545 73.2877 157.639 72.9203 157.7 73.7687C157.823 74.1929 158.186 74.4335 158.488 74.7352C160.123 76.0647 161.693 77.884 161.816 80.0006C161.877 81.6362 160.727 83.0882 159.336 83.7529C158.247 84.1771 156.975 84.3564 155.886 84.0547C155.584 83.9934 155.098 83.6917 154.858 84.1159C154.797 84.6013 155.098 84.9643 155.098 85.3273C155.221 86.1145 155.221 87.081 154.976 87.8682C154.853 88.4717 154.25 89.1408 154.792 89.7443C155.339 90.5927 156.367 90.3478 157.272 90.4702C157.757 90.5315 157.937 91.0738 158.059 91.4368C158.243 91.9222 158.243 92.4645 158.422 92.7662C158.422 93.6759 159.45 93.9776 159.874 94.5811C160.478 95.2459 160.963 96.3348 161.991 96.2736C162.354 96.9996 162.537 97.6031 162.655 98.4515L162.533 98.5739C161.685 98.5739 160.596 98.8145 159.992 98.211C159.266 97.7255 159.026 96.4573 157.993 96.8203C157.508 97.1832 156.905 97.3057 156.358 97.0608C155.811 96.8771 155.448 96.396 155.028 96.0943C153.638 95.0053 151.762 94.5199 149.885 94.9441C148.796 95.2459 148.009 94.4587 147.161 93.9776C146.072 93.4922 145.77 92.342 145.525 91.3143L145.342 90.1029C145.342 89.9804 145.464 89.8624 145.582 89.8011H145.766C146.431 91.2531 147.642 92.9499 149.216 93.431C150.668 94.0345 152.059 93.2473 153.633 93.5534C155.085 93.7371 156.297 94.6424 157.386 95.552C157.508 95.552 157.569 95.4908 157.626 95.3683V95.2459C156.297 93.5534 154.359 92.6438 152.181 92.8231C150.367 93.1861 148.613 92.5825 147.519 91.0694C146.916 90.1597 146.492 89.2545 146.369 88.2268C146.186 87.0766 145.945 85.7471 145.521 84.715C145.398 84.6538 145.28 84.5313 145.158 84.5926L145.035 84.7762C145.219 85.8652 145.582 87.2559 145.158 88.4061C144.856 89.3726 143.947 89.6787 143.041 89.7355C142.132 89.7968 141.349 89.6131 140.378 89.6131C138.261 89.5519 136.385 90.4003 134.207 90.2166C134.391 89.6699 134.754 89.1277 134.57 88.581C134.509 88.4586 134.33 88.4586 134.207 88.4586C133.783 88.6991 133.844 89.2457 133.604 89.5475C133.118 90.3347 132.274 90.9994 131.365 91.1831C130.7 91.6685 130.153 92.272 129.611 92.8755C129.427 93.0592 129.427 93.4222 129.488 93.6627C129.913 94.7517 131.124 94.8129 132.091 95.1147C132.576 95.1759 133 94.9922 133.18 94.568C133.604 93.9033 133.665 92.8756 134.57 92.7531H136.626C136.809 92.8143 136.927 92.9368 137.05 93.1161L136.989 93.4178C136.503 93.9645 136.324 94.6905 135.777 95.0534C135.414 95.1759 134.99 95.0534 134.75 95.3552C134.627 96.0812 134.448 96.8071 133.722 97.1701C133.175 97.6555 132.449 97.4106 131.846 97.2313C130.757 96.8071 129.607 96.5666 128.518 96.2036C128.032 96.0812 127.853 95.4777 127.367 95.3552C126.882 95.2328 126.34 95.5957 125.977 95.1715C125.736 94.6249 125.614 94.2619 125.491 93.7196C125.308 93.3566 125.19 92.9324 125.128 92.5694C125.067 92.2064 125.128 91.9659 125.251 91.6598L126.764 88.874C126.886 88.6903 127.004 88.511 127.188 88.4498C127.551 88.511 127.975 88.6903 128.277 88.874L128.216 89.0577L126.641 91.4805C126.279 92.2677 126.641 93.1161 127.004 93.7808C127.066 93.842 127.127 93.9645 127.188 93.9033C127.127 93.4178 127.066 92.9368 127.188 92.4513C127.311 91.9659 127.612 91.5417 127.853 91.1787L129.064 89.3638C129.187 89.0621 129.187 88.5766 128.942 88.2749C128.395 87.7282 127.669 87.5489 127.188 86.8842C126.16 85.5547 126.099 83.9191 125.977 82.2223C125.977 82.0998 125.854 81.9205 125.675 81.8593C125.553 81.798 125.434 81.9817 125.373 82.043C125.071 83.1319 125.251 84.5226 125.557 85.4935C125.741 86.2806 126.104 87.0066 126.467 87.7326C126.528 87.855 126.405 88.0343 126.283 88.0956C125.434 88.1568 124.647 88.0956 123.86 87.9731C122.771 87.7894 122.045 86.9454 121.136 86.3375C121.013 86.2763 120.952 86.3987 120.895 86.46C121.136 87.6101 122.408 88.3361 122.832 89.425C123.073 90.3347 123.921 90.9382 124.105 91.9047C124.105 92.0271 123.983 92.2064 123.864 92.2677C123.563 92.3289 123.261 92.1452 122.955 92.3289C122.894 92.8755 123.257 93.4178 123.016 93.8421C122.714 94.3275 122.29 94.8698 121.805 94.8698C120.716 94.5068 119.688 94.0214 118.599 93.7808C117.812 93.7196 117.086 93.842 116.36 93.9033C115.634 93.7808 115.21 93.1161 114.667 92.8143C114.484 92.7531 114.304 92.7531 114.182 92.8755C113.032 94.0257 111.702 95.3552 109.944 95.2983C109.822 95.2983 109.761 95.1759 109.761 95.0578V94.9354C110.548 94.2094 111.453 93.5447 111.816 92.5126C112.057 91.6642 112.783 91.1219 113.027 90.3347C113.089 90.2122 112.966 90.151 112.844 90.0942L112.66 90.2166C111.75 91.1262 111.147 92.0927 110.482 93.0592C109.817 93.724 108.908 94.1482 107.88 93.9076C107.758 93.8464 107.758 93.6671 107.819 93.5447C111.449 91.3055 111.873 87.3127 112.901 83.6786C113.627 81.2558 114.112 78.7761 116.049 76.8388C118.892 73.69 122.404 71.8751 125.553 69.1549C126.038 68.7307 126.519 68.3065 127.066 68.3065C128.583 68.2671 129.79 68.875 130.822 69.7191ZM164.466 95.7444C164.768 96.1686 164.65 96.8334 164.768 97.2576C164.829 97.6206 165.314 97.9223 165.069 98.2853L163.797 98.7095C163.556 98.7095 163.674 98.4077 163.556 98.2853C163.434 97.4981 163.255 97.0127 163.01 96.2867C162.948 95.8625 163.373 95.5607 163.674 95.3202C163.924 95.259 164.164 95.622 164.466 95.7444ZM161.444 93.1423C161.929 93.5665 162.533 93.8683 162.896 94.3537C162.957 94.5942 162.773 94.8392 162.655 95.0185C162.472 95.2021 162.231 95.3202 161.929 95.3202C161.628 95.3202 161.383 95.1365 161.203 94.896C160.902 94.4106 160.478 93.9864 160.355 93.5665C160.657 93.2604 161.077 92.7793 161.444 93.1423ZM133.061 92.6569C133 93.2604 132.821 93.7458 132.576 94.2925C132.392 94.6555 131.85 94.533 131.487 94.4762C131.124 94.3537 130.521 94.2925 130.459 93.7502C130.398 93.2648 130.643 92.7837 130.884 92.4776C131.43 92.4164 132.034 92.5388 132.576 92.4164C132.878 92.4164 133.061 92.4732 133.061 92.6569Z"
    fill="#E21B4D"/>
  <path
    d="M11.8433 129.331H20.0125V127.634H13.7194V121.887H19.772V120.129H13.7194V115.896H20.0125V114.199H11.8433V129.331Z"
    fill="#E21B4D"/>
  <path d="M28.0023 129.331H29.8784V118.013L41.3145 129.996V114.2H39.4384V125.395L28.0023 113.413V129.331Z"
        fill="#E21B4D"/>
  <path
    d="M49.4273 129.331H57.5966V127.634H51.3603V121.887H57.4129V120.129H51.3603V115.896H57.5966V114.199H49.4273V129.331Z"
    fill="#E21B4D"/>
  <path
    d="M69.9423 122.732C72.1202 122.491 73.5721 120.676 73.5721 118.494C73.5721 117.042 72.8462 115.59 71.5735 114.864C70.4234 114.138 68.9102 114.138 67.5807 114.138H65.2804V129.327H67.1565V122.911H67.9437L72.422 129.327H74.7223L69.9423 122.732ZM67.1565 115.835H67.7032C69.5793 115.835 71.8184 116.198 71.8184 118.56C71.8184 120.982 69.7018 121.345 67.8256 121.345H67.2221L67.1565 115.835Z"
    fill="#E21B4D"/>
  <path
    d="M88.3361 121.704V123.396H92.2677C92.2065 125.876 89.6656 127.874 87.304 127.874C84.0372 127.874 81.4351 124.848 81.4351 121.704C81.4351 118.314 84.0984 115.533 87.4877 115.533C89.3638 115.533 91.1788 116.561 92.2677 118.013L93.5972 116.74C92.1452 114.864 89.7837 113.775 87.4265 113.775C83.0707 113.775 79.559 117.343 79.559 121.704C79.559 125.88 82.9482 129.571 87.2428 129.571C91.4805 129.571 94.4456 126.366 94.4456 122.189V121.586L88.3361 121.704Z"
    fill="#E21B4D"/>
  <path
    d="M104.736 122.731V129.331H106.612V122.731L111.576 114.199H109.398L105.707 120.676L101.955 114.199H99.7766L104.736 122.731Z"
    fill="#E21B4D"/>
  <path
    d="M124.586 129.331H127.674C132.454 129.331 136.267 126.852 136.267 121.647C136.267 116.566 132.393 114.082 127.735 114.082H124.586V129.331ZM126.462 115.896H127.127C131.002 115.896 134.33 117.287 134.33 121.765C134.33 126.182 131.002 127.573 127.127 127.573H126.462V115.896Z"
    fill="#E21B4D"/>
  <path
    d="M148.128 122.732C150.305 122.491 151.757 120.676 151.757 118.494C151.757 117.042 151.031 115.59 149.759 114.864C148.609 114.138 147.096 114.138 145.766 114.138H143.466V129.327H145.342V122.911H146.129L150.607 129.327H152.908L148.128 122.732ZM145.346 115.835H145.893C147.769 115.835 150.008 116.198 150.008 118.56C150.008 120.982 147.891 121.345 146.015 121.345H145.412L145.346 115.835Z"
    fill="#E21B4D"/>
  <path d="M160.714 114.199H158.838V129.388H160.714V114.199Z" fill="#E21B4D"/>
  <path d="M168.28 129.331H170.156V118.013L181.535 129.996V114.2H179.659V125.395L168.28 113.413V129.331Z"
        fill="#E21B4D"/>
  <path
    d="M191.095 120.737V114.199H189.219V129.331H191.095V123.033L191.882 122.25L197.572 129.331H200.113L193.155 120.978L199.99 114.199H197.511L191.095 120.737Z"
    fill="#E21B4D"/>
  <path
    d="M219.539 0.669111C220.628 0.669111 221.476 1.03209 222.202 1.75806C222.928 2.48402 223.291 3.39366 223.291 4.42138C223.291 5.51033 222.928 6.35874 222.202 7.0847C221.476 7.87189 220.567 8.17365 219.539 8.17365C218.45 8.17365 217.601 7.81067 216.814 7.0847C216.088 6.35874 215.725 5.4491 215.725 4.42138C215.725 3.33244 216.088 2.48402 216.814 1.75806C217.601 1.09332 218.45 0.669111 219.539 0.669111ZM223.956 4.42138C223.956 3.27121 223.532 2.18226 222.683 1.27262C221.774 0.424206 220.807 0 219.534 0C218.323 0 217.295 0.424206 216.386 1.27262C215.476 2.18226 215.113 3.14876 215.113 4.42138C215.113 5.63278 215.537 6.6605 216.386 7.57014C217.295 8.47978 218.262 8.84276 219.534 8.84276C220.746 8.84276 221.774 8.41855 222.683 7.57014C223.47 6.72172 223.956 5.694 223.956 4.42138ZM220.689 3.51611C220.689 3.8791 220.505 4.18085 220.142 4.3033C219.959 4.36453 219.657 4.42575 219.294 4.42575H218.507V2.67207H219.233C219.718 2.67207 220.081 2.7333 220.322 2.85575C220.628 2.96945 220.689 3.15313 220.689 3.51611ZM217.785 2.00296V6.84417H218.634V4.96804H219.298C219.784 4.96804 220.085 5.02927 220.265 5.15172C220.567 5.33539 220.75 5.69838 220.75 6.24066V6.60364V6.7261V6.78732V6.84855H221.599L221.537 6.78732C221.537 6.7261 221.476 6.66487 221.476 6.54679C221.476 6.42434 221.476 6.30626 221.476 6.18381V5.82083C221.476 5.5803 221.354 5.33539 221.236 5.03364C221.052 4.79311 220.75 4.60943 220.387 4.5482C220.689 4.48698 220.934 4.42575 221.113 4.30768C221.415 4.124 221.599 3.76102 221.599 3.34118C221.599 2.73767 221.358 2.31346 220.811 2.12978C220.51 2.00733 220.085 1.94611 219.482 1.94611H217.789V2.00296H217.785Z"
    fill="#E21B4D"/>
</svg>
