<svg width="66" height="24" viewBox="0 0 66 24" fill="none" xmlns="http://www.w3.org/2000/svg">
  <rect x="0.299988" width="65" height="24" rx="4" fill="#FDB913"/>
  <path
    d="M10.276 18V8.464H8.93999L9.39599 6.8H11.94V18H10.276ZM19.6896 22H18.0256V10H19.6896V11.176C19.9563 10.7653 20.2976 10.432 20.7136 10.176C21.1296 9.92 21.6203 9.792 22.1856 9.792C22.7669 9.792 23.3109 9.90133 23.8176 10.12C24.3296 10.3387 24.7776 10.6427 25.1616 11.032C25.5456 11.416 25.8469 11.8613 26.0656 12.368C26.2843 12.8747 26.3936 13.4187 26.3936 14C26.3936 14.5813 26.2843 15.128 26.0656 15.64C25.8469 16.152 25.5456 16.6027 25.1616 16.992C24.7776 17.376 24.3296 17.6773 23.8176 17.896C23.3109 18.1147 22.7669 18.224 22.1856 18.224C21.6203 18.224 21.1296 18.096 20.7136 17.84C20.2976 17.5787 19.9563 17.2453 19.6896 16.84V22ZM22.1696 11.4C21.7056 11.4 21.2976 11.5173 20.9456 11.752C20.5936 11.9867 20.3189 12.3013 20.1216 12.696C19.9243 13.0853 19.8256 13.52 19.8256 14C19.8256 14.48 19.9243 14.9173 20.1216 15.312C20.3189 15.7067 20.5936 16.0213 20.9456 16.256C21.2976 16.4907 21.7056 16.608 22.1696 16.608C22.6283 16.608 23.0496 16.4933 23.4336 16.264C23.8176 16.0293 24.1243 15.7147 24.3536 15.32C24.5829 14.9253 24.6976 14.4853 24.6976 14C24.6976 13.5253 24.5829 13.0907 24.3536 12.696C24.1296 12.3013 23.8256 11.9867 23.4416 11.752C23.0576 11.5173 22.6336 11.4 22.1696 11.4ZM27.5881 18V6H29.2521V18H27.5881ZM37.2809 10H38.9449V18H37.2729L37.2089 16.84C36.9742 17.2507 36.6569 17.5813 36.2569 17.832C35.8569 18.0827 35.3849 18.208 34.8409 18.208C34.2542 18.208 33.7022 18.0987 33.1849 17.88C32.6675 17.656 32.2115 17.3467 31.8169 16.952C31.4275 16.5573 31.1235 16.104 30.9049 15.592C30.6862 15.0747 30.5769 14.52 30.5769 13.928C30.5769 13.3573 30.6835 12.8213 30.8969 12.32C31.1102 11.8133 31.4062 11.3707 31.7849 10.992C32.1635 10.6133 32.6009 10.3173 33.0969 10.104C33.5982 9.88533 34.1342 9.776 34.7049 9.776C35.2862 9.776 35.7982 9.90933 36.2409 10.176C36.6889 10.4373 37.0595 10.7733 37.3529 11.184L37.2809 10ZM34.8009 16.6C35.2702 16.6 35.6809 16.4853 36.0329 16.256C36.3849 16.0213 36.6569 15.7067 36.8489 15.312C37.0462 14.9173 37.1449 14.48 37.1449 14C37.1449 13.5147 37.0462 13.0747 36.8489 12.68C36.6515 12.2853 36.3769 11.9733 36.0249 11.744C35.6782 11.5093 35.2702 11.392 34.8009 11.392C34.3369 11.392 33.9129 11.5093 33.5289 11.744C33.1449 11.9787 32.8409 12.2933 32.6169 12.688C32.3929 13.0827 32.2809 13.52 32.2809 14C32.2809 14.4853 32.3955 14.9253 32.6249 15.32C32.8595 15.7093 33.1662 16.0213 33.5449 16.256C33.9289 16.4853 34.3475 16.6 34.8009 16.6ZM45.609 15.728L47.097 16.536C46.7343 17.0427 46.273 17.448 45.713 17.752C45.1583 18.056 44.5557 18.208 43.905 18.208C43.169 18.208 42.497 18.0187 41.889 17.64C41.2863 17.2613 40.8037 16.7547 40.441 16.12C40.0837 15.48 39.905 14.7733 39.905 14C39.905 13.4133 40.009 12.8667 40.217 12.36C40.425 11.848 40.7103 11.4 41.073 11.016C41.441 10.6267 41.8677 10.3227 42.353 10.104C42.8383 9.88533 43.3557 9.776 43.905 9.776C44.5557 9.776 45.1583 9.928 45.713 10.232C46.273 10.536 46.7343 10.944 47.097 11.456L45.609 12.264C45.385 11.9973 45.1237 11.7947 44.825 11.656C44.5263 11.512 44.2197 11.44 43.905 11.44C43.4677 11.44 43.0703 11.56 42.713 11.8C42.361 12.0347 42.081 12.3467 41.873 12.736C41.6703 13.12 41.569 13.5413 41.569 14C41.569 14.4533 41.673 14.8747 41.881 15.264C42.089 15.648 42.369 15.9573 42.721 16.192C43.0783 16.4267 43.473 16.544 43.905 16.544C44.2357 16.544 44.5503 16.4693 44.849 16.32C45.1477 16.1707 45.401 15.9733 45.609 15.728ZM51.8581 18.208C51.1221 18.208 50.4501 18.0187 49.8421 17.64C49.2394 17.2613 48.7568 16.7547 48.3941 16.12C48.0368 15.48 47.8581 14.7733 47.8581 14C47.8581 13.4133 47.9621 12.8667 48.1701 12.36C48.3781 11.848 48.6634 11.4 49.0261 11.016C49.3941 10.6267 49.8208 10.3227 50.3061 10.104C50.7914 9.88533 51.3088 9.776 51.8581 9.776C52.4714 9.776 53.0341 9.904 53.5461 10.16C54.0581 10.4107 54.4954 10.76 54.8581 11.208C55.2208 11.6507 55.4874 12.1627 55.6581 12.744C55.8288 13.32 55.8794 13.9333 55.8101 14.584H49.6421C49.7114 14.952 49.8448 15.2853 50.0421 15.584C50.2448 15.8773 50.5008 16.1093 50.8101 16.28C51.1248 16.4507 51.4741 16.5387 51.8581 16.544C52.2634 16.544 52.6314 16.4427 52.9621 16.24C53.2981 16.0373 53.5728 15.7573 53.7861 15.4L55.4741 15.792C55.1541 16.5013 54.6714 17.0827 54.0261 17.536C53.3808 17.984 52.6581 18.208 51.8581 18.208ZM49.5861 13.312H54.1301C54.0768 12.928 53.9408 12.5813 53.7221 12.272C53.5088 11.9573 53.2394 11.7093 52.9141 11.528C52.5941 11.3413 52.2421 11.248 51.8581 11.248C51.4794 11.248 51.1274 11.3387 50.8021 11.52C50.4821 11.7013 50.2154 11.9493 50.0021 12.264C49.7941 12.5733 49.6554 12.9227 49.5861 13.312Z"
    fill="white"/>
</svg>
