<svg width="100" height="100" viewBox="0 0 100 100" fill="none" xmlns="http://www.w3.org/2000/svg">
  <g clip-path="url(#clip0_311_322)">
    <path d="M50.001 24.7419C36.221 24.7419 25.011 35.9529 25.011 49.7309C25.011 63.5109 36.22 74.7199 50.001 74.7199C63.779 74.7199 74.989 63.5109 74.989 49.7309C74.989 35.9529 63.779 24.7419 50.001 24.7419ZM60.214 62.8729C60.186 63.2889 60.119 63.7469 60.035 64.2509H41.12C41.033 63.7469 40.973 63.2889 40.944 62.8729C40.915 62.4589 40.899 62.0139 40.899 61.5409C40.899 61.1279 40.915 60.7129 40.944 60.2969C40.973 59.8839 41.032 59.4269 41.12 58.9229H47.562V43.3819L42.1 45.5599C41.535 44.8189 41.062 44.0649 40.677 43.2939C40.292 42.4959 39.983 41.6659 39.746 40.8099L52.49 35.2119H53.688V58.9229H60.037C60.121 59.4269 60.187 59.8839 60.216 60.2969C60.243 60.7129 60.258 61.1279 60.258 61.5409C60.256 62.0139 60.241 62.4589 60.214 62.8729Z" fill="#006A44"/>
    <path d="M81.099 52.7959L84.739 49.7309L81.099 46.6649L84.08 42.9529L79.908 40.6569L82.102 36.4339L77.563 35.0009L78.887 30.4309L74.156 29.9119L74.563 25.1709L69.822 25.5799L69.305 20.8469L64.732 22.1689L63.298 17.6299L59.072 19.8239L56.779 15.6539L53.063 18.6349L50.001 14.9929L46.937 18.6349L43.224 15.6539L40.929 19.8239L36.706 17.6299L35.272 22.1689L30.699 20.8459L30.181 25.5769L25.438 25.1689L25.849 29.9099L21.116 30.4299L22.441 35.0009L17.902 36.4339L20.094 40.6569L15.925 42.9529L18.905 46.6659L15.263 49.7309L18.905 52.7959L15.925 56.5079L20.091 58.8029L17.9 63.0279L22.439 64.4599L21.115 69.0329L25.847 69.5509L25.436 74.2929L30.177 73.8839L30.697 78.6159L35.268 77.2919L36.7 81.8289L40.926 79.6369L43.223 83.8069L46.936 80.8259L50 84.4699L53.065 80.8259L56.779 83.8069L59.072 79.6399L63.298 81.8309L64.732 77.2919L69.301 78.6189L69.821 73.8839L74.56 74.2929L74.153 69.5549L78.885 69.0349L77.563 64.4619L82.1 63.0299L79.908 58.8049L84.08 56.5079L81.099 52.7959ZM50.001 78.2139C34.296 78.2139 21.518 65.4379 21.518 49.7309C21.518 34.0269 34.296 21.2489 50.001 21.2489C65.706 21.2489 78.484 34.0269 78.484 49.7309C78.484 65.4379 65.706 78.2139 50.001 78.2139Z" fill="#006A44"/>
    <path d="M91.649 67.2208C91.908 66.4388 92.169 65.6568 92.363 65.0698C92.496 64.4668 92.586 64.0638 92.586 64.0638C93.454 64.2458 95.676 64.5928 97.482 63.0118C98.042 62.5098 98.546 61.8638 98.898 61.1678C99.216 60.4628 99.447 59.7188 99.614 59.0418C99.938 57.6848 100.002 56.6098 100.002 56.6098C100.002 56.6098 99.224 56.5108 98.194 56.6938C97.159 56.8728 95.868 57.3278 94.846 58.3508C94.114 59.0618 93.681 59.9658 93.275 60.8228C93.275 60.8228 93.321 60.6458 93.357 60.3688C93.39 60.0938 93.427 59.7278 93.466 59.3568C93.541 58.6198 93.616 57.8838 93.616 57.8838C93.991 57.4858 94.566 56.8178 95.037 55.9258C95.444 55.0348 95.764 53.9208 95.76 52.7218C95.828 51.0968 94.947 49.6878 94.301 48.7348C93.613 47.7778 92.968 47.2578 92.968 47.2578C92.968 47.2578 92.458 47.9748 91.979 49.0108C91.46 50.0578 91.161 51.3908 91.091 52.8378C91.085 53.9038 91.412 54.9038 91.819 55.7698C92.158 56.6308 92.551 57.3558 92.844 57.8108C92.844 57.8108 92.725 59.2198 92.524 60.6188C92.23 62.0018 91.935 63.3858 91.935 63.3858C91.885 62.4508 91.698 61.4678 91.218 60.6518C90.535 59.4808 89.274 58.8658 88.315 58.5468C87.333 58.2278 86.548 58.1798 86.548 58.1798C86.548 58.1798 86.517 58.3728 86.498 58.6958C86.482 59.0208 86.484 59.4748 86.446 59.9868C86.404 61.0138 86.554 62.3228 87.242 63.4978C88.177 65.3068 90.214 66.2358 91.063 66.5168C91.063 66.5168 90.55 68.0508 90.04 69.5888C89.357 71.0568 88.67 72.5228 88.67 72.5228C88.885 71.4278 88.953 70.2178 88.613 69.1458C88.031 67.6498 86.857 66.7068 85.845 66.1238C84.826 65.5408 83.974 65.3028 83.974 65.3028C83.974 65.3028 83.679 66.1198 83.478 67.2508C83.181 68.3458 83.023 69.7888 83.49 71.2398C84.148 73.5198 86.153 75.0758 87.004 75.5918C87.004 75.5918 86.176 76.9198 85.349 78.2438C84.375 79.4678 83.4 80.6888 83.4 80.6888C83.938 79.4978 84.46 78.1978 84.23 76.8068C83.965 75.0418 82.916 73.7528 81.949 72.8838C80.977 72.0188 80.095 71.5548 80.095 71.5548C80.095 71.5548 79.547 72.3158 79.104 73.4938C78.6 74.6308 78.023 76.0688 78.19 77.7638C78.331 80.4098 80.138 82.6848 80.907 83.4418C80.907 83.4418 79.844 84.5158 78.741 85.5438C77.545 86.4678 76.351 87.3958 76.351 87.3958C77.275 86.2188 78.256 84.9258 78.322 83.2718C78.473 81.3208 77.65 79.6968 76.812 78.5348C75.968 77.3768 75.127 76.6638 75.127 76.6638C75.127 76.6638 74.361 77.3138 73.617 78.4348C73.269 79.0328 72.786 79.5778 72.431 80.2968C72.065 81.0018 71.781 81.8208 71.654 82.7358C71.111 85.5748 72.498 88.6018 73.088 89.5638C73.088 89.5638 72.721 89.7848 72.169 90.1178C71.895 90.2848 71.57 90.4768 71.226 90.6878C70.857 90.8548 70.075 91.2098 70.075 91.2098L71.683 91.3178C71.683 91.3178 73.785 90.0548 74.572 89.5808C74.969 89.3428 75.298 89.1458 75.528 89.0068C75.753 88.8618 75.869 88.7588 75.869 88.7588C76.534 89.6538 78.554 92.3238 82.185 92.1728C84.457 92.1498 86.603 90.7478 88.259 89.4868C88.671 89.1698 89.046 88.8578 89.382 88.5668C89.689 88.2538 89.942 87.9568 90.156 87.7078C90.588 87.2128 90.825 86.8918 90.825 86.8918C90.825 86.8918 90.028 86.1278 88.713 85.4978C88.058 85.1828 87.275 84.8928 86.414 84.7308C85.568 84.5778 84.61 84.5278 83.56 84.6338C81.858 84.8188 80.359 85.5978 79.031 86.3018C79.031 86.3018 79.354 86.0888 79.753 85.6698C80.163 85.2668 80.713 84.7268 81.261 84.1868C81.811 83.6468 82.359 83.1038 82.768 82.6988C83.153 82.2688 83.385 81.9608 83.385 81.9608C84.195 82.6228 86.547 84.4498 89.643 83.5928C91.621 83.1138 93.188 81.4748 94.359 80.0548C94.93 79.3348 95.424 78.6828 95.7 78.1738C95.968 77.6578 96.107 77.3308 96.107 77.3308C96.107 77.3308 95.254 76.8108 93.98 76.5078C93.339 76.3548 92.601 76.2508 91.817 76.2748C91.003 76.2818 90.122 76.4018 89.242 76.7188C87.857 77.2048 86.73 78.1258 85.755 79.0038C85.755 79.0038 85.821 78.9248 85.928 78.7918C86.023 78.6428 86.155 78.4318 86.313 78.1788C86.628 77.6718 87.049 76.9968 87.472 76.3218C87.89 75.6428 88.327 74.9768 88.623 74.4568C88.875 73.9168 89.047 73.5588 89.047 73.5588C89.919 73.9738 92.323 75.0038 94.783 73.6678C95.533 73.2448 96.286 72.6538 96.819 71.9428C97.352 71.2328 97.793 70.4498 98.145 69.7288C98.847 68.2838 99.183 67.0888 99.183 67.0888C99.183 67.0888 98.343 66.7938 97.151 66.7568C95.959 66.7158 94.414 66.9158 93.03 67.8098C91.98 68.4598 91.254 69.4318 90.564 70.3348C90.564 70.3348 90.761 69.9698 90.936 69.3748C91.124 68.7838 91.392 68.0018 91.649 67.2208Z" fill="#006A44"/>
    <path d="M29.932 91.2059C29.932 91.2059 29.15 90.8509 28.781 90.6839C28.437 90.4729 28.112 90.2809 27.839 90.1139C27.287 89.7809 26.92 89.5599 26.92 89.5599C27.51 88.5979 28.897 85.5709 28.353 82.7319C28.226 81.8169 27.943 80.9979 27.576 80.2929C27.221 79.5729 26.737 79.0279 26.389 78.4309C25.644 77.3109 24.879 76.6599 24.879 76.6599C24.879 76.6599 24.037 77.3729 23.194 78.5309C22.356 79.6929 21.533 81.3169 21.684 83.2679C21.749 84.9219 22.73 86.2149 23.654 87.3919C23.654 87.3919 22.461 86.4639 21.264 85.5399C20.161 84.5129 19.097 83.4379 19.097 83.4379C19.866 82.6809 21.674 80.4069 21.814 77.7599C21.981 76.0659 21.403 74.6269 20.899 73.4899C20.457 72.3109 19.908 71.5509 19.908 71.5509C19.908 71.5509 19.025 72.0149 18.053 72.8799C17.086 73.7489 16.036 75.0379 15.773 76.8029C15.543 78.1939 16.065 79.4929 16.603 80.6849C16.603 80.6849 15.627 79.4629 14.654 78.2399C13.827 76.9159 12.999 75.5879 12.999 75.5879C13.849 75.0719 15.854 73.5169 16.512 71.2359C16.979 69.7849 16.821 68.3409 16.524 67.2469C16.322 66.1159 16.028 65.2989 16.028 65.2989C16.028 65.2989 15.174 65.5369 14.157 66.1199C13.144 66.7029 11.969 67.6459 11.387 69.1419C11.048 70.2139 11.116 71.4239 11.331 72.5189C11.331 72.5189 10.643 71.0529 9.96101 69.5849C9.45001 68.0469 8.93701 66.5129 8.93701 66.5129C9.78701 66.2329 11.824 65.3029 12.758 63.4939C13.446 62.3189 13.596 61.0109 13.554 59.9829C13.516 59.4709 13.518 59.0169 13.503 58.6919C13.484 58.3699 13.453 58.1759 13.453 58.1759C13.453 58.1759 12.669 58.2239 11.686 58.5429C10.727 58.8619 9.465 59.4779 8.783 60.6479C8.304 61.4639 8.116 62.4479 8.067 63.3819C8.067 63.3819 7.77201 61.9979 7.47801 60.6149C7.27701 59.2169 7.158 57.8069 7.158 57.8069C7.451 57.3519 7.84401 56.6269 8.18301 55.7659C8.59001 54.9009 8.91701 53.9009 8.91101 52.8339C8.84201 51.3879 8.542 50.0539 8.024 49.0069C7.545 47.9709 7.03401 47.2539 7.03401 47.2539C7.03401 47.2539 6.39 47.7739 5.701 48.7309C5.056 49.6839 4.17401 51.0929 4.24301 52.7179C4.23901 53.9169 4.558 55.0309 4.966 55.9219C5.437 56.8139 6.012 57.4809 6.386 57.8799C6.386 57.8799 6.46 58.6149 6.535 59.3529C6.575 59.7239 6.612 60.0889 6.645 60.3649C6.681 60.6419 6.72701 60.8189 6.72701 60.8189C6.321 59.9629 5.88801 59.0579 5.15601 58.3469C4.13401 57.3239 2.84301 56.8679 1.80801 56.6899C0.778014 56.5069 0 56.6059 0 56.6059C0 56.6059 0.0630087 57.6809 0.387009 59.0379C0.554009 59.7149 0.785012 60.4589 1.10301 61.1639C1.45401 61.8589 1.95801 62.5059 2.51901 63.0079C4.32501 64.5889 6.54601 64.2409 7.41501 64.0599C7.41501 64.0599 7.504 64.4629 7.638 65.0659C7.832 65.6529 8.09301 66.4349 8.35101 67.2169C8.60901 67.9979 8.87601 68.7799 9.07001 69.3669C9.24501 69.9619 9.442 70.3269 9.442 70.3269C8.754 69.4239 8.02701 68.4519 6.97701 67.8019C5.59301 66.9079 4.04801 66.7079 2.85501 66.7489C1.66401 66.7859 0.823013 67.0809 0.823013 67.0809C0.823013 67.0809 1.15901 68.2749 1.86101 69.7209C2.21301 70.4419 2.65401 71.2249 3.18701 71.9349C3.72001 72.6459 4.47301 73.2369 5.22401 73.6599C7.68301 74.9959 10.088 73.9659 10.959 73.5509C10.959 73.5509 11.132 73.9089 11.384 74.4489C11.68 74.9699 12.117 75.6359 12.535 76.3139C12.957 76.9899 13.378 77.6649 13.693 78.1709C13.852 78.4239 13.983 78.6349 14.079 78.7839C14.185 78.9169 14.251 78.9959 14.251 78.9959C13.275 78.1179 12.148 77.1969 10.764 76.7109C9.88401 76.3939 9.004 76.2729 8.188 76.2669C7.404 76.2439 6.66701 76.3469 6.02501 76.4999C4.75101 76.8039 3.89801 77.3229 3.89801 77.3229C3.89801 77.3229 4.039 77.6499 4.306 78.1659C4.582 78.6749 5.076 79.3269 5.647 80.0469C6.817 81.4669 8.38501 83.1059 10.363 83.5849C13.459 84.4419 15.812 82.6149 16.621 81.9529C16.621 81.9529 16.854 82.2619 17.238 82.6909C17.648 83.0959 18.194 83.6389 18.745 84.1789C19.293 84.7189 19.843 85.2589 20.252 85.6619C20.651 86.0809 20.974 86.2939 20.974 86.2939C19.646 85.5899 18.147 84.8109 16.445 84.6259C15.395 84.5199 14.438 84.5689 13.591 84.7229C12.731 84.8849 11.948 85.1739 11.293 85.4899C9.97801 86.1199 9.181 86.8839 9.181 86.8839C9.181 86.8839 9.41801 87.2049 9.85001 87.6999C10.063 87.9489 10.318 88.2469 10.625 88.5589C10.96 88.8499 11.335 89.1609 11.747 89.4789C13.403 90.7399 15.55 92.1409 17.822 92.1649C21.454 92.3159 23.473 89.6449 24.138 88.7509C24.138 88.7509 24.255 88.8539 24.479 88.9989C24.709 89.1379 25.037 89.3349 25.435 89.5729C26.222 90.0479 28.324 91.3099 28.324 91.3099L29.932 91.2059Z" fill="#006A44"/>
    <path d="M29.461 14.312C29.331 14.008 28.94 12.55 28.637 11.446L27.948 8.815L30.131 7.69299L32.281 10.249C32.778 10.856 33.336 11.657 33.658 12.154L33.71 12.127C33.509 11.633 33.127 10.45 32.994 9.961L32.531 8.183L31.953 8.48L31.252 7.116L34.253 5.573L34.954 6.937L34.377 7.23399L35.884 14.008L33.397 15.287L31.483 13.113C31.206 12.805 30.772 12.245 30.552 11.947L30.51 11.969C30.63 12.305 30.833 13.036 30.917 13.378L31.572 16.226L29.137 17.478L24.682 12.219L24.094 12.521L23.393 11.157L26.855 9.377L27.556 10.74L26.948 11.054L28.009 12.446C28.384 12.89 29.204 14.047 29.408 14.34L29.461 14.312Z" fill="#006A44"/>
    <path d="M39.564 4.38208L39.978 5.88307L39.273 6.07707L40.634 11.0121L41.339 10.8181L41.756 12.3311L37.981 13.3731L37.564 11.8601L38.281 11.6631L36.919 6.72708L36.203 6.92508L35.789 5.42407L39.564 4.38208Z" fill="#006A44"/>
    <path d="M49.538 4.59L50.173 11.286L47.648 11.525L44.228 7.33299L44.508 10.294L45.413 10.208L45.557 11.723L41.95 12.065L41.806 10.549L42.499 10.483L42.008 5.302L41.327 5.367L41.183 3.851L44.555 3.532L47.842 7.57001L47.576 4.774L46.777 4.85001L46.633 3.33501L50.169 3L50.313 4.51601L49.538 4.59Z" fill="#006A44"/>
    <path d="M60.222 5.733L59.265 12.393L56.754 12.032L54.413 7.15199L53.99 10.097L54.889 10.226L54.673 11.733L51.085 11.218L51.302 9.71001L51.99 9.81L52.731 4.657L52.053 4.56L52.269 3.052L55.623 3.534L57.871 8.233L58.269 5.453L57.475 5.338L57.692 3.83099L61.208 4.336L60.992 5.843L60.222 5.733Z" fill="#006A44"/>
    <path d="M69.739 7.423L68.825 9.864L66.915 9.14799L67.283 8.16499L65.516 7.502L64.945 9.026L67.043 9.813L66.492 11.281L64.394 10.495L63.719 12.295L65.486 12.957L65.871 11.93L67.781 12.646L66.845 15.142L60.187 12.645L60.738 11.177L61.434 11.438L63.23 6.646L62.535 6.38499L63.081 4.927L69.739 7.423Z" fill="#006A44"/>
    <path d="M74.679 10.253C76.993 11.713 76.864 12.913 76.147 14.05C75.657 14.828 74.692 14.987 73.789 14.585C74.414 15.119 74.656 16.106 74.202 16.825C73.932 17.254 73.835 17.541 74.014 17.655C74.163 17.75 74.319 17.68 74.445 17.481L74.653 17.151L75.32 17.573L74.975 18.121C74.453 18.949 73.62 19.497 72.512 18.799C71.205 17.975 71.011 16.891 71.746 15.723C72.318 14.816 72.348 14.527 71.459 13.967L70.484 15.513L71.092 15.896L70.262 17.213L67.039 15.181L67.869 13.865L68.429 14.218L71.171 9.86798L70.612 9.51498L71.435 8.20898L74.679 10.253ZM72.164 12.85L72.612 13.133C73.191 13.498 73.747 13.458 74.08 12.929C74.45 12.341 74.31 11.834 73.731 11.469L73.232 11.155L72.164 12.85Z" fill="#006A44"/>
    <path d="M18.776 14.395L20.112 17.102L23.1 17.536L20.937 19.643L21.448 22.618L18.776 21.213L16.104 22.618L16.615 19.643L14.453 17.536L17.44 17.102L18.776 14.395Z" fill="#006A44"/>
    <path d="M11.872 23.332L13.207 26.038L16.195 26.473L14.033 28.579L14.543 31.555L11.872 30.15L9.19901 31.555L9.71001 28.579L7.548 26.473L10.536 26.038L11.872 23.332Z" fill="#006A44"/>
    <path d="M7.42001 33.8801L8.75601 36.5861L11.744 37.0201L9.582 39.1271L10.092 42.1031L7.42001 40.6981L4.748 42.1031L5.259 39.1271L3.097 37.0201L6.084 36.5861L7.42001 33.8801Z" fill="#006A44"/>
    <path d="M38.262 88.2L39.598 90.9059L42.585 91.3419L40.423 93.4479L40.934 96.424L38.262 95.0179L35.59 96.424L36.101 93.4479L33.939 91.3419L36.926 90.9059L38.262 88.2Z" fill="#006A44"/>
    <path d="M50.001 89.7761L51.337 92.4821L54.324 92.9181L52.162 95.0241L52.673 97.9991L50.001 96.5941L47.329 97.9991L47.84 95.0241L45.678 92.9181L48.665 92.4821L50.001 89.7761Z" fill="#006A44"/>
    <path d="M61.74 88.2L63.076 90.9059L66.064 91.3399L63.901 93.446L64.412 96.4209L61.74 95.0179L59.068 96.4209L59.579 93.446L57.417 91.3399L60.404 90.9059L61.74 88.2Z" fill="#006A44"/>
    <path d="M92.581 33.8801L93.917 36.5861L96.904 37.0201L94.742 39.1271L95.253 42.1021L92.581 40.6971L89.908 42.1021L90.42 39.1271L88.258 37.0201L91.245 36.5861L92.581 33.8801Z" fill="#006A44"/>
    <path d="M88.13 23.3311L89.466 26.0381L92.453 26.4721L90.291 28.5791L90.802 31.5541L88.13 30.1491L85.458 31.5541L85.969 28.5791L83.807 26.4721L86.794 26.0381L88.13 23.3311Z" fill="#006A44"/>
    <path d="M81.225 14.394L82.561 17.101L85.548 17.535L83.386 19.642L83.897 22.6171L81.225 21.2121L78.553 22.6171L79.064 19.642L76.901 17.535L79.889 17.101L81.225 14.394Z" fill="#006A44"/>
  </g>
  <defs>
    <clipPath id="clip0_311_322">
      <rect width="100" height="100" fill="white"/>
    </clipPath>
  </defs>
</svg>
