<svg width="101" height="100" viewBox="0 0 101 100" fill="none" xmlns="http://www.w3.org/2000/svg">
  <g clip-path="url(#clip0_311_456)">
    <path
      d="M20.6111 68.0151C21.3291 66.1881 21.6041 64.1811 21.4581 62.6751C21.4311 62.2971 21.3811 61.9461 21.3221 61.6301C21.3011 61.3081 21.2831 61.0221 21.2641 60.7821C21.2211 60.3071 21.1591 60.0231 21.1591 60.0231C21.1591 60.0231 19.9061 60.1601 18.3481 60.7321C17.5671 61.0181 16.7141 61.4201 15.9061 61.9941C15.0751 62.5741 14.3391 63.3191 13.8731 64.2741C13.0961 65.8321 12.8591 67.7921 13.0771 69.4691C13.0751 69.4691 12.8781 69.0801 12.7271 68.4471C12.5551 67.8221 12.3251 66.9871 12.0941 66.1531C11.8621 65.3181 11.6331 64.4851 11.4611 63.8601C11.3251 63.2251 11.2791 62.7951 11.2791 62.7951C12.4571 62.5691 15.7541 61.5451 17.5561 59.1121C18.5621 57.6281 19.2141 55.8641 19.4171 54.4601C19.5341 53.7561 19.5161 53.1411 19.5681 52.6971C19.6291 52.2531 19.6361 51.9821 19.6361 51.9821C19.6361 51.9821 18.5061 51.8611 17.0111 52.0671C16.2631 52.1731 15.4261 52.3651 14.5951 52.7191C13.7991 53.0731 13.0441 53.5911 12.4071 54.3481C11.4321 55.5231 10.8411 57.1101 10.6291 58.5821C10.5561 58.5881 10.5431 56.7931 10.4691 55.0021C10.4401 54.1061 10.3911 53.2121 10.3951 52.5411C10.4511 51.8721 10.4881 51.4241 10.4881 51.4241C11.5971 51.4751 14.6161 51.2791 16.6691 49.5161C17.3291 48.9691 17.7421 48.3141 18.1961 47.6611C18.6551 47.0081 18.9991 46.3361 19.2431 45.7261C19.7391 44.5081 19.8721 43.5201 19.8721 43.5201C19.8721 43.5201 18.8981 43.2011 17.5801 43.1161C16.2581 43.0331 14.5831 43.1941 13.1541 44.2731C12.1211 45.0731 11.2631 46.2461 10.8221 47.4321C10.8221 47.4321 10.8321 46.9651 10.9991 46.2871C11.1371 45.6051 11.3241 44.6961 11.5091 43.7881C11.6991 42.8781 11.8831 41.9711 12.0221 41.2911C12.2331 40.6281 12.3691 40.1831 12.3691 40.1831C13.3501 40.4531 15.9211 40.8751 18.0161 39.7551C18.6891 39.4031 19.2161 38.9191 19.6991 38.4181C20.2231 37.9321 20.6501 37.4091 20.9851 36.9191C21.6531 35.9421 21.9651 35.0971 21.9651 35.0971C21.9651 35.0971 21.1891 34.6441 20.0601 34.3301C18.9331 34.0191 17.4551 33.8551 16.0131 34.5181C15.0301 34.9871 14.1241 35.7661 13.5271 36.6411C13.5271 36.6411 13.5771 36.4361 13.6981 36.1491C13.8251 35.8641 13.9961 35.4831 14.1671 35.1031C14.5021 34.3431 14.8441 33.5811 14.8441 33.5811C15.3931 33.2961 16.2021 32.8051 17.0291 32.1431C17.9311 31.5181 18.8181 30.7111 19.4341 29.6511C20.1891 28.1771 20.6591 26.6811 20.7381 25.3441C20.8631 24.0421 20.7621 23.0381 20.7621 23.0381C20.7621 23.0381 19.8251 23.1861 18.5951 23.7421C17.4071 24.3191 15.7261 25.2111 14.8611 26.8621C14.1701 28.0511 13.8531 29.3401 13.7421 30.4561C13.7031 31.6101 13.8911 32.6041 14.0301 33.2101C14.0301 33.2101 13.3281 34.7081 12.7171 36.2351C12.2071 37.8041 11.6961 39.3741 11.6961 39.3741C11.7541 38.2951 11.6701 37.1151 11.2651 36.0091C10.6911 34.4261 9.71307 33.3511 8.73207 32.6361C7.77507 31.9301 6.92507 31.6381 6.92507 31.6381C6.92507 31.6381 6.80107 31.9171 6.59707 32.3821C6.40107 32.8491 6.14807 33.5051 6.02507 34.3021C5.72707 35.8721 5.58107 37.8651 6.17107 39.4551C7.28007 42.0081 9.77307 42.7881 10.7511 43.0431C10.7511 43.0431 10.3711 44.8941 9.99607 46.7451C9.82907 48.6271 9.66707 50.5101 9.66707 50.5101C9.46407 49.2361 9.05507 47.8531 8.28207 46.6451C7.38507 45.0401 5.95007 44.0541 4.72007 43.4951C3.49507 42.9321 2.48207 42.8041 2.48207 42.8041C2.48207 42.8041 2.10907 44.1831 2.06207 46.0191C2.13207 47.8711 2.48207 50.1611 3.54607 51.7921C5.37207 54.4081 8.47807 54.5671 9.55707 54.5841C9.55707 54.5841 9.62107 56.4091 9.68607 58.2331C9.95507 60.0371 10.2241 61.8421 10.2241 61.8421C9.70907 60.4411 8.75407 58.9541 7.70707 57.7421C6.32507 56.1961 4.49307 55.4491 3.01307 55.1181C1.53407 54.7821 0.400069 54.8861 0.400069 54.8861C0.400069 54.8861 0.384069 56.5161 0.745069 58.5801C1.18207 60.6341 2.25707 63.0851 3.81907 64.6141C6.54807 67.0601 10.0091 66.3431 11.1451 66.0771C11.1451 66.0771 11.5941 67.7881 12.1121 69.4711C12.7811 71.1041 13.4451 72.7411 13.4451 72.7411C12.5201 71.3051 11.0381 69.8751 9.58807 68.7551C7.69407 67.4221 5.52507 67.0431 3.83807 67.0361C2.14707 67.0231 0.94807 67.4031 0.94807 67.4031C0.94807 67.4031 1.35807 69.2011 2.28607 71.3821C3.22007 73.5551 5.09107 75.9621 7.15707 77.2321C10.8711 79.1881 14.3641 77.4231 15.4781 76.8391C15.4781 76.8391 15.7231 77.2801 16.0901 77.9411C16.2711 78.2691 16.4831 78.6541 16.7121 79.0661C16.9871 79.4511 17.2791 79.8591 17.5711 80.2701C18.7491 81.8971 19.9281 83.5291 19.9281 83.5291L20.6171 82.9611C20.6171 82.9611 19.0131 80.7211 17.4071 78.4821C16.7361 77.2741 16.0731 76.0671 15.5741 75.1631C15.3231 74.7111 15.1111 74.3351 14.9661 74.0711C14.8281 73.8031 14.7771 73.6361 14.7771 73.6361C15.9391 73.1101 19.2601 71.0941 20.6111 68.0151Z"
      fill="#006A44"/>
    <path
      d="M97.5081 63.447C96.6761 63.507 95.7341 63.67 94.7881 64.003C93.8621 64.339 92.8821 64.835 91.9001 65.544C90.3151 66.704 89.2731 68.332 88.3601 69.794C88.3601 69.794 88.5611 69.398 88.7161 68.752C88.8901 68.116 89.1261 67.266 89.3601 66.416C89.5991 65.563 89.8321 64.713 90.0071 64.077C90.1411 63.43 90.1931 62.989 90.1931 62.989C91.3751 63.182 94.7581 63.65 97.3391 61.025C99.0281 59.415 99.6441 56.891 99.9941 54.812C100.148 53.771 100.264 52.839 100.244 52.176C100.215 51.511 100.167 51.107 100.167 51.107C100.167 51.107 99.0221 51.081 97.5841 51.51C96.8631 51.722 96.0691 52.043 95.3051 52.515C94.5001 52.989 93.6941 53.614 93.0041 54.432C91.9091 55.706 91.3171 57.269 90.8521 58.697C90.8521 58.697 90.8731 58.583 90.9031 58.387C90.9121 58.187 90.9211 57.902 90.9321 57.559C90.9551 56.876 90.9871 55.964 91.0181 55.053C91.0451 54.14 91.0971 53.229 91.0931 52.544C91.0341 51.864 90.9991 51.408 90.9991 51.408C92.1041 51.318 95.0791 50.964 96.7541 48.231C97.2571 47.381 97.6661 46.363 97.7881 45.352C97.9071 44.342 97.8971 43.313 97.8331 42.395C97.7021 40.559 97.3511 39.18 97.3511 39.18C97.3511 39.18 96.3501 39.368 95.1461 40.015C93.9391 40.657 92.5201 41.742 91.6571 43.42C90.9891 44.668 90.8241 46.05 90.6591 47.339C90.6591 47.339 90.6441 46.864 90.4771 46.174C90.3341 45.481 90.1481 44.553 89.9571 43.629C89.7671 42.704 89.5781 41.777 89.4341 41.085C89.2211 40.41 89.0791 39.96 89.0791 39.96C90.0431 39.641 92.4481 38.713 93.3331 36.112C93.6031 35.289 93.7311 34.361 93.6831 33.468C93.5951 32.588 93.3971 31.717 93.1741 30.949C92.7191 29.418 92.1661 28.315 92.1661 28.315C92.1661 28.315 91.3361 28.662 90.4181 29.433C89.4951 30.204 88.4771 31.394 88.0461 32.996C87.7281 34.12 87.8171 35.265 87.9051 36.348C87.9051 36.348 87.8501 36.145 87.7281 35.851C87.6001 35.558 87.4281 35.173 87.2541 34.784C86.9061 34.01 86.5611 33.235 86.5611 33.235C86.7011 32.628 86.8911 31.632 86.8481 30.48C86.7411 29.362 86.4211 28.074 85.7291 26.886C84.8661 25.235 83.1841 24.341 81.9961 23.766C80.7651 23.21 79.8291 23.062 79.8291 23.062C79.8291 23.062 79.7341 24.065 79.8511 25.368C79.9361 26.705 80.4031 28.201 81.1611 29.675C81.7691 30.738 82.6631 31.542 83.5621 32.168C84.3931 32.828 85.1971 33.321 85.7521 33.605C85.7521 33.605 86.4401 35.073 87.0401 36.576C87.5411 38.118 88.0401 39.659 88.0401 39.659C87.4571 38.761 86.7041 37.891 85.7651 37.355C84.4161 36.584 82.8111 36.697 81.6761 36.931C80.5181 37.177 79.7131 37.578 79.7131 37.578C79.7131 37.578 79.7921 37.788 79.9591 38.118C80.1291 38.45 80.3911 38.899 80.6471 39.429C81.1951 40.472 82.0941 41.685 83.4501 42.455C85.4131 43.717 87.9641 43.472 88.9711 43.263C88.9711 43.263 89.3431 45.079 89.7161 46.897C89.8781 48.745 90.0331 50.594 90.0331 50.594C89.6211 49.384 88.9961 48.144 88.0471 47.276C86.6121 46.124 84.9031 45.861 83.5651 45.862C82.2231 45.868 81.2381 46.121 81.2381 46.121C81.2381 46.121 81.4161 47.099 81.8631 48.338C82.1951 49.594 82.8651 51.115 84.1591 52.29C86.1201 54.175 88.9991 54.571 90.1381 54.594C90.1381 54.594 90.0771 56.385 90.0151 58.176C89.7501 59.946 89.4831 61.717 89.4831 61.717C89.3331 60.228 89.1081 58.638 88.0821 57.39C86.8101 55.79 85.0281 55.114 83.5711 54.806C82.1101 54.503 80.9691 54.549 80.9691 54.549C80.9691 54.549 80.8601 55.619 81.0981 57.04C81.2481 58.457 81.4971 60.216 82.6351 61.802C84.2911 64.347 87.3871 65.567 88.5841 65.878C88.5841 65.878 88.1461 67.555 87.6381 69.205C86.9821 70.809 86.3281 72.412 86.3281 72.412C86.5711 70.715 86.8021 68.87 85.9211 67.191C84.9531 65.169 83.2041 64.029 81.7071 63.356C80.2071 62.69 78.9621 62.465 78.9621 62.465C78.9621 62.465 78.5761 63.549 78.4791 65.086C78.4771 65.878 78.3081 66.697 78.3691 67.615C78.4101 68.525 78.5961 69.499 78.9951 70.481C80.0831 73.608 83.1921 75.819 84.3301 76.435C84.3301 76.435 84.0931 76.865 83.7361 77.513C83.5581 77.835 83.3491 78.213 83.1271 78.617C82.8551 78.994 82.5671 79.395 82.2831 79.796C81.1281 81.392 79.9711 82.99 79.9711 82.99L80.6631 83.556C80.6631 83.556 82.3331 81.288 83.9401 78.982C84.6231 77.751 85.3021 76.521 85.8111 75.601C86.0701 75.136 86.2831 74.753 86.4321 74.484C86.5711 74.211 86.6271 74.042 86.6271 74.042C87.7991 74.55 91.3331 76.043 94.8501 73.813C97.0931 72.488 98.4201 69.867 99.3401 67.668C99.5671 67.116 99.7611 66.592 99.9251 66.11C100.051 65.624 100.133 65.182 100.204 64.814C100.348 64.075 100.397 63.619 100.397 63.619C100.397 63.619 99.1731 63.318 97.5081 63.447Z"
      fill="#006A44"/>
    <path
      d="M47.1781 68.3761V47.8891L39.9801 50.7561C39.2391 49.7831 38.6101 48.7891 38.1041 47.7731C37.5971 46.7201 37.1891 45.6271 36.8751 44.4931L53.6711 37.1201H55.2561V68.3761H63.6251C63.7441 69.0391 63.8181 69.6441 63.8581 70.1911C63.8941 70.7361 63.9181 71.2811 63.9181 71.8281C63.9181 72.4541 63.8941 73.0401 63.8581 73.5841C63.8181 74.1311 63.7431 74.7361 63.6251 75.3981H38.6901C38.5731 74.7351 38.4951 74.1311 38.4591 73.5841C38.4181 73.0401 38.3961 72.4541 38.3961 71.8281C38.3961 71.2821 38.4181 70.7361 38.4591 70.1911C38.4961 69.6441 38.5741 69.0391 38.6901 68.3761H47.1781Z"
      fill="#006A44"/>
    <path
      d="M58.749 52.3181H60.7551C60.7551 53.1111 61.893 53.3201 62.342 53.3201C62.642 53.3201 63 53.2301 63 52.8111C63 52.3611 61.877 52.2881 60.8 51.9131C59.782 51.5541 58.8101 50.9251 58.8101 49.5191C58.8101 47.9921 60.381 47.3481 61.444 47.3481C62.462 47.3481 63.36 47.8722 63.674 48.5162L63.793 47.5281H65.635V50.2221H63.688C63.688 49.5931 62.911 49.0841 62.163 49.0841C61.848 49.0841 61.579 49.2491 61.579 49.6231C61.579 50.0411 62.461 50.2211 63.419 50.5501C64.557 50.9391 65.829 51.3731 65.829 52.9451C65.829 54.3521 64.496 55.1911 63.044 55.1911C61.967 55.1911 61.114 54.6671 60.754 54.0981L60.621 55.0111H58.748L58.749 52.3181Z"
      fill="#006A44"/>
    <path
      d="M67.1651 47.528V46.151L69.9191 45.269V47.529H71.3411V49.474H69.9201V52.138C69.9201 52.647 69.8151 53.335 70.3991 53.335C70.5941 53.335 71.0571 53.201 71.3421 53.081V54.997C70.8921 55.177 69.8751 55.281 69.5311 55.281C67.2851 55.281 67.2101 54.054 67.1651 52.138V49.474H66.3571V47.529L67.1651 47.528Z"
      fill="#006A44"/>
    <path
      d="M31.39 82.4881C34.473 83.9421 34.641 85.3341 34.104 86.8081C33.48 88.5141 31.315 88.7061 29.169 87.7051C28.713 87.4921 28.486 87.3821 28.034 87.1581C27.654 87.9211 27.465 88.3031 27.084 89.0661C27.463 89.2541 27.653 89.3461 28.034 89.5261C27.724 90.1831 27.568 90.5101 27.257 91.1681C25.176 90.1841 24.155 89.6341 22.162 88.4161C22.541 87.7961 22.731 87.4871 23.11 86.8671C23.445 87.0721 23.612 87.1711 23.949 87.3691C25.161 85.2981 25.766 84.2661 26.978 82.1951C26.679 82.0201 26.532 81.9311 26.236 81.7511C26.612 81.1361 26.799 80.8301 27.175 80.2151C28.824 81.2221 29.669 81.6761 31.39 82.4881ZM28.695 85.8281C28.955 85.9571 29.086 86.0201 29.347 86.1461C30.188 86.5491 30.942 86.4241 31.236 85.7581C31.563 85.0141 31.25 84.4041 30.449 84.0221C30.174 83.8901 30.037 83.8211 29.762 83.6861C29.336 84.5421 29.122 84.9701 28.695 85.8281Z"
      fill="#006A44"/>
    <path
      d="M40.057 85.5282C39.889 86.2352 39.806 86.5892 39.638 87.2962C39.328 87.2222 39.173 87.1812 38.865 87.1012C38.272 89.4152 37.976 90.5732 37.383 92.8852C38.233 93.1032 38.66 93.2022 39.515 93.3842C39.66 92.7012 39.733 92.3592 39.878 91.6752C40.956 91.9032 41.498 92.0022 42.583 92.1722C42.363 93.5842 42.252 94.2902 42.031 95.7032C38.157 95.1002 36.233 94.6232 32.493 93.3132C32.735 92.6232 32.855 92.2792 33.096 91.5872C33.451 91.7112 33.63 91.7732 33.987 91.8902C34.735 89.6232 35.108 88.4892 35.857 86.2212C35.541 86.1172 35.383 86.0632 35.069 85.9542C35.309 85.2682 35.428 84.9262 35.669 84.2412C37.402 84.8462 38.281 85.1062 40.057 85.5282Z"
      fill="#006A44"/>
    <path
      d="M49.552 96.3402C49.563 95.6192 49.567 95.2602 49.578 94.5392C50.219 94.5482 50.539 94.5482 51.181 94.5372C51.033 94.1652 50.96 93.9792 50.816 93.6062C49.458 93.6182 48.778 93.6022 47.421 93.5252C47.26 93.8912 47.179 94.0742 47.014 94.4392C47.54 94.4732 47.805 94.4872 48.331 94.5072C48.303 95.2272 48.288 95.5862 48.26 96.3062C46.04 96.2212 44.931 96.1202 42.728 95.8072C42.83 95.0942 42.883 94.7372 42.984 94.0242C43.439 94.0882 43.665 94.1182 44.121 94.1722C45.314 91.8832 45.861 90.7212 46.847 88.3742C46.603 88.3562 46.483 88.3472 46.239 88.3252C46.301 87.6172 46.332 87.2642 46.395 86.5562C48.592 86.7522 49.698 86.7822 51.901 86.7052C53.026 89.7922 53.678 91.3212 55.156 94.3232C55.627 94.2792 55.863 94.2552 56.332 94.2002C56.416 94.9162 56.456 95.2752 56.539 95.9902C53.754 96.3112 52.352 96.3812 49.552 96.3402ZM50.208 91.9592C49.789 90.7702 49.589 90.1732 49.22 88.9762C48.8 90.1542 48.579 90.7422 48.108 91.9102C48.948 91.9462 49.368 91.9562 50.208 91.9592Z"
      fill="#006A44"/>
    <path
      d="M67.6971 91.6681C66.9411 93.0261 65.4481 94.4761 63.2021 95.0231C59.5671 95.9081 56.8641 94.2901 56.4821 91.2481C56.0891 88.1091 58.3101 85.8901 60.1471 85.4731C61.5491 85.1551 62.3761 85.7061 62.5481 85.8291C62.5951 85.4951 62.6181 85.3271 62.6611 84.9941C63.5351 84.7421 63.9691 84.6071 64.8321 84.3081C65.3421 85.7851 65.5971 86.5221 66.1061 87.9991C65.0361 88.3681 64.4961 88.5351 63.4111 88.8401C63.1241 87.9921 62.4331 87.3261 61.3881 87.5801C60.3281 87.8381 59.8741 89.1721 60.1721 90.6421C60.4431 91.9761 61.5321 93.0221 63.0871 92.6281C64.4621 92.2801 65.1761 90.7891 65.2781 90.6141C66.2231 91.0591 66.7061 91.2681 67.6971 91.6681Z"
      fill="#006A44"/>
    <path
      d="M73.605 80.1631C74.241 81.1991 74.557 81.7141 75.193 82.7501C74.255 83.3271 73.778 83.6021 72.815 84.1181C72.584 83.6871 72.47 83.4701 72.237 83.0391C71.37 83.5051 70.932 83.7241 70.048 84.1411C70.371 84.8291 70.533 85.1731 70.856 85.8611C71.95 85.3451 72.491 85.0691 73.559 84.4821C73.912 85.1231 74.086 85.4441 74.44 86.0851C73.331 86.6961 72.771 86.9811 71.637 87.5161C72.018 88.3271 72.209 88.7331 72.592 89.5441C73.591 89.0721 74.084 88.8241 75.063 88.2971C74.821 87.8461 74.7 87.6211 74.458 87.1701C75.491 86.6141 76.002 86.3211 77.009 85.7031C77.66 86.7621 77.986 87.2911 78.636 88.3521C74.912 90.6401 72.952 91.5781 68.941 93.0481C68.689 92.3611 68.566 92.0181 68.314 91.3311C68.719 91.1831 68.918 91.1091 69.32 90.9521C68.452 88.7271 68.02 87.6121 67.152 85.3871C66.795 85.5271 66.618 85.5951 66.258 85.7271C66.009 85.0451 65.884 84.7051 65.634 84.0231C68.929 82.8151 70.542 82.0431 73.605 80.1631Z"
      fill="#006A44"/>
    <path
      d="M76.3951 12.3721L75.9691 16.7361L79.3241 19.5641L75.0411 20.5051L73.3891 24.5701L71.1691 20.7861L66.7931 20.4721L69.7041 17.1911L68.6541 12.9351L72.6731 14.6891L76.3951 12.3721Z"
      fill="#006A44"/>
    <path
      d="M50.4011 4L53.0061 9.281L58.8381 10.13L54.6181 14.241L55.6151 20.048L50.3991 17.305L45.1841 20.046L46.1811 14.242L41.9631 10.13L47.7951 9.282L50.4011 4Z"
      fill="#006A44"/>
    <path
      d="M24.4041 12.3679L28.1271 14.6839L32.1471 12.9299L31.0931 17.1879L34.0061 20.4669L29.6291 20.7829L27.4091 24.5659L25.7581 20.5009L21.4751 19.5609L24.8301 16.7329L24.4041 12.3679Z"
      fill="#006A44"/>
  </g>
  <defs>
    <clipPath id="clip0_311_456">
      <rect width="100" height="100" fill="white" transform="translate(0.399963)"/>
    </clipPath>
  </defs>
</svg>
