<svg width="70" height="24" viewBox="0 0 70 24" fill="none" xmlns="http://www.w3.org/2000/svg">
  <rect x="0.0999756" width="69" height="24" rx="4" fill="#AFAFAF"/>
  <path
    d="M8.73998 18V16.52C9.11864 16.2053 9.55331 15.84 10.044 15.424C10.5346 15.0027 11.0333 14.5573 11.54 14.088C12.0466 13.6133 12.5133 13.1413 12.94 12.672C13.3666 12.1973 13.7106 11.7493 13.972 11.328C14.2386 10.9013 14.372 10.5307 14.372 10.216C14.372 9.85867 14.284 9.53333 14.108 9.24C13.9373 8.94133 13.7053 8.704 13.412 8.528C13.1186 8.34667 12.7933 8.256 12.436 8.256C12.0786 8.256 11.7506 8.34667 11.452 8.528C11.1586 8.704 10.9213 8.94133 10.74 9.24C10.564 9.53333 10.476 9.85867 10.476 10.216H8.81198C8.81198 9.53867 8.97731 8.928 9.30798 8.384C9.64398 7.83467 10.084 7.4 10.628 7.08C11.1773 6.75467 11.78 6.592 12.436 6.592C13.0973 6.592 13.7 6.75467 14.244 7.08C14.788 7.40533 15.2226 7.84267 15.548 8.392C15.8733 8.936 16.036 9.544 16.036 10.216C16.036 10.5893 15.9586 10.9733 15.804 11.368C15.6493 11.7627 15.4333 12.1653 15.156 12.576C14.884 12.9867 14.5666 13.4027 14.204 13.824C13.8413 14.2453 13.452 14.6667 13.036 15.088C12.62 15.5093 12.196 15.9253 11.764 16.336H16.132V18H8.73998ZM23.5521 22H21.8881V10H23.5521V11.176C23.8188 10.7653 24.1601 10.432 24.5761 10.176C24.9921 9.92 25.4828 9.792 26.0481 9.792C26.6294 9.792 27.1734 9.90133 27.6801 10.12C28.1921 10.3387 28.6401 10.6427 29.0241 11.032C29.4081 11.416 29.7094 11.8613 29.9281 12.368C30.1468 12.8747 30.2561 13.4187 30.2561 14C30.2561 14.5813 30.1468 15.128 29.9281 15.64C29.7094 16.152 29.4081 16.6027 29.0241 16.992C28.6401 17.376 28.1921 17.6773 27.6801 17.896C27.1734 18.1147 26.6294 18.224 26.0481 18.224C25.4828 18.224 24.9921 18.096 24.5761 17.84C24.1601 17.5787 23.8188 17.2453 23.5521 16.84V22ZM26.0321 11.4C25.5681 11.4 25.1601 11.5173 24.8081 11.752C24.4561 11.9867 24.1814 12.3013 23.9841 12.696C23.7868 13.0853 23.6881 13.52 23.6881 14C23.6881 14.48 23.7868 14.9173 23.9841 15.312C24.1814 15.7067 24.4561 16.0213 24.8081 16.256C25.1601 16.4907 25.5681 16.608 26.0321 16.608C26.4908 16.608 26.9121 16.4933 27.2961 16.264C27.6801 16.0293 27.9868 15.7147 28.2161 15.32C28.4454 14.9253 28.5601 14.4853 28.5601 14C28.5601 13.5253 28.4454 13.0907 28.2161 12.696C27.9921 12.3013 27.6881 11.9867 27.3041 11.752C26.9201 11.5173 26.4961 11.4 26.0321 11.4ZM31.4506 18V6H33.1146V18H31.4506ZM41.1434 10H42.8074V18H41.1354L41.0714 16.84C40.8367 17.2507 40.5194 17.5813 40.1194 17.832C39.7194 18.0827 39.2474 18.208 38.7034 18.208C38.1167 18.208 37.5647 18.0987 37.0474 17.88C36.53 17.656 36.074 17.3467 35.6794 16.952C35.29 16.5573 34.986 16.104 34.7674 15.592C34.5487 15.0747 34.4394 14.52 34.4394 13.928C34.4394 13.3573 34.546 12.8213 34.7594 12.32C34.9727 11.8133 35.2687 11.3707 35.6474 10.992C36.026 10.6133 36.4634 10.3173 36.9594 10.104C37.4607 9.88533 37.9967 9.776 38.5674 9.776C39.1487 9.776 39.6607 9.90933 40.1034 10.176C40.5514 10.4373 40.922 10.7733 41.2154 11.184L41.1434 10ZM38.6634 16.6C39.1327 16.6 39.5434 16.4853 39.8954 16.256C40.2474 16.0213 40.5194 15.7067 40.7114 15.312C40.9087 14.9173 41.0074 14.48 41.0074 14C41.0074 13.5147 40.9087 13.0747 40.7114 12.68C40.514 12.2853 40.2394 11.9733 39.8874 11.744C39.5407 11.5093 39.1327 11.392 38.6634 11.392C38.1994 11.392 37.7754 11.5093 37.3914 11.744C37.0074 11.9787 36.7034 12.2933 36.4794 12.688C36.2554 13.0827 36.1434 13.52 36.1434 14C36.1434 14.4853 36.258 14.9253 36.4874 15.32C36.722 15.7093 37.0287 16.0213 37.4074 16.256C37.7914 16.4853 38.21 16.6 38.6634 16.6ZM49.4715 15.728L50.9595 16.536C50.5968 17.0427 50.1355 17.448 49.5755 17.752C49.0208 18.056 48.4181 18.208 47.7675 18.208C47.0315 18.208 46.3595 18.0187 45.7515 17.64C45.1488 17.2613 44.6661 16.7547 44.3035 16.12C43.9461 15.48 43.7675 14.7733 43.7675 14C43.7675 13.4133 43.8715 12.8667 44.0795 12.36C44.2875 11.848 44.5728 11.4 44.9355 11.016C45.3035 10.6267 45.7301 10.3227 46.2155 10.104C46.7008 9.88533 47.2181 9.776 47.7675 9.776C48.4181 9.776 49.0208 9.928 49.5755 10.232C50.1355 10.536 50.5968 10.944 50.9595 11.456L49.4715 12.264C49.2475 11.9973 48.9861 11.7947 48.6875 11.656C48.3888 11.512 48.0821 11.44 47.7675 11.44C47.3301 11.44 46.9328 11.56 46.5755 11.8C46.2235 12.0347 45.9435 12.3467 45.7355 12.736C45.5328 13.12 45.4315 13.5413 45.4315 14C45.4315 14.4533 45.5355 14.8747 45.7435 15.264C45.9515 15.648 46.2315 15.9573 46.5835 16.192C46.9408 16.4267 47.3355 16.544 47.7675 16.544C48.0981 16.544 48.4128 16.4693 48.7115 16.32C49.0101 16.1707 49.2635 15.9733 49.4715 15.728ZM55.7206 18.208C54.9846 18.208 54.3126 18.0187 53.7046 17.64C53.1019 17.2613 52.6193 16.7547 52.2566 16.12C51.8993 15.48 51.7206 14.7733 51.7206 14C51.7206 13.4133 51.8246 12.8667 52.0326 12.36C52.2406 11.848 52.5259 11.4 52.8886 11.016C53.2566 10.6267 53.6833 10.3227 54.1686 10.104C54.6539 9.88533 55.1713 9.776 55.7206 9.776C56.3339 9.776 56.8966 9.904 57.4086 10.16C57.9206 10.4107 58.3579 10.76 58.7206 11.208C59.0833 11.6507 59.3499 12.1627 59.5206 12.744C59.6913 13.32 59.7419 13.9333 59.6726 14.584H53.5046C53.5739 14.952 53.7073 15.2853 53.9046 15.584C54.1073 15.8773 54.3633 16.1093 54.6726 16.28C54.9873 16.4507 55.3366 16.5387 55.7206 16.544C56.1259 16.544 56.4939 16.4427 56.8246 16.24C57.1606 16.0373 57.4353 15.7573 57.6486 15.4L59.3366 15.792C59.0166 16.5013 58.5339 17.0827 57.8886 17.536C57.2433 17.984 56.5206 18.208 55.7206 18.208ZM53.4486 13.312H57.9926C57.9393 12.928 57.8033 12.5813 57.5846 12.272C57.3713 11.9573 57.1019 11.7093 56.7766 11.528C56.4566 11.3413 56.1046 11.248 55.7206 11.248C55.3419 11.248 54.9899 11.3387 54.6646 11.52C54.3446 11.7013 54.0779 11.9493 53.8646 12.264C53.6566 12.5733 53.5179 12.9227 53.4486 13.312Z"
    fill="white"/>
</svg>
