<svg width="101" height="100" viewBox="0 0 101 100" fill="none" xmlns="http://www.w3.org/2000/svg">
  <g clip-path="url(#clip0_311_133)">
    <path
      d="M46.1543 89.4288C45.4856 89.3013 44.5532 89.1133 43.4151 88.8471C43.3078 86.7148 43.077 84.6102 42.2619 83.1858C41.3219 81.5468 39.722 80.7027 38.1222 80.3393C38.5575 81.2616 38.7278 82.4451 38.8969 83.6336C39.0647 84.8285 39.2438 86.0524 39.722 87.1084C39.8709 87.439 40.0576 87.7406 40.2646 88.0207C38.8212 87.6018 37.1973 87.0706 35.4511 86.3968C35.6833 84.373 35.7224 82.3366 35.1003 80.8415C34.3698 79.1167 32.9062 78.0379 31.4022 77.4171C31.6886 78.376 31.7025 79.5154 31.7025 80.6774C31.6975 81.8471 31.7114 83.0343 32.0344 84.1194C32.1429 84.4878 32.2968 84.8323 32.4797 85.154C31.8804 84.8828 31.2723 84.5951 30.6553 84.2872C29.7595 83.8368 28.8422 83.3296 27.9211 82.7921C28.4422 80.8856 28.7879 78.9173 28.3905 77.373C28.2706 76.9377 28.123 76.5087 27.9174 76.1302C27.7205 75.7428 27.4619 75.4097 27.202 75.0754C26.6796 74.4117 26.0084 73.8969 25.3497 73.4477C25.4696 74.413 25.3031 75.4968 25.1315 76.5945C24.9548 77.6973 24.7719 78.8492 24.9397 79.9242C25.0002 80.3494 25.1176 80.7607 25.2816 81.1468C23.8761 80.1993 22.4793 79.1318 21.1154 77.9597C21.933 76.2223 22.5941 74.394 22.473 72.8169C22.3771 71.9526 22.1462 71.1035 21.7172 70.3969C21.5015 70.0449 21.2996 69.6777 21.0422 69.3598C20.7949 69.033 20.5047 68.7441 20.2234 68.4627C20.1918 69.3938 19.8474 70.3881 19.4815 71.4075C19.1055 72.4358 18.7863 73.4553 18.7459 74.5354C18.7257 75.011 18.79 75.4728 18.9124 75.9157C18.081 75.088 17.2634 74.2288 16.4861 73.3001C16.1026 72.8434 15.7379 72.3627 15.372 71.8832C15.8666 71.2132 16.3436 70.5231 16.7208 69.8228C17.2003 68.9459 17.4943 68.0968 17.6116 67.2148C17.7302 66.3316 17.5409 65.5317 17.3277 64.7154C17.2078 64.3141 17.0489 63.9293 16.8596 63.5622C16.6565 63.2026 16.4824 62.8291 16.2628 62.491C16.037 63.4057 15.5436 64.2813 15.0364 65.1721C14.5393 66.0566 13.9614 67.0143 13.7722 68.0186C13.6725 68.5144 13.6586 69.0279 13.7091 69.5389C12.7199 68.0224 11.8165 66.4225 11.033 64.7419C12.3666 63.5306 13.5463 62.1907 14.0132 60.6678C14.133 60.2539 14.1961 59.835 14.21 59.4161C14.21 59.0035 14.2302 58.562 14.1772 58.1418C14.1318 57.7179 14.046 57.299 13.9274 56.8914C13.7961 56.4902 13.699 56.0738 13.5501 55.6878C13.1842 56.5558 12.5735 57.3141 11.949 58.0762C11.3257 58.837 10.6469 59.6382 10.2583 60.5845C10.0627 61.0892 9.98069 61.638 9.95167 62.1957C9.27665 60.447 8.72402 58.6376 8.27484 56.7955C9.73718 55.8871 11.0645 54.8146 11.7471 53.3813C11.9301 52.9902 12.06 52.5801 12.1458 52.1612C12.2404 51.7385 12.248 51.3171 12.2934 50.873C12.3565 49.9923 12.2682 49.1003 12.0815 48.265C11.6626 49.0713 10.9611 49.7274 10.2457 50.3759C9.529 51.0244 8.76692 51.6906 8.28241 52.5435C8.0061 53.0179 7.82946 53.558 7.70455 54.1156C7.3664 52.2395 7.13298 50.3431 6.99672 48.4455C8.49438 47.8033 9.9807 46.9478 10.7655 45.6091C11.1629 44.8685 11.5213 44.0736 11.6701 43.2219C11.7522 42.7992 11.7988 42.3677 11.8152 41.9362C11.8531 41.5097 11.8935 41.0921 11.8897 40.6783C11.3307 41.3722 10.5485 41.8883 9.82676 42.4106C9.08361 42.9292 8.3026 43.4629 7.68184 44.2275C7.31846 44.6565 7.05476 45.1612 6.87181 45.7037C6.86171 45.1713 6.84279 44.6388 6.8491 44.1089C6.86172 42.7235 6.96518 41.3546 7.11658 39.9995C7.81432 39.8266 8.51457 39.6172 9.15679 39.3207C9.8949 38.9762 10.551 38.5258 11.1314 37.9315C11.4102 37.6312 11.6537 37.2981 11.8619 36.9398C12.0815 36.5865 12.2177 36.1916 12.4108 35.8118C12.7792 35.046 13.0088 34.2145 13.1665 33.407C12.5332 33.976 11.7458 34.328 10.9308 34.6712C10.1144 35.0144 9.25646 35.3677 8.58144 36.0049C8.15877 36.3884 7.8017 36.8843 7.49384 37.4218C7.70707 36.2459 7.95437 35.0838 8.2761 33.9583C8.48807 33.2164 8.72907 32.491 8.98646 31.7781C10.4601 31.7276 11.9919 31.4942 13.1312 30.5959C13.805 30.1353 14.3765 29.5158 14.8497 28.8118C15.0818 28.4585 15.3582 28.1153 15.5739 27.7444C15.7972 27.3772 15.9979 26.9987 16.1732 26.6189C15.449 27.0542 14.62 27.2334 13.7823 27.4012C12.923 27.5576 12.1307 27.7658 11.3143 28.22C10.8652 28.4888 10.392 28.8295 10.0085 29.2572C10.6545 27.8314 11.3787 26.4751 12.161 25.2032C12.3679 24.8702 12.5874 24.5572 12.8006 24.2355C14.1305 24.4576 15.6042 24.532 16.8811 23.8684C17.604 23.5239 18.3194 23.0255 18.9452 22.4136C19.2481 22.1007 19.6001 21.808 19.8978 21.4761C20.2044 21.1506 20.4908 20.8099 20.7533 20.4667C19.9534 20.7885 19.1282 20.8377 18.303 20.868C17.4678 20.8894 16.6741 20.9538 15.801 21.244C15.3115 21.4143 14.8244 21.6906 14.369 22.0262C15.3695 20.7191 16.4092 19.5066 17.4564 18.4101C17.6961 18.1591 17.9346 17.9282 18.1731 17.6872C19.3603 18.096 20.7217 18.366 22.092 17.8878C22.8629 17.643 23.659 17.2329 24.4009 16.7093C24.7681 16.4444 25.1643 16.1857 25.5226 15.8943C25.8872 15.6066 26.2355 15.305 26.5623 14.9972C25.7169 15.2394 24.9081 15.2129 24.112 15.1612C23.3058 15.1006 22.5311 15.0666 21.6415 15.2394C21.1482 15.3416 20.6359 15.5397 20.1388 15.7921C21.7059 14.3613 23.2086 13.1513 24.5776 12.1167C25.6462 12.6251 26.9105 12.9936 28.3501 12.6327C29.9374 12.2681 31.7101 11.2044 33.1926 10.0992C32.3233 10.301 31.5347 10.2468 30.7676 10.1635C29.9954 10.0752 29.2346 9.98562 28.3539 10.0966C27.8278 10.1585 27.2764 10.3275 26.725 10.5458C26.9471 10.3894 27.1729 10.2279 27.3811 10.0828C28.6706 9.18568 29.6648 8.4463 30.3235 7.90629C30.9808 7.36627 31.3164 7.04957 31.3164 7.04957C31.3164 7.04957 30.8862 7.20982 30.1077 7.56436C29.3381 7.93153 28.234 8.5157 26.9155 9.3989C26.7086 9.53895 26.4815 9.69415 26.2607 9.84556C26.6556 9.40395 27.014 8.951 27.2852 8.49805C27.7394 7.72209 27.9678 6.95116 28.2416 6.22063C28.5129 5.48252 28.8321 4.73054 29.439 4C27.7016 4.88194 25.8658 6.18026 24.864 7.58708C23.9505 8.9182 23.866 10.2304 24.0439 11.4076C22.6534 12.4182 21.1255 13.6005 19.5294 15.0136C19.8221 14.5556 20.0896 14.0988 20.2726 13.637C20.6183 12.7879 20.7205 11.9325 20.9034 11.1414C21.0775 10.3389 21.3059 9.50995 21.8396 8.68352C21.4182 8.95479 20.993 9.25255 20.5779 9.56798C20.1653 9.88972 19.7515 10.2064 19.3868 10.5799C18.6513 11.318 18.0103 12.094 17.6078 12.8901C16.8924 14.3941 17.0337 15.7656 17.445 16.973C17.2003 17.214 16.9555 17.4462 16.7107 17.6985C15.6408 18.8101 14.5759 20.0428 13.5476 21.3752C13.7545 20.8377 13.9387 20.3078 14.0296 19.7816C14.2012 18.858 14.1204 17.9496 14.1494 17.0992C14.1696 16.2387 14.2466 15.3391 14.6478 14.3953C14.2605 14.7373 13.8718 15.1069 13.4996 15.4968C13.1337 15.893 12.754 16.2753 12.4575 16.7295C11.8468 17.6165 11.3383 18.5237 11.0986 19.4157C10.6961 21.114 11.1793 22.5032 11.9111 23.6639C11.6929 23.992 11.4683 24.3087 11.2563 24.6481C10.4437 25.9615 9.69176 27.3646 9.02178 28.8421C9.09875 28.2465 9.15679 27.6724 9.09749 27.1009C9.02683 26.1369 8.70004 25.2323 8.52466 24.3655C8.32784 23.486 8.184 22.5473 8.37074 21.495C8.05152 21.9228 7.73987 22.3783 7.44968 22.8514C7.16705 23.3296 6.87055 23.8028 6.67119 24.3201C6.26618 25.3496 5.99617 26.3905 5.96084 27.3292C6.00122 29.136 6.91849 30.4331 7.97582 31.4147C7.70833 32.149 7.45851 32.8947 7.23771 33.6581C6.89073 34.8151 6.62073 36.0124 6.38478 37.225C6.32548 36.5941 6.20562 35.9721 5.98355 35.3967C5.59999 34.4555 5.10792 33.6656 4.66127 32.8367C4.21336 32.009 3.7869 31.1006 3.69858 30.0129C3.26833 31.0021 2.92892 32.115 2.71948 33.2038C2.60466 33.7464 2.61854 34.3028 2.62611 34.8277C2.64504 35.3551 2.70812 35.8598 2.8242 36.3266C3.03365 37.2578 3.55726 38.0047 4.18686 38.6053C4.72183 39.1188 5.34008 39.5112 5.96715 39.8481C5.79177 41.2448 5.66813 42.6579 5.63658 44.0837C5.62018 44.654 5.62649 45.2281 5.62649 45.8009C5.40821 45.2255 5.14199 44.6704 4.83034 44.177C4.27392 43.3392 3.54212 42.6743 2.84817 41.9665C2.13278 41.2587 1.50949 40.4752 1.18144 39.438C1.06914 39.9642 0.960636 40.5155 0.916476 41.0707C0.893765 41.6246 0.900073 42.1848 0.942972 42.7324C1.04265 43.8238 1.22181 44.8887 1.7265 45.7151C2.60718 47.2721 4.13765 48.0606 5.69336 48.53C5.7842 50.439 5.97094 52.353 6.26618 54.2582C5.98482 53.7926 5.6656 53.3498 5.27699 52.9712C4.51113 52.2445 3.65946 51.7133 2.83177 51.1392C2.00282 50.5651 1.18144 49.9166 0.601045 48.9855C0.588428 50.0352 0.686842 51.1582 0.929093 52.213C1.03634 52.7404 1.25588 53.2501 1.47163 53.7232C1.69748 54.1964 1.96118 54.6342 2.26652 55.0178C3.35665 56.4132 5.13063 56.9267 6.79737 57.116C7.19607 58.943 7.70076 60.746 8.31774 62.5023C7.97834 62.173 7.6137 61.8677 7.20616 61.6166C6.31286 61.0425 5.32872 60.6804 4.34458 60.269C3.3617 59.8565 2.36872 59.3619 1.65585 58.5178C1.7265 59.0515 1.79968 59.6029 1.97632 60.1391C2.13909 60.6766 2.33591 61.209 2.56555 61.7162C2.80401 62.2209 3.04122 62.7105 3.38567 63.1357C3.71372 63.5659 4.07583 63.9495 4.46823 64.2713C5.83593 65.4257 7.7159 65.5721 9.44951 65.4068C9.45329 65.4169 9.45708 65.4257 9.46086 65.4358C10.1927 67.1114 11.0342 68.7226 11.9666 70.2569C11.6121 70.0563 11.2336 69.8872 10.8374 69.7534C9.77882 69.409 8.72276 69.2601 7.62253 69.0746C6.5324 68.8828 5.40947 68.6103 4.50103 67.9164C4.67893 68.4374 4.86819 68.9749 5.1546 69.4721C5.42714 69.9755 5.73373 70.4663 6.07061 70.923C6.71914 71.8517 7.62506 72.5683 8.5335 73.0402C9.4432 73.5134 10.5056 73.5992 11.5137 73.5109C12.2909 73.4389 13.0643 73.2497 13.8088 73.0036C14.186 73.5247 14.5633 74.0471 14.9607 74.5429C15.7102 75.4829 16.4988 76.3585 17.3025 77.2052C16.9101 77.0954 16.5063 77.0159 16.1 76.968C14.9998 76.8456 13.8163 77.026 12.6984 77.0739C11.5705 77.132 10.3819 77.1231 9.28549 76.6714C9.56685 77.1509 9.91256 77.6064 10.2772 78.053C10.6507 78.4909 11.0292 78.9325 11.4809 79.2883C12.3792 80.0024 13.3293 80.5992 14.3841 80.8023C16.1972 81.2086 18.0406 80.5046 19.6758 79.5267C21.0574 80.7758 22.4755 81.9202 23.9051 82.9384C23.5102 82.9157 23.1089 82.9233 22.7026 82.97C21.5595 83.1214 20.4429 83.5201 19.3124 83.8481C18.1781 84.1825 16.9858 84.4525 15.8187 84.238C16.548 85.0771 17.4829 85.7975 18.4734 86.3539C18.9667 86.6353 19.5017 86.8296 20.0291 86.9835C20.5615 87.1286 21.0889 87.2296 21.6277 87.2207C23.5076 87.2157 25.2286 86.118 26.7048 84.7805C27.66 85.3698 28.61 85.9249 29.5387 86.4195C30.1821 86.7652 30.8155 87.0883 31.4401 87.3949C31.0489 87.4504 30.6553 87.5374 30.2654 87.6636C29.1576 88.0244 28.094 88.6818 27.024 89.2407C25.9503 89.8073 24.8047 90.3334 23.6086 90.3712C25.3359 91.7213 27.7054 92.6348 29.8314 92.2033C31.6798 91.8437 33.2229 90.4091 34.4909 88.7853C36.2864 89.5448 37.9581 90.1542 39.4457 90.64C39.1227 90.7573 38.8022 90.8936 38.4855 91.0639C37.4358 91.633 36.4731 92.4909 35.4864 93.2656C34.4972 94.0466 33.4387 94.7785 32.2526 95.0523C34.1629 96.1058 36.6624 96.618 38.7467 95.8093C40.498 95.1342 41.819 93.4738 42.7918 91.6342C43.9337 91.9408 44.8724 92.1616 45.5474 92.313C46.3789 92.4947 46.823 92.5919 46.823 92.5919L47.4122 89.6622C47.4211 89.6622 46.9807 89.5814 46.1543 89.4288Z"
      fill="#006A44"/>
    <path
      d="M55.0431 89.4288C55.7118 89.3013 56.6442 89.1133 57.7823 88.8471C57.8896 86.7148 58.1205 84.6102 58.9355 83.1858C59.8755 81.5468 61.4754 80.7027 63.0753 80.3393C62.64 81.2616 62.4696 82.4451 62.3006 83.6336C62.1327 84.8285 61.9536 86.0524 61.4754 87.1084C61.3265 87.439 61.1398 87.7406 60.9316 88.0207C62.375 87.6018 63.9988 87.0706 65.7463 86.3968C65.5142 84.373 65.475 82.3366 66.0971 80.8415C66.8276 79.1167 68.2912 78.0379 69.7952 77.4171C69.5088 78.376 69.4962 79.5154 69.4962 80.6774C69.5012 81.8471 69.4873 83.0343 69.1643 84.1194C69.0558 84.4878 68.9019 84.8323 68.7189 85.154C69.3183 84.8828 69.9264 84.5951 70.5434 84.2872C71.4392 83.8368 72.3565 83.3296 73.2775 82.7921C72.7565 80.8856 72.4107 78.9173 72.8082 77.373C72.9281 76.9377 73.0757 76.5087 73.2813 76.1302C73.4782 75.7428 73.7368 75.4097 73.9967 75.0754C74.5191 74.4117 75.1903 73.8969 75.8489 73.4477C75.7291 74.413 75.8956 75.4968 76.0672 76.5945C76.2439 77.6973 76.4268 78.8492 76.259 79.9242C76.1984 80.3494 76.0811 80.7607 75.9171 81.1468C77.3226 80.1993 78.7194 79.1318 80.0833 77.9597C79.2657 76.2223 78.6045 74.394 78.7257 72.8169C78.8216 71.9526 79.0524 71.1035 79.4814 70.3969C79.6972 70.0449 79.8991 69.6777 80.1565 69.3598C80.4038 69.033 80.694 68.7441 80.9753 68.4627C81.0069 69.3938 81.3513 70.3881 81.7172 71.4075C82.0932 72.4358 82.4124 73.4553 82.4528 74.5354C82.473 75.011 82.4086 75.4728 82.2862 75.9157C83.1177 75.088 83.9353 74.2288 84.7125 73.3001C85.0961 72.8434 85.4607 72.3627 85.8266 71.8832C85.3321 71.2132 84.8564 70.5231 84.4779 69.8228C83.9984 68.9459 83.7057 68.0968 83.5871 67.2148C83.4685 66.3316 83.6565 65.5317 83.871 64.7154C83.9908 64.3141 84.1498 63.9293 84.3391 63.5622C84.5422 63.2026 84.7163 62.8291 84.9359 62.491C85.1617 63.4057 85.6551 64.2813 86.1623 65.1721C86.6594 66.0566 87.2373 67.0143 87.4265 68.0186C87.5262 68.5144 87.5401 69.0279 87.4896 69.5389C88.4788 68.0224 89.3822 66.4225 90.1657 64.7419C88.8321 63.5306 87.6524 62.1907 87.1855 60.6678C87.0657 60.2539 87.0026 59.835 86.9887 59.4161C86.9887 59.0035 86.9685 58.562 87.0215 58.1418C87.0669 57.7179 87.1527 57.299 87.2701 56.8914C87.4013 56.4902 87.4984 56.0738 87.6473 55.6878C88.0119 56.5558 88.6239 57.3141 89.2484 58.0762C89.8717 58.837 90.5505 59.6382 90.9391 60.5845C91.1347 61.0892 91.2155 61.638 91.2457 62.1957C91.9208 60.447 92.4734 58.6376 92.9226 56.7955C91.4602 55.8871 90.1329 54.8146 89.4503 53.3813C89.2674 52.9902 89.1374 52.5801 89.0516 52.1612C88.957 51.7385 88.9494 51.3171 88.904 50.873C88.8409 49.9923 88.9292 49.1003 89.116 48.265C89.5348 49.0713 90.2364 49.7274 90.9518 50.3759C91.6684 51.0244 92.4318 51.6906 92.915 52.5435C93.1913 53.0179 93.368 53.558 93.4929 54.1156C93.831 52.2395 94.0644 50.3431 94.2007 48.4455C92.703 47.8033 91.2167 46.9478 90.4319 45.6091C90.0345 44.8685 89.6762 44.0736 89.5285 43.2219C89.4465 42.7992 89.3998 42.3677 89.3834 41.9362C89.3456 41.5097 89.3052 41.0921 89.309 40.6783C89.8679 41.3722 90.6502 41.8883 91.3719 42.4106C92.1151 42.9292 92.8961 43.4629 93.5168 44.2275C93.8802 44.6565 94.1439 45.1612 94.3269 45.7037C94.337 45.1713 94.3559 44.6388 94.3496 44.1089C94.337 42.7235 94.2335 41.3546 94.0821 39.9995C93.3844 39.8266 92.6841 39.6172 92.0419 39.3207C91.3038 38.9762 90.6477 38.5258 90.0673 37.9315C89.7885 37.6312 89.5449 37.2981 89.3368 36.9398C89.1172 36.5865 88.981 36.1916 88.7879 35.8118C88.4195 35.046 88.1898 34.2145 88.0321 33.407C88.6655 33.976 89.4528 34.328 90.2679 34.6712C91.0842 35.0144 91.9422 35.3677 92.6172 36.0049C93.0399 36.3884 93.397 36.8843 93.7048 37.4218C93.4916 36.2459 93.2443 35.0838 92.9226 33.9583C92.7106 33.2164 92.4696 32.491 92.2122 31.7781C90.7385 31.7276 89.2068 31.4942 88.0675 30.5959C87.3937 30.1353 86.8221 29.5158 86.349 28.8118C86.1156 28.4585 85.8405 28.1153 85.6248 27.7444C85.4014 27.3772 85.2008 26.9987 85.0255 26.6189C85.7497 27.0542 86.5786 27.2334 87.4164 27.4012C88.2744 27.5576 89.068 27.7658 89.8843 28.22C90.3335 28.4888 90.8067 28.8295 91.1902 29.2572C90.5442 27.8314 89.82 26.4751 89.0377 25.2032C88.8308 24.8702 88.6113 24.5572 88.398 24.2355C87.0682 24.4576 85.5945 24.532 84.3176 23.8684C83.5947 23.5239 82.8793 23.0255 82.2534 22.4136C81.9506 22.1007 81.5986 21.808 81.3008 21.4761C80.9942 21.1506 80.7078 20.8099 80.4454 20.4667C81.2453 20.7885 82.0705 20.8377 82.8957 20.868C83.7322 20.8894 84.5245 20.9538 85.3977 21.244C85.8872 21.4143 86.3742 21.6906 86.8297 22.0262C85.8292 20.7191 84.7895 19.5066 83.7423 18.4101C83.5026 18.1591 83.2641 17.9282 83.0256 17.6872C81.8383 18.096 80.4769 18.366 79.1067 17.8878C78.3358 17.643 77.5396 17.2329 76.7978 16.7093C76.4306 16.4444 76.0344 16.1857 75.6761 15.8943C75.3114 15.6066 74.9632 15.305 74.6364 14.9972C75.4818 15.2394 76.2905 15.2129 77.0867 15.1612C77.8929 15.1006 78.6676 15.0666 79.5559 15.2394C80.0492 15.3416 80.5615 15.5397 81.0586 15.7921C79.4915 14.3613 77.9888 13.1513 76.6198 12.1167C75.5512 12.6251 74.2869 12.9936 72.8473 12.6327C71.2601 12.2681 69.4873 11.2044 68.0048 10.0992C68.8741 10.301 69.6627 10.2468 70.4298 10.1635C71.202 10.0752 71.9628 9.98562 72.8435 10.0966C73.3684 10.1585 73.921 10.3275 74.4724 10.5458C74.2503 10.3894 74.0245 10.2279 73.8163 10.0828C72.5268 9.18568 71.5326 8.4463 70.874 7.90629C70.2166 7.36627 69.881 7.04957 69.881 7.04957C69.881 7.04957 70.3112 7.20982 71.0897 7.56436C71.8594 7.93153 72.9634 8.5157 74.2819 9.3989C74.4888 9.53895 74.7159 9.69415 74.9367 9.84556C74.5418 9.40395 74.1835 8.951 73.9122 8.49805C73.458 7.72209 73.2296 6.95116 72.9558 6.22063C72.6845 5.48252 72.3653 4.73054 71.7584 4C73.4958 4.88194 75.3329 6.18026 76.3334 7.58708C77.2469 8.9182 77.3315 10.2304 77.1536 11.4076C78.544 12.4182 80.0719 13.6005 81.668 15.0136C81.3753 14.5556 81.1078 14.0988 80.9249 13.637C80.5791 12.7879 80.4769 11.9325 80.294 11.1414C80.1199 10.3389 79.8915 9.50995 79.3578 8.68352C79.7792 8.95479 80.2044 9.25255 80.6195 9.56798C81.0321 9.88972 81.4459 10.2064 81.8106 10.5799C82.5462 11.318 83.1871 12.094 83.5883 12.8901C84.3037 14.3941 84.1624 15.7656 83.7511 16.973C83.9959 17.214 84.2407 17.4462 84.4854 17.6985C85.5566 18.8101 86.6203 20.0428 87.6486 21.3752C87.4416 20.8377 87.2574 20.3078 87.1666 19.7816C86.995 18.858 87.077 17.9496 87.0467 17.0992C87.0265 16.2387 86.9496 15.3391 86.5484 14.3953C86.9357 14.7373 87.3243 15.1069 87.6965 15.4968C88.0624 15.893 88.4422 16.2753 88.7387 16.7295C89.3494 17.6165 89.8578 18.5237 90.0976 19.4157C90.5001 21.114 90.0168 22.5032 89.285 23.6639C89.5033 23.992 89.7279 24.3087 89.9399 24.6481C90.7524 25.9615 91.5044 27.3646 92.1756 28.8421C92.0987 28.2465 92.0406 27.6724 92.0999 27.1009C92.1706 26.1369 92.4974 25.2323 92.6728 24.3655C92.8696 23.486 93.0134 22.5473 92.8267 21.495C93.1459 21.9228 93.4563 22.3783 93.7477 22.8514C94.0304 23.3296 94.3269 23.8028 94.5262 24.3201C94.9312 25.3496 95.2013 26.3905 95.2366 27.3292C95.1962 29.136 94.2789 30.4331 93.2216 31.4147C93.4891 32.149 93.7389 32.8947 93.9597 33.6581C94.3067 34.8151 94.5779 36.0124 94.8126 37.225C94.8719 36.5941 94.9918 35.9721 95.2139 35.3967C95.5974 34.4555 96.0895 33.6656 96.5362 32.8367C96.9841 32.009 97.4105 31.1006 97.4988 30.0129C97.9291 31.0021 98.2698 32.115 98.4779 33.2038C98.5928 33.7464 98.5789 34.3028 98.5726 34.8277C98.5536 35.3551 98.4906 35.8598 98.3745 36.3266C98.165 37.2578 97.6414 38.0047 97.0118 38.6053C96.4768 39.1188 95.8586 39.5112 95.2315 39.8481C95.4069 41.2448 95.5306 42.6579 95.5621 44.0837C95.5785 44.654 95.5722 45.2281 95.5722 45.8009C95.7905 45.2255 96.0554 44.6704 96.3683 44.177C96.9248 43.3392 97.6566 42.6743 98.3505 41.9665C99.0659 41.2587 99.6892 40.4752 100.019 39.438C100.131 39.9642 100.239 40.5155 100.283 41.0707C100.306 41.6246 100.3 42.1848 100.257 42.7324C100.157 43.8238 99.9781 44.8887 99.4734 45.7151C98.5928 47.2721 97.0623 48.0606 95.5066 48.53C95.4157 50.439 95.2277 52.353 94.9338 54.2582C95.2151 53.7926 95.5343 53.3498 95.923 52.9712C96.6888 52.2445 97.5405 51.7133 98.3682 51.1392C99.1971 50.5651 100.019 49.9166 100.599 48.9855C100.612 50.0352 100.513 51.1582 100.271 52.213C100.164 52.7404 99.9441 53.2501 99.7283 53.7232C99.5025 54.1964 99.2388 54.6342 98.9334 55.0178C97.8433 56.4132 96.0693 56.9267 94.4026 57.116C94.0039 58.943 93.4992 60.746 92.8822 62.5023C93.2216 62.173 93.5862 61.8677 93.995 61.6166C94.8883 61.0425 95.8725 60.6804 96.8566 60.269C97.8395 59.8565 98.8325 59.3619 99.5454 58.5178C99.4747 59.0515 99.4015 59.6029 99.2236 60.1391C99.0609 60.6766 98.864 61.209 98.6344 61.7162C98.3959 62.2209 98.1575 62.7105 97.8143 63.1357C97.4862 63.5659 97.1241 63.9495 96.7317 64.2713C95.364 65.4257 93.484 65.5721 91.7504 65.4068C91.7467 65.4169 91.7429 65.4257 91.7391 65.4358C91.0073 67.1114 90.1657 68.7226 89.2333 70.2569C89.5878 70.0563 89.9664 69.8872 90.3625 69.7534C91.4211 69.409 92.4772 69.2601 93.5774 69.0746C94.6675 68.8828 95.7905 68.6103 96.6989 67.9164C96.521 68.4374 96.3318 68.9749 96.0453 69.4721C95.7728 69.9755 95.4662 70.4663 95.1293 70.923C94.4808 71.8517 93.5749 72.5683 92.6664 73.0402C91.7567 73.5134 90.6944 73.5992 89.6863 73.5109C88.909 73.4389 88.1356 73.2497 87.3912 73.0036C87.0139 73.5247 86.6367 74.0471 86.2392 74.5429C85.4898 75.4829 84.7012 76.3585 83.8975 77.2052C84.2899 77.0954 84.6936 77.0159 85.0999 76.968C86.2001 76.8456 87.3836 77.026 88.5015 77.0739C89.6295 77.132 90.818 77.1231 91.9145 76.6714C91.6331 77.1509 91.2861 77.6064 90.9227 78.053C90.5493 78.4909 90.1708 78.9325 89.7191 79.2883C88.8207 80.0024 87.8706 80.5992 86.8158 80.8023C85.0027 81.2086 83.1581 80.5046 81.5242 79.5267C80.1426 80.7758 78.7244 81.9202 77.2949 82.9384C77.6898 82.9157 78.091 82.9233 78.4973 82.97C79.6404 83.1214 80.757 83.5201 81.8875 83.8481C83.0218 84.1825 84.2142 84.4525 85.3813 84.238C84.652 85.0771 83.717 85.7975 82.7266 86.3539C82.2333 86.6353 81.6983 86.8296 81.1721 86.9835C80.6397 87.1286 80.1123 87.2296 79.5735 87.2207C77.6936 87.2157 75.9726 86.118 74.4964 84.7805C73.5412 85.3698 72.5912 85.9249 71.6625 86.4195C71.0191 86.7652 70.3857 87.0883 69.7611 87.3949C70.1523 87.4504 70.5459 87.5374 70.9371 87.6636C72.0448 88.0244 73.1085 88.6818 74.1784 89.2407C75.2521 89.8073 76.3978 90.3334 77.5939 90.3712C75.8666 91.7213 73.4971 92.6348 71.3711 92.2033C69.5227 91.8437 67.9796 90.4091 66.7115 88.7853C64.9161 89.5448 63.2443 90.1542 61.7568 90.64C62.0798 90.7573 62.4002 90.8936 62.7169 91.0639C63.7667 91.633 64.7294 92.4909 65.716 93.2656C66.7052 94.0466 67.7638 94.7785 68.9498 95.0523C67.0396 96.1058 64.5401 96.618 62.4557 95.8093C60.7045 95.1342 59.3835 93.4738 58.4107 91.6342C57.2688 91.9408 56.3301 92.1616 55.6551 92.313C54.8236 92.4947 54.3795 92.5919 54.3795 92.5919L53.7902 89.6622C53.7764 89.6622 54.2167 89.5814 55.0431 89.4288Z"
      fill="#006A44"/>
    <path
      d="M37.0772 61.9999L42.8045 27.0908H49.6227L43.8954 61.9999H37.0772ZM21.6 54.0226L22.7591 47.2045H50.85L49.6909 54.0226H21.6ZM24.8045 61.9999L30.5318 27.0908H37.35L31.6227 61.9999H24.8045ZM23.5772 41.8863L24.7363 35.0681H52.8272L51.6682 41.8863H23.5772Z"
      fill="#006A44"/>
    <path
      d="M54.6 62V55.4222C55.4834 54.8495 56.5876 54.0559 57.9127 53.0414C59.2378 52.0105 60.626 50.8569 62.0773 49.5806C63.5444 48.3043 64.909 47.0117 66.171 45.7027C67.4487 44.3773 68.4899 43.1255 69.2944 41.9474C70.0989 40.7529 70.5012 39.7466 70.5012 38.9285C70.5012 38.094 70.304 37.3331 69.9096 36.6459C69.5153 35.9423 68.9868 35.3859 68.3243 34.9769C67.6775 34.5678 66.9518 34.3633 66.1473 34.3633C65.3428 34.3633 64.6092 34.5678 63.9467 34.9769C63.2841 35.3859 62.7478 35.9423 62.3376 36.6459C61.9433 37.3331 61.7461 38.094 61.7461 38.9285H54.6473C54.6473 36.6704 55.1758 34.6414 56.2327 32.8415C57.2896 31.0416 58.6857 29.618 60.421 28.5708C62.172 27.5236 64.0808 27 66.1473 27C68.2454 27 70.162 27.5318 71.8973 28.5954C73.6326 29.659 75.0129 31.0989 76.0382 32.9151C77.0794 34.7151 77.6 36.7195 77.6 38.9285C77.6 40.0248 77.458 41.072 77.174 42.0701C76.8901 43.0519 76.4721 44.0255 75.9199 44.9909C75.3836 45.9399 74.7131 46.9135 73.9086 47.9116C73.1041 48.9098 72.1734 49.9652 71.1164 51.0778C70.0753 52.1741 68.9237 53.3605 67.6617 54.6367H77.6V62H54.6Z"
      fill="#006A44"/>
  </g>
  <defs>
    <clipPath id="clip0_311_133">
      <rect width="100" height="100" fill="white" transform="translate(0.599976)"/>
    </clipPath>
  </defs>
</svg>
