<svg width="69" height="24" viewBox="0 0 69 24" fill="none" xmlns="http://www.w3.org/2000/svg">
  <rect x="0.199951" width="68" height="24" rx="4" fill="#B27126"/>
  <path
    d="M12.232 18.208C11.5546 18.208 10.9466 18.0507 10.408 17.736C9.87462 17.4213 9.45328 17 9.14395 16.472C8.83462 15.944 8.67995 15.3573 8.67995 14.712H10.344C10.344 15.048 10.424 15.3547 10.584 15.632C10.744 15.9093 10.9653 16.1307 11.248 16.296C11.5306 16.4613 11.8586 16.544 12.232 16.544C12.568 16.544 12.88 16.4613 13.168 16.296C13.456 16.1307 13.688 15.9093 13.864 15.632C14.04 15.3547 14.128 15.048 14.128 14.712C14.128 14.2853 14.016 13.928 13.792 13.64C13.568 13.352 13.256 13.1387 12.856 13C12.4613 12.856 12.0053 12.784 11.488 12.784V11.472C12.192 11.472 12.7546 11.3333 13.176 11.056C13.5973 10.7787 13.808 10.3653 13.808 9.816C13.808 9.528 13.7306 9.26667 13.576 9.032C13.4266 8.792 13.2266 8.60267 12.976 8.464C12.7306 8.32 12.4666 8.248 12.184 8.248C11.8906 8.248 11.608 8.32 11.336 8.464C11.0693 8.60267 10.8506 8.792 10.68 9.032C10.5093 9.26667 10.424 9.528 10.424 9.816H8.75995C8.75995 9.37333 8.85062 8.95733 9.03195 8.568C9.21862 8.17333 9.46928 7.82933 9.78395 7.536C10.104 7.23733 10.4666 7.00533 10.872 6.84C11.2826 6.66933 11.712 6.584 12.16 6.584C12.7466 6.584 13.2906 6.73067 13.792 7.024C14.2986 7.312 14.704 7.70133 15.008 8.192C15.3173 8.67733 15.472 9.21867 15.472 9.816C15.472 10.2907 15.3546 10.7413 15.12 11.168C14.8906 11.5893 14.5706 11.888 14.16 12.064C14.5173 12.192 14.816 12.3947 15.056 12.672C15.3013 12.944 15.4853 13.2587 15.608 13.616C15.7306 13.968 15.792 14.3333 15.792 14.712C15.792 15.352 15.6293 15.9387 15.304 16.472C14.9786 17 14.544 17.4213 14 17.736C13.4613 18.0507 12.872 18.208 12.232 18.208ZM22.7458 22H21.0818V10H22.7458V11.176C23.0125 10.7653 23.3538 10.432 23.7698 10.176C24.1858 9.92 24.6765 9.792 25.2418 9.792C25.8232 9.792 26.3672 9.90133 26.8738 10.12C27.3858 10.3387 27.8338 10.6427 28.2178 11.032C28.6018 11.416 28.9032 11.8613 29.1218 12.368C29.3405 12.8747 29.4498 13.4187 29.4498 14C29.4498 14.5813 29.3405 15.128 29.1218 15.64C28.9032 16.152 28.6018 16.6027 28.2178 16.992C27.8338 17.376 27.3858 17.6773 26.8738 17.896C26.3672 18.1147 25.8232 18.224 25.2418 18.224C24.6765 18.224 24.1858 18.096 23.7698 17.84C23.3538 17.5787 23.0125 17.2453 22.7458 16.84V22ZM25.2258 11.4C24.7618 11.4 24.3538 11.5173 24.0018 11.752C23.6498 11.9867 23.3752 12.3013 23.1778 12.696C22.9805 13.0853 22.8818 13.52 22.8818 14C22.8818 14.48 22.9805 14.9173 23.1778 15.312C23.3752 15.7067 23.6498 16.0213 24.0018 16.256C24.3538 16.4907 24.7618 16.608 25.2258 16.608C25.6845 16.608 26.1058 16.4933 26.4898 16.264C26.8738 16.0293 27.1805 15.7147 27.4098 15.32C27.6392 14.9253 27.7538 14.4853 27.7538 14C27.7538 13.5253 27.6392 13.0907 27.4098 12.696C27.1858 12.3013 26.8818 11.9867 26.4978 11.752C26.1138 11.5173 25.6898 11.4 25.2258 11.4ZM30.6443 18V6H32.3083V18H30.6443ZM40.3371 10H42.0011V18H40.3291L40.2651 16.84C40.0304 17.2507 39.7131 17.5813 39.3131 17.832C38.9131 18.0827 38.4411 18.208 37.8971 18.208C37.3104 18.208 36.7584 18.0987 36.2411 17.88C35.7237 17.656 35.2677 17.3467 34.8731 16.952C34.4837 16.5573 34.1797 16.104 33.9611 15.592C33.7424 15.0747 33.6331 14.52 33.6331 13.928C33.6331 13.3573 33.7397 12.8213 33.9531 12.32C34.1664 11.8133 34.4624 11.3707 34.8411 10.992C35.2197 10.6133 35.6571 10.3173 36.1531 10.104C36.6544 9.88533 37.1904 9.776 37.7611 9.776C38.3424 9.776 38.8544 9.90933 39.2971 10.176C39.7451 10.4373 40.1157 10.7733 40.4091 11.184L40.3371 10ZM37.8571 16.6C38.3264 16.6 38.7371 16.4853 39.0891 16.256C39.4411 16.0213 39.7131 15.7067 39.9051 15.312C40.1024 14.9173 40.2011 14.48 40.2011 14C40.2011 13.5147 40.1024 13.0747 39.9051 12.68C39.7077 12.2853 39.4331 11.9733 39.0811 11.744C38.7344 11.5093 38.3264 11.392 37.8571 11.392C37.3931 11.392 36.9691 11.5093 36.5851 11.744C36.2011 11.9787 35.8971 12.2933 35.6731 12.688C35.4491 13.0827 35.3371 13.52 35.3371 14C35.3371 14.4853 35.4517 14.9253 35.6811 15.32C35.9157 15.7093 36.2224 16.0213 36.6011 16.256C36.9851 16.4853 37.4037 16.6 37.8571 16.6ZM48.6652 15.728L50.1532 16.536C49.7905 17.0427 49.3292 17.448 48.7692 17.752C48.2145 18.056 47.6119 18.208 46.9612 18.208C46.2252 18.208 45.5532 18.0187 44.9452 17.64C44.3425 17.2613 43.8599 16.7547 43.4972 16.12C43.1399 15.48 42.9612 14.7733 42.9612 14C42.9612 13.4133 43.0652 12.8667 43.2732 12.36C43.4812 11.848 43.7665 11.4 44.1292 11.016C44.4972 10.6267 44.9239 10.3227 45.4092 10.104C45.8945 9.88533 46.4119 9.776 46.9612 9.776C47.6119 9.776 48.2145 9.928 48.7692 10.232C49.3292 10.536 49.7905 10.944 50.1532 11.456L48.6652 12.264C48.4412 11.9973 48.1799 11.7947 47.8812 11.656C47.5825 11.512 47.2759 11.44 46.9612 11.44C46.5239 11.44 46.1265 11.56 45.7692 11.8C45.4172 12.0347 45.1372 12.3467 44.9292 12.736C44.7265 13.12 44.6252 13.5413 44.6252 14C44.6252 14.4533 44.7292 14.8747 44.9372 15.264C45.1452 15.648 45.4252 15.9573 45.7772 16.192C46.1345 16.4267 46.5292 16.544 46.9612 16.544C47.2919 16.544 47.6065 16.4693 47.9052 16.32C48.2039 16.1707 48.4572 15.9733 48.6652 15.728ZM54.9143 18.208C54.1783 18.208 53.5063 18.0187 52.8983 17.64C52.2957 17.2613 51.813 16.7547 51.4503 16.12C51.093 15.48 50.9143 14.7733 50.9143 14C50.9143 13.4133 51.0183 12.8667 51.2263 12.36C51.4343 11.848 51.7197 11.4 52.0823 11.016C52.4503 10.6267 52.877 10.3227 53.3623 10.104C53.8477 9.88533 54.365 9.776 54.9143 9.776C55.5277 9.776 56.0903 9.904 56.6023 10.16C57.1143 10.4107 57.5517 10.76 57.9143 11.208C58.277 11.6507 58.5437 12.1627 58.7143 12.744C58.885 13.32 58.9357 13.9333 58.8663 14.584H52.6983C52.7677 14.952 52.901 15.2853 53.0983 15.584C53.301 15.8773 53.557 16.1093 53.8663 16.28C54.181 16.4507 54.5303 16.5387 54.9143 16.544C55.3197 16.544 55.6877 16.4427 56.0183 16.24C56.3543 16.0373 56.629 15.7573 56.8423 15.4L58.5303 15.792C58.2103 16.5013 57.7277 17.0827 57.0823 17.536C56.437 17.984 55.7143 18.208 54.9143 18.208ZM52.6423 13.312H57.1863C57.133 12.928 56.997 12.5813 56.7783 12.272C56.565 11.9573 56.2957 11.7093 55.9703 11.528C55.6503 11.3413 55.2983 11.248 54.9143 11.248C54.5357 11.248 54.1837 11.3387 53.8583 11.52C53.5383 11.7013 53.2717 11.9493 53.0583 12.264C52.8503 12.5733 52.7117 12.9227 52.6423 13.312Z"
    fill="white"/>
</svg>
