<svg width="101" height="100" viewBox="0 0 101 100" fill="none" xmlns="http://www.w3.org/2000/svg">
  <path
    d="M40.304 17.0923C40.304 18.8989 40.7814 20.5954 41.6134 22.0654L43.2052 20.6198C43.5581 20.2994 43.9723 20.0666 44.4171 19.9249C44.0102 19.064 43.7765 18.1057 43.7765 17.0923C43.7765 16.4191 43.8784 15.7703 44.0652 15.1567L44.4551 15.7793C44.8205 16.3623 45.4594 16.716 46.1471 16.716H47.7443H52.1327H55.0763C55.6276 16.716 56.1402 16.4326 56.4326 15.9652L56.8513 15.2965C57.0119 15.8686 57.104 16.4687 57.104 17.0914C57.104 18.1977 56.8287 19.24 56.3496 20.1586C56.5842 20.2841 56.8053 20.4366 57.0056 20.6189L59.0315 22.4589C60.0079 20.9013 60.5755 19.0622 60.5755 17.0914C60.5755 15.1404 60.0196 13.3176 59.0612 11.7691L66.4356 0H55.6628L51.2808 6.99357C51.0029 6.97101 50.7222 6.95567 50.4388 6.95567C50.1952 6.95567 49.9543 6.9674 49.7151 6.98455L45.3385 0H34.5675L41.8805 11.6716C40.8843 13.2418 40.304 15.0998 40.304 17.0923ZM42.4644 13.9195C42.2324 14.3905 42.0366 14.8381 41.8995 15.2496C41.7596 15.6602 41.6549 16.0275 41.5791 16.3343C41.5114 16.6393 41.4483 16.8847 41.4212 17.0535C41.3887 17.2213 41.3707 17.3107 41.3707 17.3107C41.3707 17.3107 41.367 17.2195 41.3598 17.0481C41.3508 16.8775 41.3427 16.6267 41.3544 16.3027C41.3716 15.9814 41.3959 15.588 41.4762 15.1422C41.5484 14.6946 41.6703 14.1938 41.8607 13.6623C41.9969 13.2797 42.1675 12.879 42.3831 12.4783L42.8542 13.23C42.7116 13.4601 42.5799 13.6912 42.4644 13.9195ZM50.6735 7.86439C50.8846 7.86709 51.0353 7.88063 51.2185 7.88965C51.5777 7.92034 51.9666 7.96094 52.3113 8.03043C53.0188 8.15586 53.6866 8.37334 54.284 8.64947C54.8868 8.91568 55.4075 9.2613 55.8514 9.61323C56.3026 9.95795 56.6627 10.3315 56.9605 10.6745C57.2592 11.0165 57.4866 11.3386 57.6625 11.6084C57.8421 11.8764 57.9621 12.0993 58.0416 12.2509C58.1228 12.4016 58.167 12.482 58.167 12.482C58.167 12.482 58.1056 12.4143 57.9892 12.2879C57.8782 12.1589 57.7013 11.9802 57.4803 11.7555C57.0318 11.3133 56.3703 10.7015 55.4679 10.1682C55.0158 9.90561 54.5123 9.65204 53.9546 9.45983C53.396 9.26852 52.7896 9.13045 52.1534 9.04653C51.8285 9.00231 51.5262 8.98787 51.1878 8.97704C51.1129 8.97704 51.038 8.97614 50.9631 8.97614L50.271 7.8707C50.4045 7.868 50.539 7.86709 50.6735 7.86439Z"
    fill="#006A44"/>
  <path
    d="M87.3405 57.8771L89.019 54.1493C89.4188 53.2614 89.2202 52.2173 88.5209 51.5387L85.5881 48.6907L86.2865 44.6624C86.4526 43.7023 86.0005 42.7412 85.1549 42.2575L81.6058 40.228L81.2809 36.1528C81.2033 35.1818 80.5265 34.3634 79.5871 34.1053L75.6455 33.0224L74.3171 29.1556C74.0004 28.2343 73.1413 27.6098 72.1676 27.5936L68.0798 27.525L65.8319 24.1103C65.3978 23.4507 64.6651 23.0681 63.899 23.0681C63.7203 23.0681 63.5398 23.0888 63.3611 23.1312L59.3852 24.0815L56.3585 21.3337C55.9227 20.9375 55.365 20.7327 54.8019 20.7327C54.4337 20.7327 54.0628 20.8202 53.7217 21.0007L50.1067 22.9101L46.4917 21.0007C46.1506 20.8211 45.7797 20.7327 45.4116 20.7327C44.8485 20.7327 44.2908 20.9375 43.8549 21.3337L40.8283 24.0815L36.8523 23.1312C36.6736 23.0888 36.4932 23.0681 36.3145 23.0681C35.5475 23.0681 34.8165 23.4498 34.3815 24.1103L32.1337 27.525L28.0458 27.5936C27.0721 27.6098 26.2122 28.2343 25.8954 29.1556L24.5671 33.0224L20.6254 34.1053C19.686 34.3634 19.0083 35.1818 18.9316 36.1528L18.6068 40.228L15.0576 42.2575C14.2121 42.7412 13.76 43.7023 13.926 44.6624L14.6245 48.6907L11.6917 51.5387C10.9932 52.2173 10.7938 53.2614 11.1936 54.1493L12.872 57.8771L10.7397 61.3649C10.2316 62.196 10.2984 63.2563 10.9066 64.017L13.4595 67.2106L12.2611 71.1189C11.9759 72.0502 12.3044 73.0608 13.0823 73.6465L16.349 76.1046L16.1604 80.188C16.1152 81.1608 16.6847 82.0577 17.5843 82.4322L21.36 84.0006L22.1929 88.0027C22.3914 88.9566 23.1657 89.6839 24.1303 89.822L28.1776 90.4022L29.9797 94.0714C30.3713 94.8691 31.1817 95.3654 32.0561 95.3654C32.14 95.3654 32.2239 95.3609 32.3087 95.3519L36.3723 94.9079L39.0307 98.0139C39.4792 98.5382 40.1262 98.8234 40.7895 98.8234C41.0629 98.8234 41.3391 98.7746 41.6044 98.6745L45.4305 97.2334L48.7775 99.5805C49.1763 99.8602 49.6411 100 50.1067 100C50.5715 100 51.0371 99.8602 51.436 99.5805L54.7829 97.2334L58.6091 98.6745C58.8753 98.7746 59.1514 98.8234 59.424 98.8234C60.0872 98.8234 60.7342 98.5382 61.1827 98.0139L63.8412 94.9079L67.9047 95.3519C67.9895 95.3609 68.0734 95.3654 68.1574 95.3654C69.0318 95.3654 69.8421 94.8691 70.2338 94.0714L72.0359 90.4022L76.0831 89.822C77.0478 89.6839 77.822 88.9566 78.0206 88.0027L78.8535 84.0006L82.6291 82.4322C83.5288 82.0586 84.0982 81.1617 84.0531 80.188L83.8645 76.1046L87.1312 73.6465C87.9099 73.0608 88.2375 72.0502 87.9524 71.1189L86.7549 67.2106L89.3077 64.017C89.916 63.2563 89.9827 62.196 89.4747 61.3649L87.3405 57.8771ZM50.1049 94.0181C31.5507 94.0181 16.4545 78.9228 16.4545 60.3677C16.4545 41.8127 31.5498 26.7174 50.1049 26.7174C68.66 26.7174 83.7553 41.8136 83.7553 60.3677C83.7553 78.9219 68.66 94.0181 50.1049 94.0181Z"
    fill="#006A44"/>
  <path
    d="M50.105 85.976C64.2257 85.976 75.7141 74.4885 75.7141 60.3669C75.7141 46.2453 64.2257 34.7578 50.105 34.7578C35.9843 34.7578 24.4958 46.2462 24.4958 60.3669C24.4958 74.4876 35.9843 85.976 50.105 85.976ZM50.105 36.6113C63.2042 36.6113 73.8615 47.2686 73.8615 60.3678C73.8615 73.467 63.2042 84.1243 50.105 84.1243C37.0058 84.1243 26.3485 73.467 26.3485 60.3678C26.3485 47.2686 37.0058 36.6113 50.105 36.6113Z"
    fill="#006A44"/>
  <path
    d="M27.8302 61.5471C27.869 62.315 27.9078 63.4502 28.1731 64.8697C28.4312 66.2883 28.9013 67.9911 29.7126 69.8401C30.5202 71.6882 31.7123 73.6662 33.3655 75.5387C35.0232 77.4004 37.1366 79.1582 39.6732 80.51C42.2045 81.8645 45.149 82.8039 48.2965 83.0593C51.4134 83.3228 54.7279 82.9582 57.8421 81.8366C60.959 80.7248 63.8647 78.8821 66.2524 76.5151C68.6185 74.1265 70.4621 71.2217 71.5739 68.1048C72.6938 64.9861 73.0601 61.6824 72.7957 58.5538C72.5412 55.4171 71.5991 52.4653 70.2464 49.9368C68.8947 47.4002 67.1368 45.2868 65.2751 43.6291C63.4027 41.9759 61.4246 40.7847 59.5774 39.9762C57.7284 39.164 56.0256 38.6939 54.6079 38.4358C53.1884 38.1705 52.0523 38.1308 51.2844 38.092C50.5155 38.0911 50.1049 38.0911 50.1049 38.0911C50.1049 38.0911 50.5146 38.1127 51.2826 38.1524C52.0469 38.2255 53.1677 38.3392 54.5637 38.6478C55.957 38.9574 57.6192 39.4862 59.4014 40.3525C61.1819 41.217 63.0625 42.4569 64.8519 44.0947C66.6233 45.7488 68.2765 47.8369 69.5218 50.3113C70.7707 52.7803 71.5901 55.63 71.8121 58.6305C72.0368 61.6292 71.6244 64.774 70.5551 67.7366C69.4848 70.701 67.7188 73.4578 65.4592 75.721C63.1951 77.9797 60.4383 79.7466 57.4748 80.8159C54.5077 81.8826 51.3746 82.2977 48.3633 82.0721C45.3746 81.8519 42.5167 81.0298 40.0504 79.7818C37.5761 78.5374 35.4879 76.8842 33.8338 75.1128C32.196 73.3233 30.957 71.4427 30.0916 69.6623C29.2253 67.8801 28.6965 66.2188 28.387 64.8246C28.0774 63.4286 27.9637 62.3069 27.8906 61.5425C27.85 60.7746 27.8284 60.3658 27.8284 60.3658C27.8284 60.3658 27.8293 60.7773 27.8302 61.5471Z"
    fill="#006A44"/>
  <path
    d="M81.0039 71.5033C82.6056 67.0148 83.1651 62.2645 82.7933 57.7544C82.4414 53.2352 81.0986 48.9749 79.1585 45.3211C77.221 41.6565 74.6943 38.5965 72.0142 36.1934C69.316 33.7993 66.4681 32.0613 63.8033 30.8783C61.1367 29.6898 58.6759 28.9959 56.6247 28.6106C54.5709 28.2162 52.9276 28.144 51.8149 28.0808C50.6996 28.0718 50.1049 28.0664 50.1049 28.0664C50.1049 28.0664 50.6987 28.0935 51.8131 28.1431C52.9213 28.2424 54.551 28.3913 56.5805 28.8298C58.6064 29.2675 61.0248 30.0219 63.6228 31.2663C66.219 32.508 68.9659 34.2956 71.5783 36.6735C74.1664 39.0729 76.5848 42.1059 78.4131 45.7074C80.2467 49.2998 81.4578 53.4535 81.7953 57.832C82.1319 62.2068 81.5625 66.8072 79.9905 71.1369C78.423 75.4675 75.8395 79.494 72.5367 82.7977C69.2312 86.0986 65.2065 88.684 60.8759 90.2506C56.5435 91.8225 51.953 92.392 47.5656 92.0545C43.198 91.7179 39.0379 90.5041 35.4473 88.6723C31.8458 86.8449 28.8128 84.4265 26.4134 81.8384C24.0356 79.226 22.2488 76.4791 21.0062 73.8829C19.7618 71.2849 19.0065 68.8665 18.5688 66.8406C18.1294 64.812 17.9805 63.1823 17.8812 62.0732C17.8307 60.9597 17.8045 60.3659 17.8045 60.3659C17.8045 60.3659 17.809 60.9606 17.819 62.0768C17.8821 63.1895 17.9543 64.8328 18.3486 66.8866C18.734 68.9378 19.427 71.3986 20.6164 74.0652C21.7994 76.73 23.5383 79.5779 25.9315 82.2761C28.3346 84.9562 31.3946 87.4838 35.0592 89.4213C38.7148 91.3632 42.9678 92.7024 47.4988 93.0561C51.9972 93.427 56.7574 92.8684 61.2423 91.2667C65.7299 89.6703 69.9143 87.0218 73.3543 83.6152C76.7581 80.1744 79.4075 75.9909 81.0039 71.5033Z"
    fill="#006A44"/>
  <path
    d="M46.64 75.5199C44.96 75.5199 43.42 75.1066 42.02 74.2799C40.62 73.4533 39.5 72.3399 38.66 70.9399C37.82 69.5399 37.4 67.9866 37.4 66.2799H43.4C43.4 66.8666 43.5466 67.4066 43.84 67.8999C44.1333 68.3933 44.5266 68.7866 45.02 69.0799C45.5133 69.3733 46.0533 69.5199 46.64 69.5199C47.2266 69.5199 47.7666 69.3733 48.26 69.0799C48.7533 68.7866 49.1466 68.3933 49.44 67.8999C49.7333 67.4066 49.88 66.8666 49.88 66.2799C49.88 65.4666 49.6533 64.7933 49.2 64.2599C48.7466 63.7133 48.1066 63.3066 47.28 63.0399C46.4666 62.7733 45.5066 62.6399 44.4 62.6399V58.0799C45.8666 58.0799 47.02 57.8333 47.86 57.3399C48.7 56.8333 49.12 56.0799 49.12 55.0799C49.12 54.5999 49 54.1599 48.76 53.7599C48.5333 53.3599 48.22 53.0399 47.82 52.7999C47.4333 52.5599 47 52.4399 46.52 52.4399C46.0266 52.4399 45.54 52.5599 45.06 52.7999C44.58 53.0399 44.18 53.3599 43.86 53.7599C43.5533 54.1599 43.4 54.5999 43.4 55.0799H37.4C37.4 53.8933 37.64 52.7799 38.12 51.7399C38.6133 50.6866 39.28 49.7666 40.12 48.9799C40.9733 48.1799 41.94 47.5599 43.02 47.1199C44.1133 46.6666 45.2533 46.4399 46.44 46.4399C48 46.4399 49.44 46.8266 50.76 47.5999C52.08 48.3733 53.1333 49.4133 53.92 50.7199C54.72 52.0266 55.12 53.4799 55.12 55.0799C55.12 56.0133 54.92 56.9799 54.52 57.9799C54.12 58.9799 53.52 59.6933 52.72 60.1199C53.4133 60.3866 53.9933 60.8599 54.46 61.5399C54.9266 62.2066 55.28 62.9666 55.52 63.8199C55.76 64.6599 55.88 65.4799 55.88 66.2799C55.88 67.9733 55.46 69.5199 54.62 70.9199C53.7933 72.3199 52.68 73.4399 51.28 74.2799C49.88 75.1066 48.3333 75.5199 46.64 75.5199Z"
    fill="#006A44"/>
  <path
    d="M61.24 48H63.04V57H61.24V56.448C61.056 56.656 60.836 56.826 60.58 56.958C60.328 57.09 60.04 57.156 59.716 57.156C59.28 57.156 58.872 57.074 58.492 56.91C58.112 56.746 57.776 56.52 57.484 56.232C57.196 55.94 56.97 55.604 56.806 55.224C56.642 54.844 56.56 54.436 56.56 54C56.56 53.564 56.642 53.156 56.806 52.776C56.97 52.396 57.196 52.062 57.484 51.774C57.776 51.482 58.112 51.254 58.492 51.09C58.872 50.926 59.28 50.844 59.716 50.844C60.04 50.844 60.328 50.91 60.58 51.042C60.836 51.17 61.056 51.34 61.24 51.552V48ZM59.74 55.428C59.988 55.428 60.214 55.364 60.418 55.236C60.622 55.108 60.784 54.936 60.904 54.72C61.024 54.504 61.084 54.264 61.084 54C61.084 53.736 61.024 53.496 60.904 53.28C60.784 53.064 60.622 52.892 60.418 52.764C60.214 52.636 59.988 52.572 59.74 52.572C59.492 52.572 59.266 52.636 59.062 52.764C58.862 52.892 58.702 53.064 58.582 53.28C58.466 53.496 58.408 53.736 58.408 54C58.408 54.264 58.468 54.504 58.588 54.72C58.708 54.936 58.868 55.108 59.068 55.236C59.272 55.364 59.496 55.428 59.74 55.428Z"
    fill="#006A44"/>
</svg>
