<svg width="100" height="100" viewBox="0 0 100 100" fill="none" xmlns="http://www.w3.org/2000/svg">
  <g clip-path="url(#clip0_311_485)">
    <path
      d="M94.9697 55.4285C94.5226 55.4746 94.0216 55.5775 93.5167 55.7726C93.0265 55.9677 92.5099 56.25 91.9942 56.6471C91.1628 57.2961 90.6305 58.1863 90.1648 58.9873C90.1648 58.9873 90.2657 58.7706 90.3393 58.4226C90.4216 58.0775 90.5334 57.6177 90.6461 57.1579C90.7599 56.6961 90.8706 56.2373 90.954 55.8922C91.0157 55.5422 91.0354 55.3049 91.0354 55.3049C91.6726 55.3892 93.4971 55.5834 94.8373 54.1324C95.7167 53.2422 96.0049 51.8765 96.1579 50.7549C96.2236 50.1942 96.2697 49.6922 96.2481 49.3363C96.2226 48.9804 96.1893 48.7647 96.1893 48.7647C96.1893 48.7647 95.5746 48.7696 94.8089 49.0236C94.4275 49.1491 94.0069 49.3344 93.604 49.601C93.1785 49.8687 92.7589 50.2167 92.4001 50.6677C91.8344 51.3696 91.5412 52.2167 91.3177 52.9912C91.3177 52.9912 91.3265 52.9295 91.3383 52.8255C91.3402 52.7177 91.3402 52.5638 91.3412 52.3804C91.3422 52.0128 91.3442 51.5236 91.3451 51.0334C91.3451 50.5442 91.3589 50.054 91.3432 49.6863C91.301 49.3216 91.2746 49.0785 91.2746 49.0785C91.8667 49.0118 93.4579 48.7736 94.3108 47.2785C94.5667 46.8128 94.7677 46.2608 94.8177 45.7167C94.8648 45.1726 94.8432 44.6216 94.7922 44.1294C94.6932 43.1461 94.4814 42.4128 94.4814 42.4128C94.4814 42.4128 93.9481 42.5304 93.3128 42.8961C92.6755 43.2618 91.9344 43.8667 91.4971 44.7814C91.1589 45.4618 91.0942 46.2059 91.0265 46.901C91.0265 46.901 91.0098 46.6461 90.9108 46.2785C90.8226 45.9089 90.7069 45.4148 90.5883 44.9216C90.4706 44.4275 90.355 43.9343 90.2667 43.5657C90.1412 43.2069 90.0579 42.9677 90.0579 42.9677C90.5697 42.7804 91.8432 42.2432 92.2765 40.8324C92.4079 40.3873 92.4608 39.8873 92.4206 39.4089C92.3579 38.9383 92.2383 38.4726 92.1059 38.0647C91.8373 37.25 91.5206 36.6687 91.5206 36.6687C91.5206 36.6687 91.0824 36.8687 90.602 37.2981C90.1187 37.7275 89.5932 38.3814 89.3883 39.2491C89.2373 39.8569 89.304 40.4696 89.3677 41.05C89.3677 41.05 89.3354 40.9422 89.2648 40.7853C89.1922 40.6304 89.0922 40.4265 88.9951 40.2216C88.7942 39.8118 88.5951 39.402 88.5951 39.402C88.6618 39.0736 88.7461 38.5363 88.704 37.9187C88.6285 37.3216 88.4353 36.6353 88.0442 36.0089C87.552 35.1373 86.6353 34.6863 85.9893 34.3971C85.3197 34.1187 84.8148 34.0549 84.8148 34.0549C84.8148 34.0549 84.7804 34.5951 84.8648 35.2922C84.9334 36.0079 85.2089 36.803 85.6393 37.5814C85.9834 38.1412 86.4755 38.5579 86.9697 38.8785C87.4255 39.2197 87.8648 39.4696 88.1687 39.6128C88.1687 39.6128 88.5608 40.3883 88.9079 41.1853C89.203 42.004 89.4971 42.8216 89.4971 42.8216C89.1677 42.35 88.7491 41.8961 88.2383 41.6236C87.502 41.2314 86.6422 41.3206 86.0373 41.4638C85.4187 41.6138 84.9951 41.8432 84.9951 41.8432C84.9951 41.8432 85.0412 41.954 85.1353 42.1285C85.2334 42.304 85.3814 42.5402 85.5265 42.8196C85.8373 43.3716 86.3393 44.0069 87.0814 44.3981C88.1559 45.0422 89.5187 44.8677 90.055 44.7393C90.055 44.7393 90.2844 45.7079 90.5157 46.6775C90.6344 47.6657 90.7481 48.6559 90.7481 48.6559C90.5069 48.0128 90.152 47.3589 89.6265 46.9079C88.8373 46.3128 87.9157 46.201 87.1971 46.2236C86.4775 46.2481 85.954 46.401 85.954 46.401C85.954 46.401 86.0647 46.9226 86.3255 47.5814C86.5236 48.25 86.9089 49.0549 87.6236 49.6618C88.7059 50.6422 90.2589 50.8059 90.8706 50.8C90.8706 50.8 90.8687 51.7618 90.8638 52.7236C90.752 53.6785 90.6373 54.6334 90.6373 54.6334C90.5324 53.8363 90.3844 52.9863 89.8128 52.3343C89.104 51.4961 88.1373 51.1628 87.3491 51.0216C86.5608 50.8824 85.95 50.9275 85.95 50.9275C85.95 50.9275 85.9099 51.503 86.0599 52.2618C86.1648 53.0197 86.3265 53.9579 86.9638 54.7912C87.8942 56.1294 89.5765 56.7324 90.2236 56.8794C90.2236 56.8794 90.0148 57.7863 89.7706 58.6804C89.4451 59.552 89.1206 60.4226 89.1206 60.4226C89.2226 59.5069 89.3157 58.5138 88.8157 57.6275C88.2638 56.5579 87.3059 55.9765 86.4912 55.6393C85.6746 55.3059 85.003 55.2079 85.003 55.2079C85.003 55.2079 84.8148 55.7951 84.7883 56.6216C84.8 57.0471 84.7226 57.4893 84.7706 57.9804C84.8069 58.4677 84.9216 58.9883 85.154 59.5079C85.7893 61.1677 87.4952 62.302 88.1157 62.6138C88.1157 62.6138 87.9961 62.8491 87.8148 63.202C87.7246 63.3785 87.6197 63.5853 87.5059 63.8049C87.3657 64.0118 87.2177 64.2324 87.0746 64.451C86.4814 65.3265 85.8863 66.203 85.8863 66.203L86.2667 66.4942C86.2667 66.4942 87.1255 65.251 87.9491 63.9863C88.2942 63.3157 88.6403 62.6441 88.8971 62.1422C89.0295 61.8883 89.1363 61.6785 89.2118 61.5324C89.2814 61.3844 89.3089 61.2922 89.3089 61.2922C89.9481 61.5461 91.8687 62.2883 93.7177 61.0324C94.8991 60.2834 95.5687 58.8559 96.0255 57.6608C96.1373 57.3608 96.2334 57.0765 96.3128 56.8167C96.3736 56.553 96.4098 56.3147 96.4412 56.1167C96.5059 55.7167 96.5265 55.4716 96.5265 55.4716C96.5265 55.4716 95.8599 55.3324 94.9697 55.4285Z"
      fill="#006A44"/>
    <path
      d="M5.35496 55.4285C5.80202 55.4746 6.30299 55.5775 6.80691 55.7726C7.29711 55.9677 7.81476 56.25 8.32947 56.6471C9.16182 57.2961 9.69417 58.1863 10.1589 58.9873C10.1589 58.9873 10.0569 58.7706 9.98439 58.4226C9.90204 58.0775 9.79025 57.6177 9.67751 57.1579C9.56378 56.6961 9.453 56.2373 9.36868 55.8922C9.30888 55.5422 9.2873 55.3049 9.2873 55.3049C8.65103 55.3892 6.82653 55.5834 5.48634 54.1324C4.60693 53.2422 4.31772 51.8765 4.16478 50.7549C4.10007 50.1942 4.053 49.6922 4.07457 49.3363C4.10104 48.9804 4.13339 48.7647 4.13339 48.7647C4.13339 48.7647 4.74907 48.7696 5.51476 49.0236C5.89613 49.1491 6.31674 49.3344 6.71772 49.601C7.14321 49.8687 7.56279 50.2167 7.9226 50.6677C8.4873 51.3696 8.78044 52.2167 9.00495 52.9912C9.00495 52.9912 8.99613 52.9295 8.98338 52.8255C8.98142 52.7177 8.98143 52.5638 8.98045 52.3804C8.97947 52.0128 8.97751 51.5236 8.97653 51.0334C8.97653 50.5442 8.9638 50.054 8.97851 49.6863C9.02066 49.3216 9.04711 49.0785 9.04711 49.0785C8.45691 49.0118 6.86478 48.7736 6.01184 47.2785C5.75596 46.8128 5.55497 46.2608 5.50399 45.7167C5.45693 45.1726 5.47948 44.6216 5.52948 44.1294C5.62948 43.1461 5.84025 42.4128 5.84025 42.4128C5.84025 42.4128 6.37358 42.5304 7.00985 42.8961C7.64515 43.2618 8.3883 43.8667 8.82457 44.7814C9.16281 45.4618 9.22848 46.2059 9.29613 46.901C9.29613 46.901 9.31183 46.6461 9.41183 46.2785C9.50006 45.9089 9.61575 45.4148 9.7334 44.9216C9.85104 44.4275 9.96673 43.9343 10.055 43.5657C10.1814 43.2069 10.2648 42.9677 10.2648 42.9677C9.753 42.7804 8.47849 42.2432 8.04613 40.8324C7.91378 40.3873 7.86182 39.8873 7.90201 39.4089C7.96476 38.9383 8.08634 38.4726 8.21673 38.0647C8.48536 37.25 8.803 36.6687 8.803 36.6687C8.803 36.6687 9.24026 36.8687 9.72065 37.2981C10.203 37.7275 10.7285 38.3814 10.9334 39.2491C11.0844 39.8569 11.0187 40.4696 10.954 41.05C10.954 41.05 10.9873 40.9422 11.0579 40.7853C11.1305 40.6304 11.2295 40.4265 11.3275 40.2216C11.5275 39.8118 11.7265 39.402 11.7265 39.402C11.6599 39.0736 11.5756 38.5363 11.6177 37.9187C11.6932 37.3216 11.8863 36.6353 12.2785 36.0089C12.7697 35.1373 13.6863 34.6863 14.3324 34.3971C15.003 34.1187 15.5069 34.0549 15.5069 34.0549C15.5069 34.0549 15.5422 34.5951 15.4579 35.2922C15.3893 36.0079 15.1138 36.803 14.6824 37.5814C14.3383 38.1412 13.8462 38.5579 13.352 38.8785C12.8962 39.2197 12.456 39.4696 12.152 39.6128C12.152 39.6128 11.7599 40.3883 11.4128 41.1853C11.1177 42.004 10.8246 42.8216 10.8246 42.8216C11.153 42.35 11.5716 41.8961 12.0824 41.6236C12.8197 41.2314 13.6785 41.3206 14.2834 41.4638C14.902 41.6138 15.3265 41.8432 15.3265 41.8432C15.3265 41.8432 15.2804 41.954 15.1873 42.1285C15.0883 42.304 14.9403 42.5402 14.7952 42.8196C14.4844 43.3716 13.9824 44.0069 13.2412 44.3981C12.1667 45.0422 10.803 44.8677 10.2667 44.7393C10.2667 44.7393 10.0373 45.7079 9.80595 46.6775C9.6883 47.6657 9.57459 48.6559 9.57459 48.6559C9.81478 48.0128 10.1697 47.3589 10.6951 46.9079C11.4853 46.3128 12.4059 46.201 13.1246 46.2236C13.8442 46.2481 14.3667 46.401 14.3667 46.401C14.3667 46.401 14.2559 46.9226 13.9961 47.5814C13.7971 48.25 13.4118 49.0549 12.6981 49.6618C11.6148 50.6422 10.0628 50.8059 9.45105 50.8C9.45105 50.8 9.453 51.7618 9.4579 52.7236C9.56967 53.6785 9.68535 54.6334 9.68535 54.6334C9.79025 53.8363 9.9373 52.9863 10.5089 52.3343C11.2187 51.4961 12.1844 51.1628 12.9736 51.0216C13.7608 50.8824 14.3716 50.9275 14.3716 50.9275C14.3716 50.9275 14.4118 51.503 14.2618 52.2618C14.1589 53.0197 13.9952 53.9579 13.3589 54.7912C12.4275 56.1294 10.7451 56.7324 10.0991 56.8794C10.0991 56.8794 10.3069 57.7863 10.551 58.6804C10.8775 59.552 11.2011 60.4226 11.2011 60.4226C11.1001 59.5069 11.0059 58.5138 11.5059 57.6275C12.0579 56.5579 13.0167 55.9765 13.8304 55.6393C14.6481 55.3059 15.3187 55.2079 15.3187 55.2079C15.3187 55.2079 15.5069 55.7951 15.5344 56.6216C15.5216 57.0471 15.5991 57.4893 15.551 57.9804C15.5148 58.4677 15.4001 58.9883 15.1677 59.5079C14.5334 61.1677 12.8275 62.302 12.2069 62.6138C12.2069 62.6138 12.3265 62.8491 12.5079 63.202C12.5981 63.3785 12.703 63.5853 12.8177 63.8049C12.9569 64.0118 13.105 64.2324 13.2491 64.451C13.8412 65.3265 14.4363 66.203 14.4363 66.203L14.0559 66.4942C14.0559 66.4942 13.1981 65.251 12.3736 63.9863C12.0285 63.3157 11.6824 62.6441 11.4256 62.1422C11.2942 61.8883 11.1863 61.6785 11.1108 61.5324C11.0412 61.3844 11.0148 61.2922 11.0148 61.2922C10.3756 61.5461 8.45496 62.2883 6.60496 61.0324C5.42358 60.2834 4.75495 58.8559 4.29711 57.6608C4.18534 57.3608 4.08831 57.0765 4.0089 56.8167C3.94909 56.553 3.91281 56.3147 3.88045 56.1167C3.81575 55.7167 3.79614 55.4716 3.79614 55.4716C3.79614 55.4716 4.46477 55.3324 5.35496 55.4285Z"
      fill="#006A44"/>
    <path
      d="M50.001 84.0569C31.2225 84.0569 15.9441 68.7794 15.9441 50C15.9441 31.2206 31.2225 15.9431 50.001 15.9431C68.7794 15.9431 84.0578 31.2206 84.0578 50C84.0578 68.7794 68.7794 84.0569 50.001 84.0569ZM50.001 16.9235C31.7617 16.9235 16.9245 31.7617 16.9245 50C16.9245 68.2382 31.7627 83.0765 50.001 83.0765C68.2392 83.0765 83.0774 68.2382 83.0774 50C83.0774 31.7617 68.2392 16.9235 50.001 16.9235Z"
      fill="#006A44"/>
    <path
      d="M23.2902 22.8568C23.4814 24.1245 23.297 25.6725 22.248 26.9588C20.5519 29.0392 18.0882 29.3343 15.9 27.55C13.6422 25.7088 13.6726 22.9068 14.7216 21.6216C15.5216 20.6402 16.4314 20.647 16.6216 20.6549L16.2559 19.9814L17.5127 18.4402L20.3 20.7127L18.8676 22.4696C18.2049 21.9784 17.351 21.8049 16.7823 22.501C16.2059 23.2078 16.7029 24.3814 17.7735 25.2539C18.7441 26.0461 20.0264 26.2578 20.7863 25.3255C21.4578 24.501 21.1235 23.149 21.0971 22.9804L23.2902 22.8568Z"
      fill="#006A44"/>
    <path
      d="M22.4304 14.2774L23.4392 15.6107L22.8128 16.0842L23.9667 17.6088L25.8853 16.1568L24.7314 14.6323L24.1353 15.0833L23.1274 13.7509L26.4088 11.2666L27.4176 12.5989L26.8314 13.0421L30.1579 17.4342L30.7431 16.9911L31.752 18.3235L28.4706 20.8078L27.4618 19.4754L28.0569 19.0244L26.902 17.4989L24.9833 18.9509L26.1382 20.4764L26.7647 20.0029L27.7735 21.3352L24.502 23.8117L23.4931 22.4784L24.0481 22.0578L20.7225 17.6656L20.1677 18.0862L19.1588 16.7529L22.4304 14.2774Z"
      fill="#006A44"/>
    <path
      d="M36.3127 16.403L35.6892 14.8668L36.8039 14.4148L36.2333 13.7178L33.8294 14.6932L33.9069 15.5903L34.8215 15.2197L35.4451 16.756L31.7157 18.2687L31.0921 16.7325L31.8902 16.4089L31.3843 10.6178L30.9039 10.8129L30.2902 9.30009L34.7941 7.47363L39.5725 13.2932L40.3931 12.9599L41.0166 14.4962L36.3127 16.403ZM35.2294 12.4864L33.4274 10.2668L33.6931 13.1089L35.2294 12.4864Z"
      fill="#006A44"/>
    <path
      d="M49.151 7.02269C49.0971 7.59916 48.9892 8.44721 48.9255 8.74525L48.0079 13.7668L45.3686 13.9854L43.5373 9.06486C43.4569 8.85505 43.2324 8.14917 43.1432 7.52074L43.0922 7.52466L43.5049 12.4992L44.2235 12.4394L44.3598 14.0688L40.9383 14.3521L40.803 12.7237L41.4843 12.6668L41.0216 7.09819L40.352 7.15407L40.2167 5.52564L45.002 5.12858L46.6687 9.74426L47.4892 4.92172L52.3 4.52271L52.4353 6.15113L51.7412 6.20897L52.202 11.7649L52.8961 11.707L53.0324 13.3482L49.0432 13.6786L48.9069 12.0374L49.6138 11.9786L49.2647 7.76093L49.203 7.01584L49.151 7.02269Z"
      fill="#006A44"/>
    <path
      d="M58.7862 5.72952C61.6735 6.27462 61.9862 7.62267 61.7185 9.0413C61.4087 10.6844 59.7597 11.2246 57.9803 10.8884L57.0343 10.7099L56.6705 12.6393L57.4293 12.7825L57.1195 14.4256L53.1117 13.6697L53.4215 12.0266L54.1186 12.158L55.1421 6.73149L54.445 6.60011L54.7529 4.96973L58.7862 5.72952ZM57.2882 9.36483L57.848 9.47071C58.5695 9.60699 59.1382 9.32757 59.2627 8.66777C59.4009 7.93346 59.0401 7.45306 58.3186 7.31678L57.696 7.19914L57.2882 9.36483Z"
      fill="#006A44"/>
    <path
      d="M67.743 8.45106L67.1588 10.0167L66.4235 9.74223L64.5009 14.8903L65.2372 15.1648L64.647 16.7422L60.7087 15.2726L61.297 13.6952L62.044 13.9746L63.9666 8.82557L63.2185 8.54616L63.8039 6.98047L67.743 8.45106Z"
      fill="#006A44"/>
    <path
      d="M67.147 12.762C68.5588 10.4189 71.0951 9.74436 73.3402 11.0983C75.997 12.7002 76.2725 15.0394 74.8009 17.4796C73.3235 19.9306 71.0559 20.6032 68.6039 19.1267C66.3382 17.76 65.5127 15.4738 67.147 12.762ZM72.0902 15.8453C72.8823 14.5326 73.1578 13.2649 72.3225 12.762C71.6676 12.3532 70.6363 13.0326 69.8255 14.3767C68.9696 15.7973 68.9363 17.0051 69.6313 17.4238C70.3147 17.8355 71.2804 17.1904 72.0902 15.8453Z"
      fill="#006A44"/>
    <path
      d="M83.943 22.5168L78.7754 27.557L76.8744 25.6079L78.0734 19.9275L75.7891 22.156L76.4695 22.854L75.3009 23.9942L72.5872 21.2109L73.7558 20.0707L74.2774 20.605L78.2754 16.706L77.7626 16.1795L78.9323 15.0393L81.4695 17.6413L80.3077 23.107L82.4656 21.003L81.8646 20.3864L83.0342 19.2462L85.695 21.9746L84.5264 23.1148L83.943 22.5168Z"
      fill="#006A44"/>
    <path
      d="M20.5255 83.7009C19.2019 83.7274 17.6402 83.3303 16.4647 82.0842C14.5618 80.0666 14.5902 77.5048 16.7118 75.5028C18.9 73.4391 21.7657 73.847 22.9412 75.0921C23.8392 76.044 23.7098 76.9744 23.6764 77.1675L24.4157 76.8842L25.8255 78.3774L23.1235 80.9273L21.5167 79.2244C22.1088 78.6127 22.401 77.7607 21.7637 77.0842C21.1176 76.3999 19.849 76.7509 18.8118 77.7293C17.8696 78.6175 17.4814 79.9019 18.3333 80.8058C19.0882 81.6048 20.5176 81.443 20.6931 81.4391L20.5255 83.7009Z"
      fill="#006A44"/>
    <path
      d="M29.2539 80.7147L28.3039 82.1568L27.6274 81.7107L26.5412 83.3598L28.6157 84.7274L29.702 83.0784L29.0578 82.6529L30.0078 81.2117L33.5568 83.55L32.6069 84.9921L31.9745 84.5745L28.8441 89.3255L29.4784 89.7421L28.5284 91.1843L24.9794 88.846L25.9294 87.4039L26.5735 87.8284L27.6598 86.1794L25.5853 84.8117L24.499 86.4608L25.1755 86.9068L24.2255 88.349L20.6873 86.0176L21.6373 84.5755L22.2382 84.9715L25.3676 80.2205L24.7676 79.8255L25.7176 78.3833L29.2539 80.7147Z"
      fill="#006A44"/>
    <path
      d="M35.1462 93.7617L35.6952 92.1392L36.8717 92.5362L36.8962 91.6068L34.356 90.748L33.8109 91.5029L34.7766 91.8293L34.2276 93.4519L30.2883 92.1205L30.8373 90.498L31.6795 90.7823L35.1903 85.9097L34.6834 85.7382L35.2236 84.1401L39.9805 85.749L39.7942 93.5264L40.6619 93.8196L40.1128 95.4421L35.1462 93.7617ZM36.9403 89.9647L37.0275 87.0127L35.3177 89.4156L36.9403 89.9647Z"
      fill="#006A44"/>
    <path
      d="M51.5461 89.4312C51.4236 90.0165 51.2138 90.8724 51.1138 91.1695L49.5853 96.2077L46.8559 96.1234L45.554 90.8675C45.4951 90.643 45.349 89.894 45.3294 89.239L45.2775 89.2381L45.1187 94.3832L45.8628 94.4057L45.8108 96.091L42.2716 95.9822L42.3236 94.2969L43.0295 94.3194L43.2079 88.5596L42.5157 88.5381L42.5687 86.8528L47.5177 87.0057L48.6853 91.9303L50.0912 87.0851L55.0667 87.2391L55.0138 88.9244L54.2961 88.9018L54.1177 94.6479L54.8363 94.6704L54.7834 96.3685L50.6559 96.2401L50.7088 94.543L51.4402 94.5655L51.5755 90.2038L51.5991 89.4332L51.5461 89.4312Z"
      fill="#006A44"/>
    <path
      d="M58.9147 85.9805C61.8686 85.2834 62.7294 86.4236 63.0715 87.8756C63.4686 89.556 62.1401 90.7569 60.3186 91.1873L59.3519 91.4158L59.8176 93.3893L60.5941 93.205L60.9911 94.8854L56.8911 95.853L56.495 94.1726L57.2078 94.004L55.897 88.454L55.1843 88.6226L54.7902 86.955L58.9147 85.9805ZM59.0264 90.0413L59.5999 89.905C60.3382 89.7305 60.7578 89.2295 60.598 88.554C60.4205 87.8021 59.8794 87.5011 59.1411 87.6756L58.5049 87.8256L59.0264 90.0413Z"
      fill="#006A44"/>
    <path
      d="M66.3206 83.3557L66.9892 84.9469L66.2412 85.2596L68.4353 90.493L69.1833 90.1802L69.8559 91.7841L65.8529 93.4626L65.1804 91.8587L65.9402 91.54L63.746 86.3077L62.9863 86.6253L62.3186 85.0341L66.3206 83.3557Z"
      fill="#006A44"/>
    <path
      d="M68.8137 87.3863C67.2696 85.0206 67.7804 82.3589 70.048 80.8785C72.7304 79.1265 75.0304 79.9206 76.6392 82.3853C78.2549 84.8598 77.8617 87.2716 75.3882 88.8882C73.099 90.3824 70.602 90.1236 68.8137 87.3863ZM73.902 84.1726C73.0363 82.8471 71.9814 82.0216 71.1382 82.5716C70.4627 82.9971 70.6324 84.2618 71.5196 85.6186C72.4569 87.053 73.5647 87.6255 74.2657 87.1677C74.9549 86.7187 74.7882 85.5304 73.902 84.1726Z"
      fill="#006A44"/>
    <path
      d="M81.3127 73.1952L86.7951 78.2422L84.8912 80.3099L78.9686 79.3883L81.3931 81.6197L82.0745 80.8785L83.3156 82.0207L80.597 84.9746L79.3558 83.8324L79.8784 83.2648L75.6362 79.3599L75.1235 79.9167L73.8823 78.7746L76.4235 76.0148L82.1235 76.9079L79.8343 74.8001L79.2323 75.455L77.9911 74.3118L80.6568 71.4167L81.898 72.5589L81.3127 73.1952Z"
      fill="#006A44"/>
    <path
      d="M50.001 100C22.4304 100 0 77.5706 0 50.001C0 22.4314 22.4304 0 50.001 0C77.5716 0 100.002 22.4304 100.002 50.001C100.002 77.5716 77.5716 100 50.001 100ZM50.001 1.96078C23.5108 1.96078 1.96078 23.5108 1.96078 50.001C1.96078 76.4892 23.5108 98.0392 50.001 98.0392C76.4912 98.0392 98.0412 76.4892 98.0412 50.001C98.0412 23.5108 76.4912 1.96078 50.001 1.96078Z"
      fill="#006A44"/>
    <path
      d="M64.8275 47.1168C63.6578 47.3021 62.5059 47.406 61.3892 47.406H61.3882C60.2441 47.406 59.1834 47.3089 58.2167 47.1217C58.2588 47.303 58.3128 47.4844 58.3892 47.6599L63.0079 58.2805L55.7598 65.1119H43.3608L38.0235 58.7599L39.4334 48.3305C39.6588 46.656 38.4843 45.1148 36.8098 44.8883C35.1422 44.6628 33.5941 45.8373 33.3667 47.5109L33.3098 47.9305L31.7765 59.2864C31.6618 60.1403 31.9128 61.005 32.4677 61.6648L40.3079 70.9932C40.3236 71.0099 40.3402 71.0197 40.3559 71.0364V80.3687C43.4 81.3383 46.6392 81.8648 50.001 81.8648C53.5941 81.8648 57.0461 81.2579 60.2726 80.1569V69.2687L68.7696 61.2599C69.7089 60.3756 69.9922 58.9972 69.4794 57.8119L64.8275 47.1168Z"
      fill="#006A44"/>
    <path
      d="M31.9941 49.4305L32.2735 47.3619C32.5509 45.306 34.3245 43.756 36.399 43.756C36.5833 43.756 36.7696 43.7688 36.9568 43.7933C38.7784 44.0394 40.1499 45.4413 40.4745 47.156C40.4784 47.155 40.4823 47.156 40.4862 47.155C41.1019 46.9894 41.4686 46.357 41.3019 45.7403L38.1676 34.0384C38.0009 33.4227 37.3696 33.056 36.7529 33.2217C36.1382 33.3874 35.7735 34.0188 35.9372 34.6354L30.0313 36.2188C29.8657 35.6031 29.2333 35.2374 28.6166 35.4021L27.6068 35.6737L31.3431 49.605L31.9941 49.4305Z"
      fill="#006A44"/>
    <path
      d="M49.2167 47.4382C45.1784 47.4382 41.9059 50.7127 41.9059 54.749C41.9059 58.7882 45.1784 62.0627 49.2167 62.0627C53.2559 62.0627 56.5284 58.7882 56.5284 54.749C56.5284 50.7127 53.2559 47.4382 49.2167 47.4382Z"
      fill="#006A44"/>
    <path
      d="M47.0098 35.5824L42.3352 36.8344C42.0617 36.3148 41.5245 35.9893 40.9411 35.9756C40.6186 35.4932 40.1264 35.155 39.5725 35.0167L42.0235 44.1648C42.4284 43.7697 42.698 43.2501 42.7372 42.6746C43.2333 42.3716 43.5362 41.8216 43.5147 41.2354L48.1892 39.9824C48.5245 40.6167 49.248 40.9628 49.9695 40.804C50.8911 41.4746 52.045 42.0138 53.3843 42.4089C54.3509 45.953 60.395 47.3118 67.1568 45.5001L67.7147 45.351L66.899 42.3099C67.3441 42.2089 67.7882 42.102 68.2333 41.9814L63.3705 23.8265C62.9225 23.9461 62.4843 24.0765 62.048 24.2099L61.2353 21.1697L60.6774 21.3177C53.9147 23.1314 49.3598 27.3285 50.2931 30.8824C49.3323 31.8932 48.6019 32.9373 48.1401 33.9785C47.4352 34.202 46.9823 34.8648 47.0098 35.5824ZM65.7696 42.552L66.299 44.5275C61.0519 45.7932 56.148 45.002 54.7872 42.7559C57.8735 43.3854 61.7019 43.3501 65.7696 42.552ZM60.4215 22.5903L60.95 24.5658C57.0284 25.9069 53.696 27.7912 51.3352 29.8805C51.395 27.255 55.2451 24.1167 60.4215 22.5903Z"
      fill="#006A44"/>
  </g>
  <defs>
    <clipPath id="clip0_311_485">
      <rect width="100" height="100" fill="white"/>
    </clipPath>
  </defs>
</svg>
