<svg width="101" height="100" viewBox="0 0 101 100" fill="none" xmlns="http://www.w3.org/2000/svg">
  <path
    d="M93.1063 10.1256C93.0921 9.80027 93.0752 9.47775 93.0459 9.17786C92.9903 8.56677 92.912 7.95662 92.7772 7.35025C92.5159 6.14033 92.1133 4.93607 91.4579 3.82611C90.8157 2.7171 89.9094 1.69957 88.7702 0.991345C87.6367 0.275579 86.273 -0.0629724 85.016 0.00964151C83.7523 0.0765972 82.6273 0.529257 81.7512 1.1196C80.8723 1.71749 80.2074 2.43797 79.7265 3.16506C79.5511 3.42816 79.4021 3.68938 79.2653 3.94871C79.2672 3.79028 79.2719 3.63563 79.2719 3.47531V1.44401H77.2406H50.4612H23.6817H21.6504V3.47531C21.6504 3.63563 21.6551 3.79028 21.657 3.94871C21.5203 3.68938 21.3713 3.42911 21.1959 3.16506C20.7149 2.43797 20.051 1.71749 19.1711 1.1196C18.2941 0.529257 17.17 0.0756542 15.9063 0.00964151C14.6493 -0.0629724 13.2856 0.275579 12.1521 0.991345C11.0129 1.69957 10.1067 2.7171 9.46446 3.82611C8.80905 4.93607 8.40637 6.14033 8.14514 7.35025C8.01029 7.95662 7.93107 8.56677 7.87638 9.17786C7.84714 9.47775 7.83016 9.80027 7.81602 10.1256L7.80471 10.5472L7.79999 10.7518L7.80187 11.0366C7.80376 11.3601 7.81413 11.6854 7.85091 12.007C8.1376 14.5173 9.2136 16.7222 10.597 18.5554C12.1908 20.6452 14.1108 22.3191 16.1034 23.7657C18.097 25.2171 20.1764 26.4496 22.2445 27.5681C24.3135 28.6856 26.3788 29.6814 28.3771 30.6075C30.3744 31.5364 32.3114 32.3851 34.124 33.1999C35.9337 34.0175 37.617 34.8172 39.0872 35.6056C39.8171 36.0045 40.4904 36.4109 41.0496 36.8268C41.6051 37.2361 42.053 37.6887 42.2115 37.9896C42.2331 38.0263 42.2473 38.0593 42.2614 38.0905L42.2794 38.1339C42.2794 38.1339 42.2831 38.1291 42.2888 38.1263C42.2944 38.1461 42.2982 38.2055 42.3029 38.2423L42.3048 38.2583C42.3058 38.2744 42.3039 38.1744 42.3048 38.2225L42.3058 38.2498L42.3076 38.3036L42.3152 38.5167C42.3171 38.7921 42.3076 39.0514 42.268 39.2589C42.2341 39.4711 42.1803 39.6427 42.1247 39.7417C42.0681 39.8436 42.0313 39.8926 41.9672 39.9398C41.8446 40.0388 41.524 40.0595 41.2316 40.0077C40.9336 39.9549 40.6573 39.8605 40.4385 39.7719C39.9934 39.5927 39.7746 39.4541 39.7869 39.4645C39.4417 39.224 38.9674 39.3079 38.726 39.6531C38.4855 39.9982 38.5694 40.4726 38.9146 40.714C38.9146 40.714 38.9844 40.7659 39.1183 40.8658C39.2494 40.9583 39.4418 41.0912 39.7105 41.2459C39.9802 41.3996 40.3254 41.575 40.7941 41.7259C41.0317 41.7976 41.3014 41.8617 41.623 41.8843C41.9417 41.906 42.3256 41.8843 42.732 41.7287C43.0159 41.624 43.2903 41.4411 43.5223 41.2185V46.5608C43.5223 48.3309 41.7248 49.24 41.706 49.2494L37.5547 51.2345L41.7013 52.9131C41.9267 53.0452 43.5223 54.0863 43.5223 57.1521V63.0942C43.5223 64.7634 40.3754 69.588 35.5112 69.588C34.8077 69.588 34.1372 69.8727 33.6241 70.3895C32.8046 71.2156 32.4736 72.6368 32.3501 73.8863C30.6696 74.9821 30.6696 77.5151 30.6696 78.626V85.6111C28.9561 86.8286 26.6655 89.9557 26.6655 97.9687C26.6655 99.0928 27.5783 100.004 28.7024 100L50.4668 99.9359L72.2199 100C73.344 100.004 74.2578 99.0928 74.2578 97.9687C74.2578 89.9557 71.9671 86.8286 70.2536 85.6111V78.626C70.2536 77.5151 70.2536 74.9812 68.5732 73.8863C68.4496 72.6368 68.1186 71.2156 67.2991 70.3895C66.7861 69.8727 66.1165 69.588 65.4121 69.588C60.5479 69.588 57.401 64.7634 57.401 63.0942V57.1521C57.401 54.0863 58.9966 53.0442 59.222 52.9131L63.4647 51.1921L59.2163 49.2485C59.1597 49.2193 57.4 48.3102 57.4 46.5599V41.2176C57.632 41.4392 57.9064 41.6222 58.1903 41.7278C58.5967 41.8834 58.9815 41.9051 59.2993 41.8834C59.6209 41.8607 59.8906 41.7957 60.1282 41.7249C60.596 41.5741 60.9421 41.3986 61.2118 41.2449C61.4806 41.0903 61.6729 40.9573 61.804 40.8649C61.9389 40.7649 62.0077 40.7131 62.0077 40.7131C62.3529 40.4726 62.4368 39.9973 62.1963 39.6521C61.9558 39.307 61.4806 39.2231 61.1354 39.4635C61.1467 39.4532 60.9289 39.5918 60.4838 39.771C60.264 39.8596 59.9887 39.9539 59.6907 40.0067C59.3983 40.0586 59.0777 40.0378 58.9551 39.9388C58.891 39.8917 58.8542 39.8426 58.7976 39.7408C58.742 39.6427 58.6873 39.4701 58.6533 39.258C58.6137 39.0505 58.6034 38.7902 58.6062 38.5158L58.6137 38.3027L58.6156 38.2489L58.6166 38.2216C58.6175 38.1725 58.6156 38.2734 58.6166 38.2574L58.6184 38.2414C58.6232 38.2036 58.6269 38.1452 58.6326 38.1254C58.6382 38.1272 58.642 38.1329 58.642 38.1329L58.6599 38.0895C58.675 38.0584 58.6892 38.0254 58.7108 37.9886C58.8693 37.6887 59.3172 37.2351 59.8727 36.8259C60.4328 36.41 61.1052 36.0026 61.8351 35.6046C63.3053 34.8153 64.9887 34.0165 66.7983 33.1989C68.6109 32.3841 70.5479 31.5354 72.5452 30.6065C74.5435 29.6805 76.6088 28.6846 78.6778 27.5671C80.7468 26.4487 82.8253 25.2161 84.8189 23.7648C86.8115 22.3182 88.7306 20.6452 90.3253 18.5545C91.7087 16.7203 92.7847 14.5155 93.0714 12.0042C93.1082 11.6835 93.1176 11.3591 93.1195 11.0356L93.1214 10.7508L93.1167 10.5462L93.1063 10.1256ZM33.3459 31.7957C32.0097 31.1667 30.0774 30.317 27.7886 29.225C26.6447 28.6771 25.4065 28.0801 24.1164 27.4049C22.8264 26.7306 21.4693 26.0064 20.1057 25.1812C17.3813 23.5413 14.5342 21.593 12.1898 19.0354C11.0261 17.7576 10.0208 16.2978 9.36449 14.6871C9.04575 13.8808 8.80433 13.0415 8.69588 12.1918C8.57706 11.3393 8.60629 10.4887 8.66287 9.69748C8.78735 8.05754 9.16173 6.50152 9.83883 5.14543C10.4924 3.78557 11.4599 2.65958 12.5614 1.92401C13.1093 1.55339 13.6874 1.27803 14.2617 1.09696C14.8388 0.922502 15.4113 0.850829 15.9441 0.852715C17.0144 0.854601 17.9188 1.17524 18.561 1.56283C19.2108 1.94947 19.621 2.38327 19.8756 2.68693C20.1246 2.99719 20.2424 3.1726 20.2424 3.1726C20.2424 3.1726 20.1076 3.0085 19.8332 2.72653C19.5559 2.44834 19.107 2.0749 18.4629 1.74389C17.8226 1.41666 16.9465 1.17902 15.9563 1.2488C14.969 1.3101 13.8769 1.68731 12.9113 2.41816C11.9465 3.14619 11.1063 4.20334 10.5461 5.47927C9.97557 6.74671 9.66155 8.22634 9.57573 9.7418C9.53801 10.5292 9.52952 11.2959 9.65118 12.057C9.7634 12.8218 9.98029 13.58 10.2783 14.3146C10.8837 15.7857 11.84 17.1362 12.9386 18.3574C14.042 19.5805 15.2943 20.6801 16.5966 21.6769C17.8962 22.6774 19.2362 23.5931 20.5678 24.4287C21.9012 25.2614 23.2092 26.0432 24.471 26.7504C25.7328 27.4568 26.9314 28.1178 28.0461 28.7167C30.2754 29.92 32.1332 30.9224 33.4327 31.6241C34.7285 32.337 35.4536 32.7708 35.4536 32.7708C35.4536 32.7708 34.6879 32.4162 33.3459 31.7957ZM35.6319 30.1935C33.8627 29.2127 31.9965 28.2216 30.0849 27.1946C28.1753 26.1648 26.2232 25.0916 24.3013 23.9449C22.3813 22.7963 20.4876 21.5713 18.7439 20.2331C17.0135 18.8883 15.4084 17.4323 14.2513 15.8376C13.0763 14.2523 12.4124 12.5747 12.3945 10.9451C12.3624 9.07036 12.6632 7.23897 13.3102 5.95833C13.6346 5.31612 14.0354 4.81631 14.4663 4.47493C14.9039 4.14769 15.3641 3.94966 15.8564 3.91193C16.8418 3.80254 17.916 4.34762 18.6836 5.13789C19.4635 5.93004 19.9774 6.90514 20.3151 7.75011C20.6621 8.60073 20.8233 9.34101 20.9431 9.84459C21.045 10.3576 21.0997 10.632 21.0997 10.632L21.1072 10.6735C21.1694 10.9838 21.4203 11.2356 21.7513 11.2827C22.0493 11.3261 22.3294 11.1903 22.4906 10.9593C24.272 18.0509 28.9363 23.0471 36.8654 30.8809C36.4589 30.6537 36.0478 30.4245 35.6319 30.1935ZM53.2214 35.9375L46.176 36.6288L52.8565 37.2842C53.3365 38.7855 54.2795 42.8915 53.2459 49.7945L57.2293 50.3104L53.1375 50.4858L43.7043 51.1148L53.0885 51.74C53.245 53.5827 53.6458 59.1381 53.1799 63.2366L45.8987 63.7996L53.0272 64.3512C52.5462 67.3218 53.6477 69.0721 55.0283 70.2735L61.3334 70.7988L55.1518 70.8714L39.4427 71.3543L57.3963 71.9059C57.5113 71.9767 57.6245 72.0474 57.731 72.1162C58.6203 72.6896 59.1258 73.4138 59.4144 74.0363L67.3066 74.5182L49.3106 74.9661L34.9765 75.398L60.1245 76.1553C60.6592 77.5906 61.5192 80.9827 60.116 85.5064L67.3076 85.9449L58.8787 86.1552L32.9452 86.8616L60.281 87.6056C61.0279 89.6068 62.1916 93.9155 60.3451 97.9347L50.463 97.9055L30.7913 97.964C30.7573 97.7112 30.7196 97.3849 30.6819 96.9983C30.597 96.0741 30.5395 94.8284 30.6064 93.5845C30.6243 93.2742 30.6545 92.964 30.679 92.6575C30.7215 92.3548 30.7535 92.053 30.8026 91.7644C30.861 91.4787 30.9044 91.1967 30.9695 90.9364C31.0393 90.6762 31.1062 90.431 31.1666 90.2037C31.2458 89.9821 31.3175 89.7784 31.3816 89.5973C31.4401 89.4125 31.5278 89.2701 31.5806 89.1418C31.6985 88.891 31.7664 88.7467 31.7664 88.7467C31.7664 88.7467 31.6777 88.8787 31.524 89.1098C31.4514 89.2286 31.3411 89.3616 31.2552 89.536C31.1628 89.7086 31.0591 89.9029 30.9459 90.1151C30.8488 90.3357 30.7441 90.5753 30.6328 90.828C30.5263 91.0836 30.4395 91.3617 30.3348 91.6465C30.2405 91.9342 30.1604 92.236 30.0698 92.5424C29.9972 92.8508 29.9171 93.1658 29.8511 93.4827C29.5879 94.7501 29.4531 96.043 29.3965 97.0162C29.3777 97.384 29.3645 97.7056 29.3597 97.9659L28.6996 97.9677C28.6996 87.5698 32.7037 86.8597 32.7037 86.8597C32.7037 86.8597 32.7037 81.0147 32.7037 78.6251C32.7037 76.2354 33.0913 75.3961 34.3182 75.3961C34.3182 75.3961 34.2862 71.6183 35.5131 71.6183C41.5193 71.6183 45.5555 65.8054 45.5555 63.0932C45.5555 60.3811 45.5555 61.8333 45.5555 57.1512C45.5555 52.469 42.5849 51.0799 42.5849 51.0799C42.5849 51.0799 45.5555 49.6587 45.5555 46.559C45.5555 43.4592 45.5555 36.6127 45.5555 36.6127C29.8614 20.9187 23.6845 16.6486 23.6845 3.47342H50.464H66.6833C66.6833 3.75256 66.6833 4.17505 66.6833 4.73993L25.3518 5.35855L66.6833 5.97719C66.6833 7.18994 66.6833 8.79217 66.6833 10.8112C66.6833 11.0602 66.6682 11.3138 66.6522 11.5685L31.2383 12.1654L66.5277 12.7605C65.2018 21.5468 55.7261 33.0301 53.2214 35.9375ZM60.3706 31.7334C59.6548 32.3936 59.2465 32.7717 59.2465 32.7717C59.2465 32.7717 59.6303 32.3691 60.3018 31.6637C60.9789 30.9639 61.9455 29.9643 63.1063 28.7657C63.6873 28.1669 64.3163 27.519 64.9821 26.8334C65.6412 26.1431 66.3372 25.4151 67.0567 24.6625C67.7697 23.9043 68.5043 23.1188 69.2267 22.3012C69.5841 21.8891 69.9443 21.4741 70.3065 21.0573C70.6591 20.6339 70.9986 20.1963 71.3457 19.7663C71.705 19.3448 72.0199 18.8912 72.3481 18.4498L72.8357 17.7859L73.2799 17.1003C73.8881 16.1997 74.3917 15.2567 74.8519 14.3325C75.0622 13.861 75.2687 13.397 75.4715 12.9434C75.6393 12.4757 75.8034 12.0173 75.9637 11.5722C76.1325 11.129 76.2174 10.6726 76.3428 10.2444C76.4004 10.0285 76.4569 9.81631 76.5126 9.60789C76.5635 9.39854 76.5927 9.18823 76.6323 8.98454C76.7068 8.5762 76.7795 8.18485 76.8474 7.81329C76.9153 7.44079 76.9398 7.08148 76.985 6.7467C77.068 6.0762 77.1378 5.48963 77.1491 5.00303C77.2076 4.0317 77.2416 3.47626 77.2416 3.47626C77.2416 3.47626 77.2444 4.03265 77.2481 5.00681C77.2614 5.49531 77.2217 6.08565 77.1737 6.76463C77.1463 7.10318 77.1388 7.46719 77.0907 7.84535C77.035 8.22351 76.9756 8.62052 76.9143 9.03546C76.8804 9.24199 76.8577 9.45606 76.8134 9.67013C76.7634 9.88326 76.7134 10.0992 76.6625 10.3199C76.5494 10.7584 76.4768 11.2243 76.3202 11.6807C76.1712 12.1399 76.0184 12.6115 75.8628 13.0934C75.6752 13.5639 75.4602 14.0355 75.2536 14.5202C74.7953 15.466 74.2898 16.4336 73.6825 17.3559C73.5345 17.5888 73.3864 17.8236 73.2383 18.0585L72.7508 18.7365C72.4226 19.1873 72.1077 19.6522 71.7474 20.0803C71.3919 20.5122 71.0439 20.9507 70.6837 21.3742C70.3149 21.7901 69.9472 22.205 69.5831 22.6162C68.8476 23.4319 68.1007 24.2127 67.3774 24.9671C65.9213 26.4656 64.5096 27.8085 63.31 28.9685C62.1039 30.1246 61.0788 31.0658 60.3706 31.7334ZM87.3122 17.0419C87.1548 17.3219 86.9152 17.6247 86.6559 17.9868C86.4032 18.3565 86.0684 18.729 85.7119 19.1477C85.3526 19.5626 84.9349 19.986 84.486 20.4264C84.0248 20.8517 83.5467 21.3148 83.0092 21.7382C82.4848 22.1795 81.9247 22.6114 81.3447 23.0358C80.7553 23.4441 80.164 23.8723 79.5492 24.2618C78.9362 24.656 78.3119 25.0275 77.6961 25.3925C77.0803 25.7565 76.4569 26.0846 75.8581 26.4062C74.6539 27.0399 73.5109 27.5897 72.516 28.0282C71.5258 28.4743 70.6846 28.8147 70.0943 29.0448C69.503 29.274 69.1607 29.3966 69.1607 29.3966C69.1607 29.3966 69.4653 29.1976 70.0047 28.8647C70.546 28.5328 71.3174 28.0631 72.2491 27.5124C73.1771 26.9607 74.2606 26.3176 75.4206 25.6282C75.9949 25.2793 76.589 24.9181 77.1935 24.5513C77.7942 24.1816 78.4034 23.8053 78.9994 23.4083C79.6095 23.033 80.1952 22.6246 80.7798 22.2342C81.3466 21.8202 81.9303 21.4458 82.4575 21.0347C82.9988 20.6405 83.5005 20.2359 83.9852 19.8587C84.4501 19.4617 84.9028 19.0967 85.2989 18.7374C85.6846 18.3678 86.0665 18.0518 86.3626 17.7322C86.6616 17.4153 86.9539 17.1616 87.1529 16.9183C87.5791 16.4496 87.8224 16.1818 87.8224 16.1818C87.8224 16.1818 87.6423 16.4949 87.3122 17.0419ZM86.6719 15.8376C85.5148 17.4323 83.9098 18.8883 82.1793 20.2331C80.4366 21.5722 78.542 22.7972 76.622 23.9449C74.6991 25.0916 72.748 26.1648 70.8383 27.1946C68.9268 28.2216 67.0596 29.2127 65.2914 30.1935C64.8745 30.4245 64.4643 30.6527 64.0579 30.8819C71.224 23.8016 75.7233 19.0383 77.8375 12.9519H77.8394V12.9462C78.0639 12.2984 78.2638 11.6354 78.4345 10.9527C78.5439 11.112 78.7061 11.2365 78.9107 11.2771C79.3276 11.36 79.7321 11.0894 79.8151 10.6726L79.8227 10.633C79.8227 10.633 79.8773 10.3595 79.9792 9.84554C80.099 9.34196 80.2602 8.60166 80.6073 7.75104C80.9449 6.90608 81.4588 5.93099 82.2387 5.13884C83.0063 4.34857 84.0805 3.80349 85.0659 3.91288C85.5592 3.94966 86.0184 4.14864 86.456 4.47588C86.8869 4.81726 87.2877 5.31707 87.6121 5.95928C88.2591 7.24086 88.5599 9.0713 88.5278 10.9461C88.5109 12.5747 87.847 14.2523 86.6719 15.8376ZM91.4541 7.0051C91.3541 6.79952 91.2664 6.52698 91.1099 6.25538C90.9524 5.98379 90.777 5.68296 90.6016 5.3529C90.38 5.0483 90.1395 4.71823 89.8858 4.36931C89.7396 4.21465 89.5888 4.05528 89.435 3.89213C89.3596 3.81009 89.2841 3.72804 89.2068 3.64411L88.9437 3.42627C88.7645 3.28293 88.592 3.12638 88.4034 2.9887C88.2006 2.87082 87.9988 2.75011 87.7989 2.62186C87.6065 2.47758 87.3679 2.42382 87.1548 2.3182L86.8257 2.17863L86.4786 2.0947C86.025 1.94193 85.5459 1.91365 85.081 1.88913C84.8481 1.90893 84.6171 1.92118 84.387 1.92778C84.1606 1.96267 83.9409 2.02303 83.7212 2.06641C83.4939 2.09376 83.3034 2.21446 83.0959 2.28142C82.8913 2.35686 82.6867 2.42571 82.515 2.54737C82.334 2.65393 82.1576 2.75861 81.9869 2.85857C81.8266 2.97456 81.6823 3.10376 81.5361 3.21975C81.2297 3.44136 81.0118 3.71013 80.7996 3.9374C80.6959 4.05245 80.5931 4.15808 80.5063 4.26275C80.429 4.37403 80.3583 4.47682 80.2942 4.56924C80.0348 4.94079 79.8726 5.15675 79.8726 5.15675C79.8726 5.15675 79.9537 4.91062 80.1169 4.47211C80.1584 4.36177 80.2055 4.24106 80.2555 4.10809C80.314 3.97984 80.4017 3.85442 80.4837 3.71202C80.6535 3.43099 80.8307 3.09526 81.1259 2.80575C81.2645 2.65392 81.4032 2.48606 81.5616 2.32857C81.7398 2.19183 81.9237 2.04944 82.1133 1.90421C82.2972 1.74483 82.5188 1.63638 82.7451 1.52133C82.9733 1.41005 83.1987 1.26955 83.4581 1.21202C83.7127 1.14035 83.9711 1.05359 84.238 0.994179C84.5095 0.96023 84.7859 0.930999 85.0659 0.909309C85.6223 0.920626 86.1985 0.947968 86.7427 1.11583L87.1529 1.22805L87.5395 1.39874C87.7894 1.52605 88.0658 1.60527 88.2874 1.77313C88.5203 1.92308 88.7466 2.07867 88.9664 2.23333C89.1729 2.4059 89.3586 2.5964 89.5501 2.77275L89.8292 3.04057C89.9066 3.14148 89.9829 3.24143 90.0593 3.34045C90.2074 3.53943 90.3526 3.7337 90.4941 3.92231C90.7355 4.32499 90.9345 4.72201 91.1146 5.08319C91.257 5.46889 91.3739 5.82348 91.4758 6.1328C91.5833 6.44023 91.5965 6.72031 91.6455 6.9457C91.721 7.40024 91.7559 7.6624 91.7559 7.6624C91.7559 7.6624 91.6408 7.42569 91.4541 7.0051Z"
    fill="#006A44"/>
  <path
    d="M33.9929 78.2931C33.9023 77.4632 33.775 76.9097 33.775 76.9097C33.775 76.9097 33.6477 77.4632 33.5572 78.2931C33.5081 78.7081 33.4676 79.1928 33.4402 79.7114C33.4082 80.2301 33.4025 80.7837 33.394 81.3372C33.4016 81.8908 33.4072 82.4444 33.4393 82.963C33.4657 83.4817 33.5072 83.9664 33.5562 84.3814C33.6468 85.2112 33.775 85.7648 33.775 85.7648C33.775 85.7648 33.9033 85.2112 33.9938 84.3814C34.0429 83.9664 34.0843 83.4817 34.1107 82.963C34.1428 82.4444 34.1485 81.8908 34.156 81.3372C34.1475 80.7837 34.1419 80.2301 34.1098 79.7114C34.0824 79.1928 34.0419 78.7081 33.9929 78.2931Z"
    fill="#006A44"/>
  <path
    d="M40.8931 29.9953C40.1217 29.1711 39.222 28.2092 38.2582 27.1794C37.7697 26.6711 37.2822 26.1298 36.7767 25.5895C36.2703 25.05 35.7582 24.5003 35.2575 23.941C34.7454 23.3912 34.2371 22.8386 33.7477 22.2841C33.2535 21.7343 32.765 21.1958 32.302 20.6649C31.3703 19.6097 30.5149 18.6129 29.7935 17.7462C29.0721 16.8805 28.478 16.1515 28.0838 15.6234C27.6839 15.1001 27.468 14.7898 27.468 14.7898C27.468 14.7898 27.6264 15.134 27.9612 15.7055C28.3016 16.2722 28.7892 17.0861 29.4474 18.0103C29.7681 18.4799 30.1368 18.9703 30.5253 19.4918C30.9261 20.002 31.3335 20.5555 31.7909 21.0968C32.682 22.1992 33.677 23.3384 34.6954 24.4541C35.7215 25.5631 36.7616 26.6589 37.7763 27.6462C38.7778 28.6468 39.7473 29.5446 40.5847 30.3056C41.4155 31.0742 42.152 31.6683 42.6462 32.1049C43.1488 32.5331 43.4431 32.7698 43.4431 32.7698C43.4431 32.7698 43.195 32.484 42.749 31.9974C42.302 31.5155 41.6617 30.8243 40.8931 29.9953Z"
    fill="#006A44"/>
  <path
    d="M52.4085 60.8347C52.4246 61.2722 52.4387 61.6362 52.4482 61.8918C52.4566 62.1474 52.4689 62.2945 52.4689 62.2945C52.4689 62.2945 52.5019 62.1511 52.5462 61.8984C52.5877 61.6457 52.6528 61.2835 52.6999 60.8469C52.8008 59.9737 52.8612 58.8033 52.8414 57.634C52.8225 56.4646 52.7301 55.299 52.6179 54.4286C52.5038 53.5582 52.3821 52.9829 52.3821 52.9829C52.3821 52.9829 52.3699 53.13 52.3604 53.3856C52.3557 53.6412 52.3322 54.007 52.3274 54.4437C52.3105 55.3188 52.318 56.4806 52.3331 57.6415C52.3567 58.8024 52.3802 59.9623 52.4085 60.8347Z"
    fill="#006A44"/>
  <path
    d="M52.4085 47.0683C52.4246 47.5059 52.4387 47.8699 52.4482 48.1254C52.4566 48.381 52.4689 48.5281 52.4689 48.5281C52.4689 48.5281 52.5019 48.3848 52.5462 48.132C52.5877 47.8793 52.6528 47.5172 52.6999 47.0806C52.8008 46.2073 52.8612 45.037 52.8414 43.8676C52.8225 42.6983 52.7301 41.5327 52.6179 40.6622C52.5038 39.7918 52.3821 39.2166 52.3821 39.2166C52.3821 39.2166 52.3699 39.3637 52.3604 39.6192C52.3557 39.8748 52.3322 40.2407 52.3274 40.6773C52.3105 41.5515 52.318 42.7143 52.3331 43.8752C52.3567 45.036 52.3802 46.195 52.4085 47.0683Z"
    fill="#006A44"/>
  <path
    d="M59.7303 89.6304C59.8029 90.0633 59.8746 90.5687 59.9396 91.1091C59.9924 91.6514 60.0471 92.2276 60.0585 92.8066C60.0632 93.0951 60.0745 93.3847 60.0613 93.6685C60.0519 93.9524 60.0481 94.2324 60.0226 94.5031C59.9877 95.0444 59.9151 95.5461 59.8491 95.979C59.7661 96.4071 59.7124 96.772 59.6388 97.0191C59.5785 97.27 59.5492 97.4171 59.5492 97.4171C59.5492 97.4171 59.6199 97.287 59.7322 97.0521C59.8463 96.8183 59.9915 96.4741 60.132 96.0478C60.264 95.6197 60.3942 95.1085 60.4668 94.5512C60.5064 94.2721 60.5403 93.9835 60.5507 93.6883C60.5696 93.3931 60.5649 93.0933 60.5649 92.7934C60.5488 92.4935 60.5347 92.1945 60.5007 91.9022C60.479 91.608 60.4206 91.3232 60.38 91.0459C60.2763 90.4952 60.149 89.9888 60.0113 89.5635C59.8793 89.1372 59.7312 88.7939 59.636 88.5535C59.5322 88.3158 59.4662 88.1829 59.4662 88.1829C59.4662 88.1829 59.4898 88.33 59.5426 88.5837C59.5964 88.8345 59.6548 89.1976 59.7303 89.6304Z"
    fill="#006A44"/>
  <path
    d="M59.4266 83.6364C59.3766 84.023 59.3521 84.3521 59.3125 84.5775C59.2823 84.8057 59.2719 84.9387 59.2719 84.9387C59.2719 84.9387 59.3257 84.818 59.4087 84.602C59.4907 84.3861 59.6067 84.0749 59.7133 83.692C59.8208 83.3091 59.9208 82.8555 59.9953 82.3623C60.0679 81.8691 60.1112 81.3372 60.1179 80.8054C60.1207 80.2725 60.0905 79.7397 60.0207 79.2446C59.9575 78.7495 59.8557 78.294 59.7472 77.9102C59.5275 77.1416 59.2842 76.6692 59.2842 76.6692C59.2842 76.6692 59.304 76.8003 59.3389 77.0285C59.3766 77.2548 59.4172 77.5792 59.4624 77.9668C59.5058 78.3544 59.5511 78.8042 59.5775 79.2871C59.5982 79.5275 59.5945 79.7784 59.6086 80.0311C59.6124 80.2848 59.6199 80.5422 59.6105 80.7997C59.6152 81.3146 59.5784 81.8295 59.5511 82.3123C59.5124 82.7961 59.4681 83.2478 59.4266 83.6364Z"
    fill="#006A44"/>
</svg>
