<svg width="164" height="164" viewBox="0 0 164 164" fill="none" xmlns="http://www.w3.org/2000/svg">
  <rect x="0.5" y="0.5" width="163" height="163" rx="15.5" fill="white"/>
  <rect x="0.5" y="0.5" width="163" height="163" rx="15.5" stroke="#DFDFDF"/>
  <g clip-path="url(#clip0_468_2348)">
    <path d="M16 28.2493C16 38.2549 16.0528 40.5517 16.3696 40.7893C16.6072 41.0005 20.1184 41.0533 28.8304 41.0269L40.948 40.9477L41.0272 28.8301C41.0536 20.0125 41.0008 16.6333 40.7896 16.3429C40.5256 16.0525 38.3608 15.9997 28.2496 15.9997L16 16.0261V28.2493ZM37.0672 19.9069C37.3048 20.0917 37.384 22.0189 37.3312 28.6981L37.252 37.2517L28.6984 37.3309C22.0192 37.3837 20.092 37.3045 19.9072 37.0669C19.564 36.4861 19.6432 20.3821 20.0128 20.0125C20.3824 19.6429 36.4864 19.5637 37.0672 19.9069Z" fill="black"/>
    <path d="M23.128 28.276C23.128 32.2624 23.2072 33.424 23.4976 33.6616C23.7352 33.8728 25.3984 33.952 28.8304 33.8992L33.82 33.82L33.8992 28.8304C33.952 25.2928 33.8728 23.7352 33.6616 23.4712C33.3976 23.1808 32.368 23.1016 28.2232 23.1544L23.128 23.1808V28.276Z" fill="black"/>
    <path d="M44.9344 16.4228C44.4064 16.9508 44.38 18.9836 44.8816 19.406C45.0928 19.5908 45.8584 19.6964 46.6768 19.6436L48.076 19.5644L48.1552 18.1652C48.208 17.3468 48.1024 16.5812 47.9176 16.37C47.4952 15.8684 45.4624 15.8948 44.9344 16.4228Z" fill="black"/>
    <path d="M59.1904 16.4224C58.8472 16.7656 58.768 17.6104 58.768 21.676C58.768 25.8208 58.7152 26.5336 58.3456 26.6656C58.108 26.7448 55.864 26.824 53.356 26.824C48.1816 26.824 48.208 26.824 48.208 24.7912C48.208 23.4712 47.8384 23.128 46.4656 23.128C45.0136 23.128 44.512 23.6296 44.512 25.0816C44.512 26.5072 44.8552 26.824 46.36 26.824C47.8384 26.824 48.208 27.1408 48.208 28.4344C48.208 30.0448 48.0232 30.256 46.624 30.256C45.0136 30.256 44.512 30.7048 44.512 32.2096C44.512 33.688 44.908 34.0048 46.6768 33.8992L48.076 33.82L48.208 32.4472C48.2872 31.6816 48.472 30.9424 48.6304 30.784C48.7888 30.6256 49.5016 30.52 50.2144 30.5728L51.508 30.652V35.8V40.948L50.188 41.0272C48.6304 41.1328 48.208 40.7368 48.208 39.1C48.208 37.7272 47.8648 37.384 46.4656 37.384C44.7232 37.384 44.512 37.7536 44.512 40.9744C44.512 44.4592 44.6704 44.776 46.3072 44.776C47.02 44.776 47.7064 44.908 47.8912 45.0928C48.3136 45.5152 48.3136 47.4688 47.8912 47.8912C47.68 48.1024 46.5712 48.208 44.5912 48.208C41.2384 48.208 41.08 48.1024 41.08 46.1752C41.08 45.5944 40.948 45.0136 40.7632 44.8288C40.3672 44.4328 35.1928 44.4064 34.4536 44.776C33.9784 45.04 33.952 45.3832 33.952 49.8712C33.952 53.2768 33.8464 54.808 33.6352 55.0192C33.4504 55.204 32.764 55.336 32.0776 55.336C31.3912 55.336 30.7312 55.4944 30.5728 55.6792C30.4144 55.864 30.256 56.6032 30.2032 57.316L30.124 58.636L28.804 58.768C27.0088 58.9528 26.824 59.1376 26.824 60.5896C26.824 62.1472 26.5072 62.464 24.9496 62.464C24.2632 62.464 23.6032 62.6224 23.4448 62.8072C23.2864 62.992 23.128 63.7312 23.0752 64.444L22.996 65.764L21.676 65.896C20.9632 65.9752 20.1976 66.1336 20.0392 66.2392C19.7752 66.3976 19.696 67.7176 19.696 71.2816C19.696 74.6608 19.5904 76.192 19.3792 76.4032C19.1944 76.588 18.508 76.72 17.8216 76.72C17.1088 76.72 16.4752 76.8784 16.2904 77.0896C15.8944 77.5384 15.9208 86.7256 16.3168 87.2272C16.4752 87.3856 17.1352 87.544 17.8216 87.544C19.3792 87.544 19.696 87.8608 19.696 89.4448C19.696 90.8704 20.092 91.24 21.6496 91.24C22.864 91.24 23.392 90.6592 23.392 89.3128C23.392 87.7552 23.128 87.4912 21.5176 87.3328C19.9072 87.2008 19.696 86.9896 19.696 85.696C19.696 84.112 19.8016 84.0856 23.4184 84.1648L26.692 84.244L26.7712 85.7488C26.8768 87.5968 26.8504 87.5968 30.916 87.4912L33.82 87.412L33.8992 84.2704C33.9256 82.4224 34.084 80.9704 34.2688 80.7592C34.4536 80.5216 35.008 80.416 35.9056 80.4688L37.252 80.548L37.384 82.0528C37.4632 82.8712 37.5952 83.6104 37.7008 83.716C38.044 84.0592 39.9712 84.1648 40.5256 83.8744C40.948 83.6368 41.08 83.32 41.08 82.5016C41.08 80.812 41.4232 80.416 42.9016 80.416C43.6144 80.416 44.3008 80.2576 44.4592 80.0728C44.6176 79.888 44.776 79.1488 44.8288 78.436L44.908 77.116H48.208H51.508V78.568V80.02L50.188 80.152C48.3928 80.3368 48.208 80.5216 48.208 81.9736C48.208 82.66 48.076 83.3464 47.8912 83.5312C47.7064 83.716 47.02 83.848 46.3336 83.848C45.6208 83.848 44.9872 83.98 44.8552 84.1648C44.7496 84.3496 44.5912 85.9336 44.512 87.676L44.38 90.844L43.06 90.9232C41.476 91.0288 41.08 90.6328 41.08 88.9432C41.08 87.5968 40.4728 87.148 38.8888 87.3592C37.648 87.5176 37.384 87.8344 37.384 89.26C37.384 90.7648 37.648 91.0288 39.3904 91.2136L40.948 91.372L41.0272 92.6656C41.08 93.3784 40.9744 94.0912 40.816 94.2496C40.6576 94.408 39.1264 94.5928 37.3048 94.672L34.084 94.804L34.0048 96.124C33.8992 97.8928 33.6352 98.1568 31.9984 98.0512L30.652 97.972L30.5728 94.8304C30.5464 93.0616 30.388 91.504 30.2032 91.3192C29.86 90.8968 27.5632 90.8704 27.1408 91.2928C26.9032 91.5304 26.824 93.4048 26.824 98.1304C26.824 105.496 26.8768 105.311 24.7912 105.179L23.524 105.1L23.4448 104.044C23.3128 101.879 23.2336 101.8 21.8608 101.8C19.8808 101.8 19.8544 101.721 19.696 98.0512L19.564 94.804L18.0064 94.7248C16.924 94.672 16.3696 94.7512 16.2376 94.9888C16.1056 95.1736 16 100.638 16 107.133C16 120.386 15.8944 119.752 17.9536 119.752C18.5608 119.752 19.1944 119.62 19.3792 119.435C19.5904 119.224 19.696 117.693 19.696 114.314C19.696 108.849 19.696 108.849 21.7288 108.981L22.996 109.06L23.0752 112.202C23.1016 113.97 23.26 115.528 23.4448 115.713C23.6032 115.898 24.2632 116.056 24.9496 116.056C26.5072 116.056 26.824 116.373 26.824 117.93C26.824 118.643 26.9824 119.277 27.1672 119.462C27.4048 119.646 30.2824 119.778 35.9584 119.805L44.38 119.884L44.512 121.204C44.6968 122.999 44.8816 123.184 46.3336 123.184C47.8384 123.184 48.208 123.501 48.208 124.794C48.208 126.458 48.0496 126.616 46.4656 126.616C44.8816 126.616 44.512 126.986 44.512 128.464C44.512 129.916 44.908 130.312 46.3072 130.312C47.8912 130.312 48.208 130.629 48.208 132.186C48.208 132.873 48.3664 133.533 48.5512 133.691C48.736 133.876 50.2936 134.034 52.0624 134.061L55.204 134.14L55.2832 135.486C55.336 136.384 55.2304 136.938 54.9928 137.123C54.7816 137.308 53.3296 137.466 51.4816 137.493L48.34 137.572L48.2608 138.971C48.208 139.79 48.3136 140.555 48.4984 140.766C48.8944 141.268 58.2136 141.321 58.7152 140.819C58.9 140.634 59.032 139.948 59.032 139.288C59.032 138.628 59.164 137.942 59.3488 137.757C59.7712 137.334 61.804 137.361 62.1736 137.783C62.332 138.021 62.4904 139.974 62.5168 143.01L62.596 147.868L76.6936 147.947C87.808 148 90.844 147.947 91.0288 147.683C91.3456 147.182 91.2928 138.549 90.976 137.942C90.7648 137.546 90.4216 137.44 89.4448 137.44C88.732 137.44 88.0456 137.308 87.8608 137.123C87.6496 136.912 87.544 135.803 87.544 133.876C87.544 131.949 87.6496 130.84 87.8608 130.629C88.2832 130.206 90.2368 130.206 90.6592 130.629C90.844 130.814 90.976 131.5 90.976 132.16C90.976 133.691 91.2928 134.008 92.8768 134.008C94.54 134.008 94.672 134.325 94.672 137.942C94.672 141.215 94.54 141.03 96.916 141.189L97.972 141.268L98.0512 142.614C98.1568 144.251 97.8928 144.515 96.124 144.621L94.804 144.7L94.7248 146.337L94.6456 148H96.3352C98.2624 148 98.368 147.894 98.368 146.02C98.368 144.753 98.6056 144.568 100.216 144.568C101.457 144.568 101.8 145.043 101.8 146.786V148H103.49C105.311 148 105.496 147.868 105.496 146.39C105.496 144.964 105.1 144.568 103.674 144.568C102.064 144.568 101.747 144.198 101.853 142.535L101.932 141.268L105.074 141.189C106.842 141.162 108.4 141.004 108.585 140.819C108.77 140.661 108.928 140.001 108.928 139.314C108.928 138.628 109.06 137.942 109.245 137.757C109.456 137.546 110.961 137.44 114.234 137.44C119.541 137.44 119.567 137.44 119.435 139.473L119.356 140.74L118.3 140.819C115.898 140.978 116.03 140.714 116.109 144.515L116.188 147.868L117.746 147.947C119.567 148.053 119.752 147.868 119.752 146.126C119.752 144.753 119.963 144.568 121.6 144.568C122.814 144.568 122.999 144.806 123.184 146.548L123.316 147.868H126.748H130.18V142.72V137.572L129.124 137.493C126.88 137.361 126.854 137.334 126.933 135.645L127.012 134.14L130.259 134.008C133.929 133.85 134.008 133.823 134.008 131.87C134.008 130.497 134.219 130.312 135.856 130.312C137.255 130.312 137.44 130.761 137.44 133.982C137.44 137.07 137.229 137.44 135.486 137.44C134.826 137.44 134.193 137.598 134.034 137.81C133.823 138.047 133.744 139.658 133.797 143.01L133.876 147.868H135.592H137.308L137.361 145.096C137.466 141.136 137.466 141.136 138.971 141.136C140.951 141.136 140.978 141.057 141.136 137.387L141.268 134.14L142.588 134.061C143.301 134.008 144.04 133.85 144.225 133.691C144.462 133.506 144.568 132.556 144.568 130.576C144.568 128.992 144.647 127.54 144.726 127.302C144.832 127.012 145.254 126.88 146.126 126.88C147.868 126.88 148.053 126.695 147.947 124.874L147.868 123.316H146.284H144.7L144.621 124.689C144.568 125.428 144.383 126.167 144.172 126.352C143.987 126.51 143.248 126.616 142.535 126.563L141.268 126.484L141.189 125.164C141.083 123.527 140.793 123.184 139.499 123.184C137.915 123.184 137.44 122.814 137.44 121.6C137.44 119.752 137.414 119.752 140.846 119.752C142.905 119.752 144.04 119.646 144.251 119.435C144.436 119.25 144.568 118.564 144.568 117.878C144.568 117.191 144.726 116.531 144.911 116.373C145.096 116.214 145.835 116.056 146.548 116.003L147.868 115.924L147.947 112.413L148.026 108.902L146.363 108.981L144.7 109.06L144.621 110.433C144.568 111.172 144.383 111.911 144.172 112.096C143.987 112.254 143.248 112.36 142.535 112.307L141.268 112.228V108.928V105.628L144.04 105.575C148.158 105.47 148 105.549 148 103.516V101.8H146.786C145.043 101.8 144.568 101.457 144.568 100.216C144.568 98.6056 144.753 98.368 146.02 98.368C147.894 98.368 148 98.2624 148 96.3616V94.672H145.017C141.347 94.672 141.057 94.5136 141.189 92.692L141.268 91.372L144.04 91.3192C148.449 91.2136 148 91.8472 148 85.696V80.4424L147.023 80.2576C146.495 80.152 145.756 80.1784 145.386 80.3104C144.7 80.548 144.7 80.6008 144.647 83.32C144.542 87.676 144.885 87.3064 140.925 87.2272L137.572 87.148V85.696V84.244L139.13 84.0856C140.872 83.9008 141.136 83.6368 141.136 82.132C141.136 80.6272 140.872 80.3632 139.13 80.1784L137.572 80.02V78.568V77.116L140.74 76.984C142.482 76.9048 144.066 76.7464 144.251 76.6408C144.674 76.3504 144.674 73.6576 144.251 73.3672C144.066 73.2616 143.327 73.1032 142.588 73.024L141.268 72.892L141.189 71.572C141.057 69.7504 141.347 69.592 145.017 69.592H148V67.9024C148 66.0016 147.894 65.896 145.994 65.896C144.726 65.896 144.647 65.7904 144.515 63.652L144.436 62.596L141.294 62.5168C139.552 62.4904 137.968 62.332 137.783 62.1736C137.572 61.9624 137.44 60.88 137.387 58.6888L137.308 55.468L135.724 55.336L134.14 55.204L134.008 53.6728C133.85 51.904 133.586 51.64 131.87 51.64C130.497 51.64 130.312 51.4288 130.312 49.792C130.312 48.5776 130.787 48.208 132.345 48.208C133.665 48.208 134.008 47.8384 134.008 46.4656C134.008 45.0136 133.506 44.512 132.054 44.512C130.655 44.512 130.312 44.8552 130.312 46.228C130.312 47.8648 129.89 48.2608 128.332 48.1552L127.012 48.076L126.88 46.5448C126.801 45.5944 126.59 44.908 126.352 44.776C125.798 44.4064 123.87 44.4592 123.501 44.8288C123.263 45.0664 123.184 47.3104 123.184 53.356C123.184 59.6128 123.105 61.672 122.841 62.0416C122.577 62.3848 122.207 62.4904 121.204 62.4112L119.884 62.332L119.752 60.8272C119.673 60.0088 119.514 59.2432 119.409 59.1112C119.277 59.0056 117.746 58.8472 115.977 58.768L112.756 58.636L112.677 57.2104C112.624 56.2336 112.703 55.7056 112.941 55.5736C113.126 55.4416 114.604 55.336 116.214 55.336C118.115 55.336 119.224 55.2304 119.435 55.0192C119.91 54.544 119.884 35.0344 119.409 34.3744C119.145 34.0312 118.775 33.9256 117.64 34.0048L116.188 34.084L116.056 37.3048C115.977 39.1264 115.792 40.6576 115.634 40.816C115.475 40.9744 114.762 41.08 114.05 41.0272L112.756 40.948V35.8V30.652L115.924 30.5728C118.511 30.52 119.145 30.4408 119.435 30.0712C119.646 29.7808 119.752 28.6456 119.752 26.7976C119.752 23.4976 119.567 23.128 117.798 23.128C116.426 23.128 116.056 23.4712 116.056 24.7912C116.056 26.3488 115.686 26.824 114.472 26.824C112.809 26.824 112.624 26.6656 112.624 25.24C112.624 23.656 112.149 23.128 110.776 23.128C109.139 23.128 108.928 23.3128 108.928 24.6328C108.928 26.3488 108.585 26.824 107.344 26.824C105.707 26.824 105.496 26.6392 105.496 25.2664C105.496 23.5504 105.232 23.2864 103.463 23.128L101.932 22.996L101.853 21.7288C101.721 19.696 101.721 19.696 107.238 19.696C112.65 19.696 112.624 19.696 112.624 17.7424C112.624 15.9736 112.703 16 103.648 16C99.16 16 95.332 16.0792 95.0944 16.1584C94.4608 16.396 94.4608 22.996 95.0944 23.2336C95.332 23.3128 96.8104 23.392 98.368 23.392C101.536 23.392 101.8 23.524 101.8 25.1608C101.8 26.6392 101.457 26.7976 97.972 26.8768L94.804 26.956L94.672 30.124C94.5928 31.8664 94.4344 33.4504 94.3288 33.6088C94.1704 33.8464 93.22 33.952 91.1344 33.952C87.6496 33.952 87.4648 33.8464 87.5968 31.9192L87.676 30.652L89.2072 30.52C90.1576 30.4408 90.844 30.2296 90.976 29.992C91.3192 29.4376 91.3192 20.8576 90.976 20.1976C90.7384 19.8016 90.3952 19.696 89.26 19.696C88.4152 19.696 87.7552 19.828 87.6232 20.0128C87.5176 20.1976 87.3592 21.7816 87.28 23.524L87.148 26.692H85.696H84.244L84.0856 25.1608C83.98 24.316 83.8216 23.5504 83.7424 23.4448C83.6368 23.3392 82.8712 23.2072 82.0528 23.128L80.548 22.996L80.4688 19.8544C80.4424 18.0856 80.284 16.528 80.0992 16.3432C79.9144 16.1056 78.9904 16 76.8256 16C73.4464 16 73.024 16.2112 73.024 17.7424C73.024 19.3 73.3936 19.696 74.8456 19.696C76.456 19.696 76.7728 20.0656 76.6672 21.7288L76.588 22.996L75.0568 23.128C73.3672 23.2864 73.024 23.5768 73.024 24.9232C73.024 26.824 73.024 26.824 78.3832 26.824C81.7888 26.824 83.32 26.9296 83.5312 27.1408C83.7424 27.352 83.848 28.4344 83.848 30.2824C83.848 31.84 83.9272 33.292 84.0064 33.5296C84.112 33.82 84.5344 33.952 85.4056 33.952C86.0656 33.952 86.752 34.0576 86.9368 34.1632C87.148 34.2952 87.28 35.8528 87.3328 39.2848C87.3856 41.9776 87.5176 44.3008 87.6232 44.4328C87.7552 44.5384 88.5208 44.6968 89.3392 44.776L90.844 44.908L90.9232 46.1752C91.0288 47.8384 90.6856 48.208 89.1016 48.208C87.6232 48.208 87.4648 48.3928 87.28 50.188L87.148 51.508H85.696H84.244L84.112 50.188C83.9272 48.3928 83.7424 48.208 82.2904 48.208C81.604 48.208 80.9176 48.076 80.7328 47.8912C80.5216 47.68 80.416 46.5712 80.416 44.5912C80.416 41.2384 80.4952 41.08 82.5016 41.08C83.32 41.08 83.6368 40.948 83.8744 40.5256C84.1648 39.9712 84.0592 38.044 83.716 37.7008C83.6104 37.5952 82.8712 37.4632 82.0528 37.384L80.548 37.252L80.4688 34.1104C80.4424 32.3416 80.284 30.784 80.0992 30.5992C79.7824 30.2032 74.1856 30.0976 73.5784 30.4936C73.3936 30.6256 73.156 31.4176 73.0504 32.2624L72.892 33.82L71.572 33.8992C69.988 34.0048 69.592 33.6088 69.592 31.8136C69.592 30.9424 69.4864 30.52 69.1696 30.4144C68.3776 30.124 63.124 30.2296 62.7808 30.5728C62.596 30.7576 62.464 31.444 62.464 32.104C62.464 33.6088 62.1472 33.952 60.748 33.952C60.1408 33.952 59.5336 33.82 59.3488 33.6352C58.9 33.1864 58.9 27.5104 59.3752 27.1408C59.56 26.9824 60.2992 26.824 61.012 26.7712L62.332 26.692L62.464 23.4712C62.5432 21.7024 62.7016 20.1712 62.8072 20.0392C62.9392 19.9336 64.4704 19.7752 66.2392 19.696L69.46 19.564L69.5392 18.0064C69.592 16.924 69.5128 16.3696 69.2752 16.2376C69.0904 16.1056 66.82 16 64.2592 16C60.3784 16 59.5336 16.0792 59.1904 16.4224ZM104.942 27.1936C105.126 27.4048 105.232 28.144 105.179 28.8568L105.1 30.124L104.044 30.2032C101.774 30.3352 101.774 30.3352 101.853 32.1832L101.932 33.82L103.252 33.8992C103.965 33.952 104.704 34.1104 104.889 34.2688C105.074 34.4272 105.232 35.0872 105.232 35.7736C105.232 37.3312 105.549 37.648 107.106 37.648C108.558 37.648 108.743 37.8328 108.928 39.628L109.06 40.948L110.38 41.0272C111.093 41.08 111.832 41.2384 112.017 41.3968C112.202 41.5552 112.36 42.2152 112.36 42.9016C112.36 44.4592 112.677 44.776 114.261 44.776C115.238 44.776 115.581 44.8816 115.792 45.2776C116.109 45.8848 116.135 50.8216 115.818 51.3232C115.686 51.5608 115.158 51.64 114.182 51.5872L112.756 51.508L112.624 48.2608C112.466 44.644 112.413 44.512 110.644 44.512C109.298 44.512 108.928 44.8816 108.928 46.1752C108.928 47.812 108.585 48.208 107.133 48.208C106.42 48.208 105.734 48.34 105.549 48.5248C105.206 48.868 105.1 54.1216 105.39 54.9136C105.496 55.2304 105.918 55.336 106.816 55.336C108.479 55.336 108.928 55.7848 108.928 57.4744C108.928 58.9 109.007 58.9528 111.172 59.0848L112.228 59.164L112.307 65.8696C112.334 70.2784 112.466 72.7072 112.65 72.9448C113.02 73.3672 115.317 73.3936 115.739 72.9712C115.95 72.76 116.056 71.6512 116.056 69.724C116.056 67.7968 116.162 66.688 116.373 66.4768C116.584 66.2656 117.693 66.16 119.62 66.16C121.547 66.16 122.656 66.0544 122.867 65.8432C123.052 65.6584 123.184 64.972 123.184 64.2592C123.184 62.8864 123.58 62.464 124.9 62.464C126.22 62.464 126.616 62.8864 126.616 64.2592C126.616 64.972 126.748 65.6584 126.933 65.8432C127.355 66.2656 129.573 66.2656 129.995 65.8432C130.206 65.632 130.312 64.5232 130.312 62.5696C130.312 59.1376 130.418 58.9528 132.345 59.0848L133.612 59.164L133.691 60.22C133.823 62.3848 133.876 62.464 135.302 62.464C136.991 62.464 137.44 62.9128 137.44 64.6024C137.44 66.028 137.519 66.0808 139.684 66.2128L140.74 66.292V67.876V69.46L139.473 69.5392C137.81 69.6448 137.44 69.328 137.44 67.7176C137.44 66.2656 137.044 65.896 135.486 65.896C133.955 65.896 133.744 66.3184 133.744 69.6976C133.744 71.6512 133.85 72.76 134.061 72.9712C134.246 73.156 134.932 73.288 135.592 73.288C137.097 73.288 137.44 73.6048 137.44 75.004C137.44 76.4032 137.097 76.72 135.566 76.72C134.879 76.72 134.219 76.8784 134.061 77.0632C133.902 77.248 133.744 77.9872 133.691 78.7L133.612 80.02L132.292 80.152C131.579 80.2312 130.814 80.3896 130.655 80.4952C130.418 80.6536 130.312 81.604 130.312 83.6632C130.312 85.3 130.206 86.7784 130.101 86.9632C129.916 87.2008 129.045 87.28 126.59 87.2272L123.316 87.148L123.237 83.98C123.158 80.4424 123.026 80.152 121.362 80.152C119.937 80.152 119.646 80.4688 119.488 82.1848L119.356 83.716L117.772 83.848L116.188 83.98V85.696V87.412L117.244 87.4912C119.488 87.6232 119.514 87.6496 119.435 89.3392L119.356 90.844L118.089 90.9232C116.426 91.0288 116.056 90.6856 116.056 89.1016C116.056 87.6232 115.871 87.4648 114.076 87.28L112.756 87.148V85.696V84.244L114.076 84.112C114.815 84.0328 115.554 83.8744 115.739 83.7688C116.188 83.4784 116.188 77.4856 115.739 77.0368C115.317 76.6144 113.02 76.6408 112.677 77.0632C112.518 77.248 112.36 77.9872 112.307 78.7L112.228 80.02L110.908 80.152C110.195 80.2312 109.43 80.3896 109.271 80.4952C109.034 80.6536 108.928 81.604 108.928 83.6632C108.928 85.3 108.822 86.7784 108.717 86.9632C108.532 87.2008 107.661 87.28 105.206 87.2272L101.932 87.148L101.853 85.828C101.8 85.1152 101.642 84.376 101.483 84.1912C101.114 83.7424 98.7904 83.7424 98.4208 84.1912C98.2624 84.376 98.104 85.1152 98.0512 85.828L97.972 87.148L96.652 87.28C94.8304 87.4648 94.672 87.6232 94.672 89.26C94.672 90.8968 94.8304 91.0552 96.652 91.24L97.972 91.372L98.0512 94.54C98.1304 98.104 98.2624 98.368 99.952 98.368C101.642 98.368 101.774 98.104 101.853 94.54L101.932 91.372H107.08H112.228V94.672V97.972L111.172 98.0512C109.007 98.1832 108.928 98.236 108.928 99.6616C108.928 101.351 108.479 101.8 106.816 101.8C105.39 101.8 105.232 101.985 105.232 103.78C105.232 105.179 105.654 105.496 107.45 105.496C108.77 105.496 108.849 105.602 108.981 107.74L109.06 108.796L110.486 108.875C111.278 108.928 112.043 108.822 112.202 108.664C112.36 108.506 112.545 106.974 112.624 105.153L112.756 101.932L114.076 101.853C114.789 101.8 115.528 101.642 115.713 101.483C115.95 101.298 116.056 100.322 116.056 98.2624C116.056 96.3088 116.162 95.2 116.373 94.9888C116.584 94.7776 117.693 94.672 119.646 94.672C121.706 94.672 122.682 94.5664 122.867 94.3288C123.026 94.144 123.184 93.4048 123.237 92.692L123.316 91.372H124.9H126.484L126.563 92.692C126.616 93.4048 126.774 94.144 126.933 94.3288C127.329 94.8304 133.295 94.804 133.691 94.3288C133.876 94.144 134.034 92.5864 134.061 90.8176L134.14 87.676L135.407 87.5968C137.44 87.4648 137.44 87.4648 137.44 92.9824C137.44 96.5464 137.519 97.8664 137.783 98.0248C137.942 98.1304 138.707 98.2888 139.42 98.368L140.74 98.5V101.8V105.1L139.473 105.179C137.546 105.311 137.44 105.126 137.44 101.694C137.44 99.7408 137.334 98.632 137.123 98.4208C136.701 97.9984 134.483 97.9984 134.061 98.4208C133.876 98.6056 133.744 99.292 133.744 100.005C133.744 101.378 133.348 101.8 132.028 101.8C130.708 101.8 130.312 101.378 130.312 99.9784C130.312 99.2656 130.154 98.5792 129.969 98.4208C129.784 98.2624 129.045 98.104 128.332 98.0512L127.012 97.972L126.933 96.916C126.801 94.6456 126.801 94.6456 124.953 94.7248L123.316 94.804L123.184 96.124C122.999 97.9192 122.814 98.104 121.362 98.104C120.676 98.104 119.99 98.236 119.805 98.4208C119.62 98.6056 119.488 99.292 119.488 99.9784C119.488 101.43 119.303 101.615 117.508 101.8L116.188 101.932V105.364V108.796L119.356 108.875C122.946 108.954 123.184 109.06 123.184 110.934C123.184 112.281 123.501 112.571 125.164 112.677L126.484 112.756L126.563 114.076C126.669 115.554 126.246 116.056 124.953 116.056C123.58 116.056 123.184 115.634 123.184 114.261C123.184 112.677 122.867 112.36 121.336 112.36C119.805 112.36 119.488 112.677 119.488 114.234C119.488 115.686 119.303 115.871 117.508 116.056L116.188 116.188L116.056 121.072C115.977 123.765 115.818 126.114 115.713 126.273C115.554 126.51 114.63 126.616 112.624 126.616C111.066 126.616 109.588 126.695 109.35 126.774C109.034 126.88 108.928 127.302 108.928 128.2C108.928 129.731 108.453 130.312 107.212 130.312C105.734 130.312 105.496 130.101 105.496 128.807C105.496 127.038 105.153 126.616 103.78 126.616C101.747 126.616 101.8 126.537 101.8 130.312C101.8 133.137 101.879 133.718 102.222 133.85C102.46 133.929 103.938 134.008 105.496 134.008C108.69 134.008 108.928 134.14 108.928 135.83C108.928 137.334 108.558 137.44 103.648 137.44C101.193 137.44 99.028 137.361 98.7904 137.282C98.4208 137.15 98.368 136.437 98.368 132.292C98.368 126.827 98.2888 126.616 96.52 126.616C94.8568 126.616 94.672 126.774 94.672 128.2C94.672 129.758 94.1968 130.312 92.8768 130.312C91.3984 130.312 91.1872 130.074 91.2928 128.438L91.372 127.012L92.692 126.88C93.4312 126.801 94.1704 126.642 94.3552 126.537C94.5928 126.378 94.672 125.058 94.672 121.494C94.672 118.115 94.7776 116.584 94.9888 116.373C95.1736 116.188 95.86 116.056 96.5728 116.056C97.5496 116.056 97.8928 115.95 98.104 115.554C98.5264 114.736 98.4736 99.1336 98.0248 98.5264C97.7608 98.1832 97.3912 98.0776 96.256 98.1568L94.804 98.236L94.672 101.404C94.5928 103.146 94.4344 104.73 94.3288 104.889C94.1968 105.1 93.5632 105.232 92.8504 105.232C91.2928 105.232 90.976 105.549 90.976 107.08C90.976 108.611 91.2928 108.928 92.8768 108.928C94.2496 108.928 94.672 109.324 94.672 110.697C94.672 111.99 94.1704 112.413 92.692 112.307L91.372 112.228L91.24 110.908C91.0552 109.086 90.8968 108.928 89.26 108.928C87.6232 108.928 87.4648 109.086 87.28 110.908L87.148 112.228L83.98 112.307C80.3368 112.386 80.152 112.492 80.152 114.525C80.152 115.924 80.0728 115.977 77.908 116.109L76.852 116.188L76.7728 117.64C76.6936 118.775 76.7992 119.145 77.1424 119.409C77.6968 119.805 82.9504 119.884 83.5576 119.514C83.7424 119.382 83.98 118.59 84.0856 117.746L84.244 116.188H85.696H87.148L87.2272 123.026C87.3064 130.47 87.3328 130.312 85.7752 130.312C84.1384 130.312 84.112 130.259 84.112 127.091C84.112 125.507 83.98 123.976 83.848 123.686C83.584 123.237 83.2672 123.184 80.6008 123.184C78.964 123.184 77.512 123.078 77.3536 122.973C77.1952 122.867 77.0104 122.154 76.9312 121.362C76.852 120.597 76.6408 119.858 76.4296 119.726C76.2184 119.594 75.5056 119.488 74.8192 119.488C73.3408 119.488 73.024 119.884 73.024 121.706C73.024 123.026 72.9184 123.105 70.78 123.237L69.724 123.316L69.6448 124.742C69.592 125.534 69.6976 126.299 69.856 126.458C70.0408 126.642 71.9944 126.801 75.0832 126.88L80.02 127.012L80.0992 128.517C80.152 129.362 80.152 130.074 80.0992 130.101C80.0464 130.127 77.6968 130.206 74.872 130.286L69.724 130.444L69.6448 131.843C69.592 132.635 69.6976 133.427 69.856 133.612C70.0408 133.823 70.78 134.008 71.5192 134.061L72.892 134.14L73.024 135.46C73.1032 136.173 73.2616 136.938 73.3672 137.097C73.684 137.572 79.7032 137.572 80.0992 137.097C80.2576 136.912 80.416 136.173 80.4688 135.46L80.548 134.14H82.132H83.716L83.7952 135.513C83.848 136.252 84.0328 136.991 84.1912 137.15C84.376 137.282 85.1152 137.44 85.828 137.493L87.148 137.572L87.2272 140.846C87.3064 144.436 87.2536 144.568 85.7752 144.568C84.1384 144.568 84.112 144.515 84.112 141.347C84.112 137.678 83.98 137.44 82.132 137.44C80.4952 137.44 80.3368 137.598 80.152 139.42L80.02 140.74L78.7 140.819C77.9872 140.872 77.248 141.03 77.0632 141.189C76.8784 141.347 76.72 142.007 76.72 142.694C76.72 143.38 76.588 144.066 76.4032 144.251C75.9808 144.674 74.0272 144.674 73.6048 144.251C73.3936 144.04 73.288 142.931 73.288 141.004C73.288 139.42 73.1824 137.942 73.0504 137.757C72.9184 137.519 72.364 137.44 71.2816 137.493L69.724 137.572L69.6448 140.714C69.6184 142.482 69.46 144.04 69.2752 144.225C68.932 144.647 66.8992 144.674 66.4768 144.251C66.028 143.802 66.028 138.126 66.5032 137.757C66.688 137.598 67.4272 137.44 68.14 137.387L69.46 137.308L69.5392 135.75C69.592 134.668 69.5128 134.114 69.2752 133.982C69.0904 133.85 66.0016 133.744 62.4112 133.744C56.2336 133.744 55.864 133.718 55.6 133.242C55.468 132.952 55.336 131.421 55.336 129.81C55.336 126.537 55.468 126.722 53.092 126.563C52.0624 126.484 52.036 126.458 51.9568 125.428C51.8248 123.263 51.7456 123.184 50.3728 123.184C48.3928 123.184 48.3664 123.105 48.208 119.435L48.076 116.188L46.756 116.056C44.9608 115.871 44.776 115.686 44.776 114.234C44.776 112.677 44.4592 112.36 42.928 112.36C41.3968 112.36 41.08 112.677 41.08 114.261C41.08 115.634 40.684 116.056 39.3112 116.056C38.0176 116.056 37.5952 115.554 37.7008 114.076L37.78 112.756L39.1528 112.677C39.892 112.624 40.6312 112.439 40.816 112.228C40.9744 112.043 41.08 111.251 41.0272 110.459L40.948 109.06H37.516H34.084L34.0048 112.228C33.9256 115.713 33.7672 116.056 32.2888 116.056C30.916 116.056 30.52 115.634 30.52 114.261C30.52 112.677 30.2032 112.36 28.672 112.36C27.1672 112.36 26.824 112.043 26.824 110.644C26.824 109.245 27.1672 108.928 28.6984 108.928C29.3848 108.928 30.0448 108.77 30.2032 108.585C30.3616 108.4 30.52 107.661 30.5728 106.948L30.652 105.628L31.972 105.496C32.7112 105.417 33.4504 105.258 33.6352 105.153C33.8464 104.994 33.952 104.07 33.952 102.064C33.952 100.506 34.0312 99.028 34.1104 98.7904C34.2424 98.4472 34.7704 98.368 37.1728 98.368C40.7104 98.368 41.08 98.2096 41.08 96.7048C41.08 94.804 41.2912 94.6984 44.908 94.6192L48.076 94.54L48.2344 89.392C48.3136 86.5672 48.3928 84.2176 48.4192 84.1648C48.4456 84.1384 49.0528 84.112 49.7392 84.112C51.4816 84.112 51.8776 83.7424 51.9568 82L52.036 80.548H55.336H58.636L58.768 82.0528C58.8472 82.8712 58.9792 83.6368 59.0848 83.7424C59.1904 83.8216 59.956 83.98 60.8008 84.0856L62.332 84.244V85.696V87.148L60.9856 87.28C58.8736 87.4912 58.768 87.676 58.768 90.9496C58.768 92.7976 58.8736 93.9328 59.1112 94.2232C59.4016 94.6456 59.956 94.672 64.444 94.6192L69.46 94.54V92.824V91.108L68.404 91.0288C65.9488 90.8704 66.16 91.3456 66.16 85.696C66.16 80.02 66.2128 80.152 63.9424 80.152C63.2824 80.152 62.7016 80.1256 62.6752 80.0728C62.6488 80.0464 62.5696 77.6968 62.4904 74.872L62.332 69.724L59.164 69.6448C55.5472 69.5656 55.336 69.46 55.336 67.5592C55.336 66.292 54.8872 65.896 53.4352 65.896C51.8776 65.896 51.772 66.0808 51.64 69.6448L51.508 72.892L50.0032 72.9712C48.3136 73.0504 48.2872 73.024 48.1552 70.78L48.076 69.724L44.9344 69.6448C42.8752 69.592 41.6872 69.6712 41.4496 69.8824C40.9744 70.2784 40.948 72.6016 41.4232 72.9712C41.608 73.1296 42.3472 73.288 43.06 73.3408L44.38 73.42V75.004V76.588L43.06 76.6672C42.3472 76.72 41.608 76.8784 41.4232 77.0104C41.2648 77.1688 41.08 77.908 41.0272 78.6472L40.948 80.02H39.364H37.78L37.7008 78.7C37.648 77.9872 37.4896 77.248 37.3312 77.0632C36.9616 76.6144 34.6384 76.6144 34.2688 77.0632C34.1104 77.248 33.952 77.9872 33.8992 78.7L33.82 80.02L32.2888 80.1784C31.444 80.284 30.6784 80.4424 30.5728 80.5216C30.4672 80.6272 30.3352 81.3928 30.256 82.2112L30.124 83.716L28.8568 83.7952C27.1936 83.9008 26.824 83.5576 26.824 81.9736C26.824 80.4952 26.6392 80.3368 24.844 80.152L23.524 80.02V78.568V77.116L26.7712 76.984C30.4144 76.8256 30.52 76.7728 30.52 74.9512C30.52 73.4728 30.0184 73.024 28.3816 73.024C26.956 73.024 26.9032 72.9448 26.7712 70.78L26.692 69.724L25.108 69.592L23.524 69.46V67.876V66.292L24.58 66.2128C26.7448 66.0808 26.824 66.028 26.824 64.6024C26.824 63.0712 27.2992 62.464 28.4344 62.464C29.86 62.464 30.256 62.86 30.256 64.2592C30.256 64.972 30.388 65.6584 30.5728 65.8432C30.784 66.0544 31.9192 66.16 33.952 66.16C35.9848 66.16 37.12 66.0544 37.3312 65.8432C37.516 65.6584 37.648 64.972 37.648 64.2592C37.648 62.8864 38.044 62.464 39.364 62.464C40.684 62.464 41.08 62.8864 41.08 64.2592C41.08 64.972 41.212 65.6584 41.3968 65.8432C41.7664 66.2128 47.3368 66.292 47.8912 65.9224C48.1288 65.7904 48.208 65.236 48.1552 64.1536L48.076 62.596L47.02 62.5168C44.8288 62.3848 44.776 62.332 44.776 60.748C44.776 59.9032 44.644 59.2432 44.4592 59.1112C44.2744 59.0056 42.6904 58.8472 40.948 58.768L37.78 58.636L37.7008 57.3424C37.648 56.6296 37.7536 55.9168 37.912 55.7584C38.0704 55.6 38.8096 55.4152 39.5752 55.336L40.948 55.204L41.0272 53.8048C41.08 53.0128 40.9744 52.2208 40.816 52.036C40.6312 51.8248 39.892 51.64 39.1528 51.5872L37.78 51.508L37.7008 50.188C37.5952 48.7096 38.0176 48.208 39.3112 48.208C40.684 48.208 41.08 48.604 41.08 50.0296C41.08 50.7424 41.2384 51.4288 41.4232 51.5872C41.608 51.7456 42.3472 51.904 43.06 51.9568L44.38 52.036L44.4592 53.356C44.512 54.0688 44.6704 54.808 44.8288 54.9928C45.0136 55.2304 46.0432 55.336 48.34 55.336C51.9832 55.336 51.904 55.3624 51.904 53.356C51.904 51.9832 51.4816 51.64 49.7128 51.64C48.4192 51.64 48.208 51.4024 48.208 49.924C48.208 48.7888 48.7888 48.208 49.924 48.208C51.4024 48.208 51.64 48.4192 51.64 49.7128C51.64 51.508 51.9568 51.904 53.4352 51.904C54.148 51.904 54.8344 52.036 55.0192 52.2208C55.2568 52.4584 55.336 54.3328 55.336 59.0584C55.336 64.2856 55.4152 65.632 55.7056 65.8696C55.9432 66.0808 57.1312 66.16 59.1904 66.1072L62.332 66.028V64.312V62.596L61.012 62.5168C59.2432 62.4112 58.9792 62.1472 59.0848 60.5104L59.164 59.164L60.22 59.0848C62.3848 58.9528 62.464 58.9 62.464 57.4744C62.464 55.7848 62.9128 55.336 64.576 55.336C65.4736 55.336 65.896 55.2304 66.0016 54.9136C66.292 54.1216 66.1864 48.868 65.8432 48.5248C65.4208 48.1024 63.124 48.1288 62.7808 48.5512C62.6224 48.736 62.464 49.4752 62.4112 50.188L62.332 51.508H60.748H59.164L59.0848 50.188C59.032 49.4752 58.8736 48.736 58.7152 48.5512C58.5568 48.3664 57.8704 48.208 57.1576 48.208C55.6792 48.208 55.336 47.812 55.336 46.1488C55.336 44.8552 54.9928 44.5648 53.356 44.4592L52.036 44.38L51.9568 43.1128C51.904 42.4 52.0096 41.6608 52.168 41.476C52.3528 41.2648 53.092 41.08 53.8312 41.0272L55.204 40.948L55.336 37.7008C55.468 34.1632 55.5736 33.952 57.1048 33.952C58.8208 33.952 58.768 33.7936 58.768 39.0208C58.768 41.7664 58.8736 43.9576 59.032 44.2744C59.2432 44.644 59.5864 44.776 60.484 44.776C62.4904 44.776 62.464 44.8024 62.464 41.5552C62.464 37.9648 62.596 37.648 64.2592 37.648C65.8432 37.648 66.16 37.3312 66.16 35.8C66.16 34.348 66.5032 33.952 67.6912 33.952C69.196 33.952 69.592 34.3216 69.592 35.7472C69.592 37.3312 69.9088 37.648 71.44 37.648C72.9712 37.648 73.288 37.3312 73.288 35.8C73.288 34.2952 73.6048 33.952 75.004 33.952C76.4032 33.952 76.72 34.2952 76.72 35.8264C76.72 36.5128 76.8784 37.1728 77.0632 37.3312C77.248 37.4896 77.9872 37.648 78.7 37.7008L80.02 37.78V39.364V40.948L78.7 41.0272C77.9872 41.08 77.248 41.2384 77.0632 41.3968C76.8256 41.5816 76.72 42.5584 76.72 44.6176C76.72 46.5712 76.6144 47.68 76.4032 47.8912C76.2184 48.076 75.532 48.208 74.8192 48.208C73.3936 48.208 73.024 48.604 73.024 50.1088C73.024 51.8512 73.1296 51.8776 78.7 51.9568L83.716 52.036L83.848 53.62L83.98 55.204L85.036 55.2832C87.4384 55.4416 87.3064 55.1776 87.2272 58.9792L87.148 62.332H85.696H84.244L84.0856 60.7744C83.9008 59.032 83.6368 58.768 82.132 58.768C80.6272 58.768 80.3632 59.032 80.1784 60.7744L80.02 62.332L76.852 62.4112C73.288 62.4904 73.024 62.6224 73.024 64.312C73.024 66.0016 73.288 66.1336 76.852 66.2128L80.02 66.292L80.152 71.2288C80.2576 74.74 80.3896 76.2712 80.6272 76.5088C80.812 76.6936 81.5776 76.9048 82.3432 76.984L83.716 77.116L83.7952 78.436C83.848 79.1488 84.0064 79.888 84.1648 80.0728C84.3496 80.3104 85.3528 80.416 87.5704 80.416C91.0288 80.416 91.24 80.3104 91.24 78.568C91.24 77.116 90.844 76.72 89.4448 76.72C87.8872 76.72 87.544 76.4032 87.544 75.004C87.544 73.6048 87.8872 73.288 89.4448 73.288C90.844 73.288 91.24 72.892 91.24 71.44C91.24 69.988 90.844 69.592 89.4448 69.592C87.8872 69.592 87.544 69.2752 87.544 67.876C87.544 66.4768 87.8872 66.16 89.4184 66.16C90.1312 66.16 90.7648 66.028 90.8968 65.8168C91.0024 65.6584 91.1608 64.0744 91.24 62.332L91.372 59.164L96.256 59.0848C100.612 59.032 101.166 59.0584 101.457 59.4808C101.879 60.0352 101.932 68.3248 101.536 69.0904C101.325 69.4864 100.982 69.592 99.9784 69.592C99.2656 69.592 98.5792 69.7504 98.4208 69.9352C98.2624 70.12 98.104 70.8592 98.0512 71.572L97.972 72.892L96.5992 73.024C95.8336 73.1032 95.0944 73.288 94.936 73.4464C94.7512 73.6312 94.672 74.9512 94.7248 77.0104L94.804 80.284L96.256 80.3632C97.9984 80.4688 98.368 80.0992 98.368 78.2512V76.984H99.5824C101.404 76.984 101.8 76.6672 101.8 75.1888C101.8 74.476 101.932 73.7896 102.117 73.6048C102.302 73.42 102.988 73.288 103.701 73.288C105.179 73.288 105.496 72.892 105.496 71.0704C105.496 69.7768 105.549 69.7504 108.004 69.5392C108.77 69.46 108.796 69.4072 108.875 68.0344C108.928 67.2424 108.822 66.4768 108.664 66.3184C108.506 66.16 107.766 65.9752 107.001 65.896L105.628 65.764L105.496 60.88C105.417 58.1872 105.258 55.8376 105.153 55.6528C104.994 55.4152 103.674 55.336 100.11 55.336C96.7312 55.336 95.2 55.2304 94.9888 55.0192C94.804 54.8344 94.672 54.148 94.672 53.4616C94.672 52.0096 94.4872 51.8248 92.692 51.64L91.372 51.508L91.2928 50.0032C91.2136 48.3136 91.24 48.2872 93.484 48.1552L94.54 48.076L94.6192 46.6504C94.672 45.8584 94.5664 45.0928 94.408 44.9344C94.2496 44.776 93.5104 44.5912 92.7448 44.512L91.372 44.38V41.08V37.78L92.692 37.7008C94.5136 37.5688 94.672 37.8592 94.672 41.5288C94.672 44.8552 94.54 44.6704 96.916 44.8288L97.972 44.908L98.0512 48.0496C98.0776 49.8184 98.236 51.376 98.4208 51.5608C98.764 51.9832 101.061 52.0096 101.483 51.5872C101.958 51.112 101.932 41.7664 101.457 41.3968C101.272 41.2384 100.533 41.08 99.82 41.0272L98.5 40.948V35.8V30.652L99.82 30.5728C100.533 30.52 101.272 30.3616 101.457 30.2032C101.642 30.0448 101.8 29.3848 101.8 28.6984C101.8 28.012 101.932 27.3256 102.117 27.1408C102.566 26.692 104.572 26.7448 104.942 27.1936ZM112.07 27.1936C112.254 27.4048 112.36 28.144 112.307 28.8568L112.228 30.124H110.644H109.06L108.981 28.8568C108.875 27.2464 109.218 26.824 110.644 26.824C111.304 26.824 111.911 26.9824 112.07 27.1936ZM129.995 52.2208C130.418 52.6432 130.391 54.3328 129.969 54.9136C129.705 55.2568 129.335 55.3624 128.332 55.2832L127.012 55.204L126.933 53.9104C126.88 53.1976 126.906 52.4584 126.986 52.2736C127.17 51.7984 129.546 51.772 129.995 52.2208ZM58.636 75.004V76.588L57.316 76.6672C55.8376 76.7728 55.336 76.3504 55.336 75.0568C55.336 73.6048 55.732 73.2616 57.2632 73.3408L58.636 73.42V75.004ZM133.691 106.948C133.797 108.743 133.48 108.928 130.365 108.928C127.223 108.928 126.88 108.743 126.88 107.106C126.88 106.42 126.959 105.76 127.065 105.654C127.17 105.575 128.675 105.522 130.418 105.549L133.612 105.628L133.691 106.948ZM130.154 120.174C130.233 120.412 130.312 122.577 130.312 125.032C130.312 128.728 130.233 129.546 129.89 129.89C129.546 130.233 128.728 130.312 125.032 130.312C122.577 130.312 120.412 130.233 120.174 130.154C119.805 130.022 119.752 129.309 119.752 125.058C119.752 122.339 119.831 120.016 119.937 119.937C120.016 119.831 122.339 119.752 125.058 119.752C129.309 119.752 130.022 119.805 130.154 120.174ZM140.819 128.279C140.925 129.837 140.582 130.312 139.367 130.312C137.915 130.312 137.44 129.916 137.44 128.728C137.44 126.986 137.572 126.854 139.262 126.933L140.74 127.012L140.819 128.279ZM122.867 134.351C123.026 134.536 123.184 135.275 123.237 135.988L123.316 137.308L124.689 137.387C125.428 137.44 126.167 137.625 126.352 137.836C126.51 138.021 126.616 138.76 126.563 139.473L126.484 140.74L124.979 140.819C123.29 140.898 123.263 140.872 123.131 138.628C123.052 137.598 123.026 137.572 121.996 137.493C119.805 137.361 119.752 137.308 119.752 135.75C119.752 134.985 119.831 134.272 119.937 134.193C120.254 133.876 122.577 134.008 122.867 134.351Z" fill="black"/>
    <path d="M66.3184 37.8066C65.9752 38.1234 65.896 38.8098 65.896 40.9746C65.896 44.4066 66.0544 44.7762 67.612 44.7762C69.6448 44.7762 69.592 44.8554 69.592 41.0802C69.592 37.3314 69.6184 37.3842 67.744 37.3842C67.1632 37.3842 66.556 37.569 66.3184 37.8066Z" fill="black"/>
    <path d="M73.6048 37.6217C73.1032 37.9121 72.892 39.8129 73.2616 40.5257C73.5256 40.9745 73.816 41.0801 75.004 41.0801C76.6936 41.0801 77.116 40.5785 76.9048 38.8889C76.7464 37.6481 76.4296 37.3841 75.004 37.3841C74.4232 37.3841 73.7896 37.4897 73.6048 37.6217Z" fill="black"/>
    <path d="M102.09 37.754C101.906 37.9652 101.8 38.7308 101.853 39.5492L101.932 40.9484L103.252 41.0804C105.047 41.2652 105.232 41.45 105.232 42.902C105.232 43.5884 105.364 44.2748 105.549 44.4596C105.971 44.882 108.189 44.882 108.611 44.4596C108.954 44.1164 109.034 41.9252 108.717 41.4236C108.611 41.2652 107.872 41.0804 107.08 41.0276L105.628 40.9484L105.496 39.4172C105.417 38.4668 105.206 37.7804 104.968 37.6484C104.361 37.2524 102.434 37.3316 102.09 37.754Z" fill="black"/>
    <path d="M70.0672 51.9306C69.724 52.1154 69.592 52.5378 69.592 53.4354C69.592 54.1482 69.46 54.8346 69.2752 55.0194C69.0904 55.2042 68.404 55.3362 67.6912 55.3362C66.292 55.3362 65.896 55.7322 65.896 57.1842C65.896 58.9266 66.1072 59.0322 69.5392 59.0322C71.6248 59.0322 72.76 58.9266 72.9712 58.7154C73.1824 58.5042 73.288 57.369 73.288 55.2834C73.288 52.485 73.2352 52.1682 72.7864 51.9042C72.1264 51.561 70.648 51.561 70.0672 51.9306Z" fill="black"/>
    <path d="M48.6304 59.1114C48.2872 59.3754 48.1816 59.745 48.2608 60.8802L48.34 62.3322L49.8976 62.4114C51.7192 62.517 51.904 62.3586 51.904 60.5634C51.904 59.5866 51.7984 59.2434 51.4024 59.0322C50.6896 58.6626 49.1848 58.689 48.6304 59.1114Z" fill="black"/>
    <path d="M94.7776 62.8336C94.6984 63.0184 94.672 63.8368 94.7248 64.6024L94.804 66.028L96.256 66.1072C97.9192 66.2128 98.368 65.8432 98.368 64.3648C98.368 62.8072 97.9984 62.464 96.3616 62.464C95.3848 62.464 94.8832 62.5696 94.7776 62.8336Z" fill="black"/>
    <path d="M37.8064 66.3183C37.3576 66.7671 37.2256 68.6943 37.6216 69.2751C37.7536 69.5127 38.308 69.5919 39.3904 69.5391L40.948 69.4599L41.0272 68.0079C41.1064 66.8727 41.0008 66.5031 40.6576 66.2391C39.9976 65.7639 38.308 65.8167 37.8064 66.3183Z" fill="black"/>
    <path d="M62.8864 66.2393C62.5432 66.5033 62.4376 66.8729 62.5168 68.0081C62.596 69.4073 62.6224 69.4601 63.388 69.5393C63.8368 69.5657 64.576 69.6713 65.0512 69.7505L65.896 69.8825V72.8657C65.896 76.4825 66.0544 76.7729 68.0344 76.9841L69.46 77.1161L69.5392 80.2841C69.6184 83.8217 69.7504 84.1121 71.3872 84.1121C72.892 84.1121 73.288 83.7425 73.288 82.2905C73.288 81.5249 73.4464 80.8913 73.6576 80.7065C73.8952 80.4953 75.0304 80.4161 77.0104 80.4689L80.02 80.5481V82.1321V83.7161L78.7 83.7953C77.9872 83.8481 77.248 84.0065 77.0632 84.1649C76.8256 84.3497 76.72 85.3265 76.72 87.3857C76.72 89.3393 76.6144 90.4481 76.4032 90.6593C76.2184 90.8441 75.532 90.9761 74.8192 90.9761C73.3408 90.9761 73.024 91.3721 73.024 93.1937C73.024 94.4873 72.9712 94.5137 70.516 94.7249C69.7768 94.8041 69.724 94.8833 69.6448 96.1241C69.592 96.8369 69.4336 97.5761 69.2752 97.7609C69.1168 97.9457 68.4304 98.1041 67.7176 98.1041C67.0048 98.1041 66.3712 98.2361 66.2392 98.4209C66.1336 98.6057 65.9752 100.19 65.896 101.932L65.764 105.1L64.444 105.179C63.7312 105.232 62.992 105.39 62.8072 105.549C62.3584 105.918 62.3584 108.242 62.8072 108.611C62.992 108.77 63.7312 108.928 64.444 108.981L65.764 109.06L65.896 110.565C65.9752 111.383 66.1336 112.149 66.2392 112.281C66.3712 112.386 67.1368 112.545 67.9552 112.624L69.46 112.756L69.5392 114.076C69.6448 115.871 69.3544 116.056 66.0016 116.056C62.7808 116.056 62.464 115.871 62.464 113.918C62.464 112.492 62.3848 112.439 60.22 112.307C59.1904 112.228 59.164 112.202 59.0848 111.172C58.9528 109.007 58.9 108.928 57.4744 108.928C55.9168 108.928 55.336 108.453 55.336 107.212C55.336 105.734 55.5472 105.496 56.8408 105.496C58.636 105.496 59.032 105.179 59.032 103.674C59.032 102.962 59.1904 102.275 59.3752 102.117C59.56 101.958 60.2992 101.8 61.012 101.747L62.332 101.668V99.9521V98.2361L60.748 98.1041L59.164 97.9721L59.032 96.3881L58.9 94.8041H57.184H55.468L55.3888 96.1769C55.336 96.9161 55.1512 97.6553 54.94 97.8401C54.7552 97.9985 54.016 98.1041 53.3032 98.0513L52.036 97.9721L51.9568 96.9161C51.8248 94.6457 51.8248 94.6457 49.9768 94.7249L48.34 94.8041L48.2608 97.9721C48.1816 101.562 48.076 101.8 46.2016 101.8C44.8552 101.8 44.5648 102.117 44.4592 103.78L44.38 105.1L43.0864 105.179C42.3736 105.232 41.6608 105.126 41.5024 104.968C41.344 104.81 41.1592 104.07 41.08 103.305L40.948 101.932L39.5488 101.853C37.8064 101.747 37.384 102.064 37.384 103.49C37.384 105.074 37.6744 105.338 39.4168 105.496L40.948 105.628L41.0272 107.133C41.08 107.978 41.1328 108.69 41.1592 108.717C41.1856 108.743 43.5352 108.822 46.36 108.902L51.508 109.06V110.644V112.228L50.1352 112.307C49.396 112.36 48.6568 112.545 48.472 112.756C48.3136 112.941 48.208 113.733 48.2608 114.525L48.34 115.924L49.924 116.056L51.508 116.188L51.64 119.409C51.7192 121.23 51.904 122.762 52.0624 122.92C52.2208 123.078 52.9864 123.184 53.7784 123.131L55.204 123.052L55.336 119.884C55.4152 118.142 55.5736 116.558 55.6792 116.373C55.9696 115.924 61.6984 115.924 62.1472 116.373C62.4904 116.716 62.5696 118.353 62.3056 119.066C62.1736 119.382 61.7776 119.488 60.7216 119.488C59.6128 119.488 59.2696 119.594 59.032 119.99C58.636 120.755 58.6888 129.309 59.1112 129.863C59.4016 130.286 59.956 130.312 64.444 130.259L69.46 130.18L69.5392 128.622C69.592 127.54 69.5128 126.986 69.2752 126.854C69.0904 126.722 67.612 126.616 65.9752 126.616C62.728 126.616 62.464 126.484 62.464 124.9C62.464 123.58 62.8864 123.184 64.2856 123.184C64.9984 123.184 65.6848 123.026 65.8432 122.841C66.0016 122.656 66.16 121.917 66.2128 121.204L66.292 119.884L67.348 119.805C69.4864 119.673 69.592 119.594 69.592 118.274C69.592 116.109 69.6976 116.056 73.288 116.056C76.2448 116.056 76.456 116.03 76.7464 115.502C77.0368 114.947 76.9312 113.02 76.588 112.677C76.4824 112.571 75.7432 112.439 74.9248 112.36L73.42 112.228L73.3408 110.961C73.2352 109.298 73.5784 108.928 75.1624 108.928C75.8752 108.928 76.5088 108.796 76.6408 108.585C76.7464 108.426 76.9048 106.842 76.984 105.1L77.116 101.932H82.132H87.148L87.28 103.278C87.4648 105.047 87.8608 105.496 89.2336 105.496C91.0288 105.496 91.0816 105.364 91.24 101.747L91.372 98.5001L92.692 98.3681C93.4312 98.2889 94.1704 98.1305 94.3552 98.0249C94.8304 97.7081 94.804 91.6889 94.3024 91.2665C94.0648 91.0553 92.8768 90.9761 90.8176 91.0289L87.676 91.1081L87.4384 92.1113C87.28 92.7185 87.28 93.3785 87.4384 93.8273C87.6496 94.4609 87.8344 94.5401 88.996 94.6193C90.6592 94.7249 90.976 95.0153 90.976 96.3617C90.976 98.1041 90.9232 98.1305 87.3856 98.0513L84.244 97.9721L84.112 96.6521C84.0328 95.9129 83.8744 95.1737 83.7688 94.9889C83.6104 94.7777 82.7128 94.6721 80.8648 94.6721C76.984 94.6721 76.984 94.6721 76.984 92.7977V91.2401H78.1984C80.02 91.2401 80.416 90.9233 80.416 89.4449C80.416 88.7321 80.548 88.0457 80.7328 87.8609C80.9704 87.6233 82.8448 87.5441 87.544 87.5441C92.2432 87.5441 94.1176 87.4649 94.3552 87.2273C94.7776 86.8049 94.7512 84.5081 94.3288 84.1385C94.0912 83.9801 92.1376 83.8217 89.1016 83.7953L84.244 83.7161L84.112 82.3433C84.0328 81.5777 83.8216 80.8121 83.6368 80.6273C83.452 80.4425 82.6864 80.2313 81.9208 80.1521L80.548 80.0201L80.4688 78.7001C80.416 77.9873 80.2576 77.2481 80.1256 77.0633C79.9672 76.9049 79.228 76.7201 78.4888 76.6673L77.116 76.5881L76.984 73.4201C76.9048 71.6777 76.7464 70.0937 76.6408 69.9089C76.5088 69.7241 75.8752 69.5921 75.1624 69.5921C74.476 69.5921 73.7896 69.4601 73.6048 69.2753C73.42 69.0905 73.288 68.4041 73.288 67.6913C73.288 66.2921 72.892 65.8961 71.44 65.8961C69.988 65.8961 69.592 66.2921 69.592 67.6913C69.592 69.2489 69.2752 69.5921 67.876 69.5921C66.4768 69.5921 66.16 69.2489 66.16 67.6913C66.16 66.7145 66.0544 66.3713 65.6584 66.1601C64.9456 65.7905 63.4408 65.8169 62.8864 66.2393ZM72.892 75.0041V76.5881L71.572 76.6673C70.0936 76.7729 69.592 76.3505 69.592 75.0569C69.592 73.6049 69.988 73.2617 71.5192 73.3409L72.892 73.4201V75.0041ZM76.4032 94.9889C76.6144 95.2001 76.72 96.3089 76.72 98.2889C76.72 101.536 76.588 101.8 75.004 101.8C73.42 101.8 73.288 101.536 73.288 98.2889C73.288 96.3089 73.3936 95.2001 73.6048 94.9889C73.7896 94.8041 74.3968 94.6721 75.004 94.6721C75.6112 94.6721 76.2184 94.8041 76.4032 94.9889ZM69.5392 106.948C69.6448 108.426 69.2224 108.928 67.9288 108.928C66.556 108.928 66.16 108.506 66.16 107.106C66.16 106.42 66.2392 105.76 66.3448 105.654C66.4504 105.549 67.1896 105.496 68.008 105.549L69.46 105.628L69.5392 106.948Z" fill="black"/>
    <path d="M123.606 66.2392C123.263 66.5032 123.158 66.8728 123.237 68.008L123.316 69.46L124.689 69.592C125.454 69.6712 126.194 69.856 126.352 70.0144C126.51 70.1728 126.616 70.8856 126.563 71.5984L126.484 72.892L123.316 73.024C121.574 73.1032 119.99 73.2616 119.831 73.3672C119.435 73.6312 119.382 75.8752 119.752 76.456C119.937 76.7728 120.755 76.8784 123.237 76.984L126.484 77.116L126.563 78.436C126.616 79.1488 126.774 79.888 126.933 80.0728C127.091 80.2576 127.778 80.416 128.464 80.416C129.15 80.416 129.837 80.2576 129.995 80.0728C130.154 79.888 130.312 79.1488 130.365 78.436L130.444 77.116L132.002 76.9576C133.744 76.7728 134.008 76.5088 134.008 75.004C134.008 73.4992 133.744 73.2352 132.002 73.0504L130.444 72.892L130.365 71.3872C130.286 69.6976 130.233 69.6712 128.068 69.5392L127.012 69.46L126.88 67.9288C126.801 66.9784 126.59 66.292 126.352 66.16C125.771 65.7904 124.161 65.8432 123.606 66.2392ZM129.995 73.6048C130.444 74.0536 130.391 76.06 129.942 76.4296C129.731 76.6144 128.992 76.72 128.279 76.6672L127.012 76.588L126.933 75.2944C126.88 74.5816 126.906 73.8424 126.986 73.6576C127.17 73.1824 129.546 73.156 129.995 73.6048Z" fill="black"/>
    <path d="M30.5728 69.9087C30.1768 70.3047 30.1504 72.5487 30.5728 72.9711C30.9424 73.3407 33.1072 73.3935 33.6352 73.0503C33.8728 72.9183 33.952 72.3639 33.8992 71.2815L33.82 69.7239L32.368 69.6447C31.4704 69.5919 30.784 69.6975 30.5728 69.9087Z" fill="black"/>
    <path d="M38.176 73.2089C37.5688 73.4465 37.384 73.8425 37.384 75.0041C37.384 76.4297 37.648 76.7465 38.8888 76.9049C40.5784 77.1161 41.08 76.6937 41.08 75.0041C41.08 73.8689 40.9744 73.5257 40.5784 73.2881C40.024 72.9977 38.836 72.9713 38.176 73.2089Z" fill="black"/>
    <path d="M105.707 73.2882C105.364 73.4994 105.232 73.9218 105.232 74.8458C105.232 75.5586 105.074 76.245 104.889 76.4034C104.704 76.5618 103.965 76.7202 103.252 76.773L101.932 76.8522V78.5682V80.2842L103.384 80.3634C105.126 80.469 105.496 80.0994 105.496 78.2778V77.037L108.796 76.9314C112.518 76.8522 112.624 76.7994 112.624 75.0042C112.624 73.2354 112.466 73.1562 109.139 73.077C107.37 73.0506 105.971 73.1298 105.707 73.2882Z" fill="black"/>
    <path d="M52.432 87.4648C51.8248 87.7024 51.64 88.0984 51.64 89.26C51.64 90.6856 51.904 91.0024 53.1448 91.1608C54.8344 91.372 55.336 90.9496 55.336 89.26C55.336 88.1248 55.2304 87.7816 54.8344 87.544C54.28 87.2536 53.092 87.2272 52.432 87.4648Z" fill="black"/>
    <path d="M101.906 98.4733C101.826 98.6581 101.8 99.4765 101.853 100.242L101.932 101.668L103.384 101.747C105.047 101.852 105.496 101.483 105.496 100.004C105.496 98.4469 105.126 98.1037 103.49 98.1037C102.513 98.1037 102.011 98.2093 101.906 98.4733Z" fill="black"/>
    <path d="M102.117 105.47C101.879 105.602 101.8 106.156 101.853 107.239L101.932 108.796L103.252 108.875C105.021 108.981 105.285 109.245 105.179 110.882L105.1 112.228L104.044 112.307C101.668 112.466 101.8 112.281 101.8 115.555C101.8 119.171 101.668 119.488 100.005 119.488C99.292 119.488 98.6056 119.62 98.4208 119.805C98.2096 120.016 98.104 121.151 98.104 123.237C98.104 126.035 98.1568 126.352 98.6056 126.616C99.3448 126.986 101.14 126.959 101.483 126.537C101.668 126.352 101.826 124.795 101.853 123.026L101.932 119.884H103.516H105.1L105.179 121.204C105.232 121.917 105.39 122.656 105.549 122.841C105.707 123.052 106.42 123.184 107.238 123.184C108.796 123.184 108.849 123.131 108.981 120.94L109.06 119.884L110.565 119.752C111.383 119.673 112.149 119.515 112.281 119.409C112.386 119.277 112.545 118.511 112.624 117.693L112.756 116.188L114.34 116.056L115.924 115.924L116.003 114.525C116.109 112.73 115.792 112.36 114.234 112.36C112.677 112.36 112.36 112.677 112.36 114.261C112.36 115.238 112.254 115.581 111.858 115.792C111.251 116.109 106.314 116.135 105.813 115.819C105.575 115.687 105.496 115.159 105.549 114.182L105.628 112.756L107.001 112.624C107.766 112.545 108.506 112.36 108.664 112.202C108.822 112.043 108.928 111.278 108.875 110.486L108.796 109.06L107.74 108.981C105.602 108.849 105.496 108.77 105.496 107.45C105.496 105.628 105.179 105.232 103.701 105.232C103.014 105.232 102.302 105.338 102.117 105.47Z" fill="black"/>
    <path d="M123.369 123.369C123.052 123.659 123.158 126.22 123.501 126.563C123.976 127.038 125.982 126.959 126.458 126.458C126.959 125.982 127.038 123.976 126.563 123.501C126.22 123.158 123.659 123.052 123.369 123.369Z" fill="black"/>
    <path d="M123.474 16.3698C123.263 16.6338 123.21 20.0658 123.237 28.8306L123.316 40.9482H135.592H147.868V28.5402V16.1322L135.83 16.053C125.877 16.0002 123.738 16.053 123.474 16.3698ZM144.251 20.013C144.621 20.3826 144.7 36.4866 144.357 37.0674C144.172 37.305 142.245 37.3842 135.566 37.3314L127.012 37.2522L126.933 28.6986C126.88 22.0194 126.959 20.0922 127.197 19.9074C127.778 19.5642 143.882 19.6434 144.251 20.013Z" fill="black"/>
    <path d="M130.602 23.4976C130.391 23.7352 130.312 25.3984 130.365 28.8304L130.444 33.82L135.434 33.8992C138.866 33.952 140.529 33.8728 140.766 33.6616C141.347 33.1864 141.294 24.1312 140.714 23.5504C140.133 22.9696 131.078 22.9168 130.602 23.4976Z" fill="black"/>
    <path d="M66.3184 23.5501C65.8168 24.0517 65.764 25.7413 66.2392 26.4013C66.5032 26.7445 66.8728 26.8501 68.008 26.7709L69.46 26.6917L69.5392 25.1341C69.592 24.0517 69.5128 23.4973 69.2752 23.3653C68.6944 22.9693 66.7672 23.1013 66.3184 23.5501Z" fill="black"/>
    <path d="M137.73 44.8818C137.546 45.093 137.44 45.8586 137.493 46.677L137.572 48.0762L138.892 48.2082C139.631 48.2874 140.37 48.4458 140.555 48.5514C140.793 48.7098 140.872 50.0298 140.872 53.5938C140.872 56.973 140.978 58.5042 141.189 58.7154C141.611 59.1378 143.829 59.1378 144.251 58.7154C144.436 58.5306 144.568 57.8442 144.568 57.1314C144.568 55.653 144.964 55.3362 146.786 55.3362H148V53.6466C148 51.7458 147.894 51.6402 146.02 51.6402C144.753 51.6402 144.568 51.4026 144.568 49.7922C144.568 48.5778 144.806 48.393 146.548 48.2082L147.868 48.0762L147.947 46.5186C148.053 44.7234 147.868 44.5122 146.284 44.5122C144.885 44.5122 144.568 44.8554 144.568 46.3602C144.568 47.8386 144.251 48.2082 142.958 48.2082C141.347 48.2082 141.136 48.0234 141.136 46.6242C141.136 45.8058 140.978 45.1986 140.714 44.9346C140.186 44.4066 138.153 44.3802 137.73 44.8818Z" fill="black"/>
    <path d="M16.3168 48.5247C15.9736 48.9471 15.8944 61.6191 16.2376 62.1471C16.3696 62.3847 16.924 62.4639 18.0064 62.4111L19.564 62.3319L19.696 59.0847C19.8544 55.4151 19.8808 55.3359 21.8608 55.3359C23.2336 55.3359 23.3128 55.2567 23.4448 53.0919L23.524 52.0359L26.6656 51.9567C28.4344 51.9303 29.992 51.7719 30.1768 51.5871C30.5992 51.2439 30.6256 48.9471 30.2032 48.5247C29.7544 48.0759 23.8144 48.0759 23.4448 48.5511C23.2864 48.7359 23.128 49.4751 23.0752 50.1879L22.996 51.5079L21.4912 51.5871C19.8016 51.6663 19.7752 51.6399 19.6432 49.3959L19.564 48.3399L18.0856 48.2607C17.1088 48.2079 16.528 48.3135 16.3168 48.5247Z" fill="black"/>
    <path d="M16.0792 135.539L16.132 147.868H28.54H40.948V135.592V123.316L28.4872 123.263L16 123.211L16.0792 135.539ZM37.3312 135.566C37.384 142.245 37.3048 144.172 37.0672 144.357C36.4864 144.7 20.3824 144.621 20.0128 144.251C19.7752 144.014 19.696 141.77 19.696 135.83C19.696 131.368 19.7752 127.514 19.8544 127.303C20.0128 126.907 20.9632 126.88 28.6456 126.933L37.252 127.012L37.3312 135.566Z" fill="black"/>
    <path d="M23.128 135.328C23.128 139.499 23.2072 140.371 23.5504 140.714C24.1312 141.295 33.1864 141.347 33.6616 140.767C33.8728 140.529 33.952 138.866 33.8992 135.434L33.82 130.444L28.4872 130.391L23.128 130.339V135.328Z" fill="black"/>
    <path d="M144.7 137.757C144.621 137.968 144.594 140.318 144.621 142.984L144.7 147.868L146.363 147.947L148 148.026L147.947 142.799L147.868 137.572L146.337 137.493C145.254 137.44 144.779 137.519 144.7 137.757Z" fill="black"/>
    <path d="M51.9304 145.07C51.6136 145.65 51.5608 146.944 51.7984 147.578C51.9304 147.894 52.3528 148 53.6728 148H55.3624L55.2832 146.363L55.204 144.7L53.6992 144.621C52.432 144.542 52.168 144.621 51.9304 145.07Z" fill="black"/>
  </g>
  <defs>
    <clipPath id="clip0_468_2348">
      <rect width="132" height="132" fill="white" transform="translate(16 16)"/>
    </clipPath>
  </defs>
</svg>
