<svg width="144" height="42" viewBox="0 0 144 42" fill="none" xmlns="http://www.w3.org/2000/svg">
  <path
    d="M136.548 19.6291C135.944 19.571 135.377 19.434 134.846 19.2182C134.315 19.0024 133.852 18.7077 133.458 18.3342C133.064 17.9607 132.774 17.5042 132.589 16.9646L135.812 15.6199C135.884 15.7112 135.98 15.8274 136.101 15.9686C136.23 16.1014 136.399 16.2217 136.608 16.3296C136.817 16.4375 137.079 16.4915 137.392 16.4915C137.602 16.4915 137.807 16.4707 138.008 16.4292C138.209 16.3794 138.378 16.2964 138.515 16.1802C138.66 16.064 138.748 15.9021 138.78 15.6946C138.812 15.4622 138.752 15.2879 138.599 15.1717C138.446 15.0472 138.257 14.96 138.032 14.9102C137.815 14.8521 137.606 14.8065 137.405 14.7733C136.705 14.6571 136.049 14.4246 135.437 14.076C134.834 13.7191 134.359 13.2584 134.013 12.694C133.675 12.1212 133.559 11.453 133.663 10.6894C133.784 9.83443 134.098 9.09568 134.605 8.47314C135.112 7.8506 135.731 7.37332 136.463 7.04129C137.203 6.70097 137.972 6.53081 138.768 6.53081C139.71 6.53081 140.55 6.73002 141.29 7.12845C142.039 7.52688 142.622 8.09962 143.04 8.84667L139.951 10.5898C139.87 10.4653 139.766 10.3408 139.637 10.2163C139.516 10.0835 139.372 9.97139 139.203 9.88009C139.042 9.78048 138.857 9.71823 138.648 9.69332C138.374 9.66842 138.121 9.68087 137.887 9.73068C137.662 9.77218 137.477 9.86349 137.332 10.0046C137.187 10.1374 137.095 10.3325 137.055 10.5898C137.022 10.8305 137.111 11.0048 137.32 11.1127C137.529 11.2206 137.771 11.2995 138.044 11.3493C138.326 11.3991 138.551 11.453 138.72 11.5111C139.38 11.7436 139.987 12.0465 140.542 12.4201C141.105 12.7936 141.536 13.246 141.834 13.7772C142.139 14.3084 142.232 14.931 142.111 15.6448C141.998 16.4749 141.657 17.2053 141.085 17.8362C140.522 18.467 139.834 18.9443 139.022 19.268C138.217 19.5918 137.392 19.7121 136.548 19.6291Z"
    fill="#232323"/>
  <path
    d="M128.755 6.95414H132.375L130.686 19.405H127.053L127.029 18.2844C126.667 18.716 126.24 19.0647 125.75 19.3303C125.267 19.5959 124.724 19.7287 124.12 19.7287C123.219 19.7287 122.399 19.5544 121.658 19.2058C120.926 18.8572 120.303 18.3757 119.788 17.7615C119.281 17.1389 118.915 16.4251 118.69 15.6199C118.464 14.8065 118.416 13.9349 118.545 13.0053C118.666 12.1171 118.935 11.287 119.353 10.5151C119.78 9.74313 120.311 9.06664 120.946 8.4856C121.59 7.89626 122.306 7.43557 123.095 7.10355C123.891 6.77153 124.716 6.60552 125.569 6.60552C126.26 6.60552 126.868 6.75493 127.391 7.05375C127.922 7.34427 128.38 7.70949 128.767 8.14942L128.755 6.95414ZM124.507 16.1429C125.005 16.1429 125.476 16.0101 125.919 15.7444C126.369 15.4788 126.747 15.1219 127.053 14.6737C127.359 14.2254 127.548 13.7274 127.62 13.1796C127.693 12.6317 127.636 12.1337 127.451 11.6855C127.274 11.2372 126.997 10.8803 126.619 10.6147C126.248 10.3491 125.814 10.2163 125.315 10.2163C124.816 10.2163 124.346 10.3491 123.903 10.6147C123.461 10.8803 123.091 11.2372 122.793 11.6855C122.495 12.1337 122.31 12.6317 122.238 13.1796C122.165 13.7274 122.218 14.2254 122.395 14.6737C122.572 15.1219 122.845 15.4788 123.215 15.7444C123.585 16.0101 124.016 16.1429 124.507 16.1429Z"
    fill="#232323"/>
  <path
    d="M117.3 11.4489L116.226 19.405H112.606L113.547 12.4948C113.603 12.1046 113.559 11.7519 113.414 11.4364C113.269 11.1127 113.056 10.8596 112.775 10.6769C112.493 10.486 112.163 10.3906 111.785 10.3906C111.407 10.3906 111.049 10.486 110.711 10.6769C110.381 10.8596 110.103 11.1127 109.878 11.4364C109.661 11.7519 109.524 12.1046 109.468 12.4948L108.527 19.405H104.906L106.584 6.95414H110.204L110.107 7.73855C110.558 7.38162 111.053 7.10355 111.592 6.90434C112.139 6.70513 112.698 6.60552 113.269 6.60552C114.138 6.60552 114.895 6.82548 115.538 7.26541C116.19 7.69704 116.677 8.27808 116.998 9.00853C117.328 9.73898 117.429 10.5524 117.3 11.4489Z"
    fill="#232323"/>
  <path
    d="M91.7564 14.8853L92.8304 6.95414H96.4509L95.5096 13.8395C95.4613 14.2296 95.5056 14.5865 95.6423 14.9102C95.7872 15.2257 96.0004 15.4788 96.282 15.6697C96.5716 15.8523 96.9015 15.9437 97.2716 15.9437C97.6497 15.9437 98.0037 15.8523 98.3336 15.6697C98.6715 15.4788 98.9531 15.2257 99.1783 14.9102C99.4036 14.5865 99.5404 14.2296 99.5887 13.8395L100.53 6.95414H104.15L102.473 19.405H98.8525L98.949 18.5957C98.4985 18.9526 97.9997 19.2307 97.4526 19.4299C96.9135 19.6291 96.3584 19.7287 95.7872 19.7287C94.9263 19.7287 94.17 19.5129 93.5183 19.0813C92.8666 18.6413 92.3799 18.0561 92.0581 17.3257C91.7363 16.5952 91.6357 15.7818 91.7564 14.8853Z"
    fill="#232323"/>
  <path
    d="M90.2556 19.405H86.08L84.2456 15.1219L82.725 16.7156L82.3629 19.405H78.7425L81.2768 0.728714H84.8973L83.5094 10.9135L87.2627 6.95414H91.9934L87.142 12.0839L90.2556 19.405Z"
    fill="#232323"/>
  <path d="M72.2134 19.405L74.7477 0.728714H78.3682L75.8338 19.405H72.2134Z" fill="#232323"/>
  <path
    d="M67.3853 6.95414H71.0058L69.3162 19.405H65.6958L67.3853 6.95414ZM69.4007 5.65925C68.8777 5.65925 68.4634 5.48079 68.1577 5.12386C67.8519 4.76694 67.7353 4.32286 67.8077 3.79162C67.8801 3.26869 68.1174 2.82876 68.5197 2.47183C68.922 2.10661 69.3806 1.924 69.8955 1.924C70.4024 1.924 70.8046 2.10661 71.1023 2.47183C71.4081 2.82876 71.5247 3.26869 71.4523 3.79162C71.3799 4.32286 71.1466 4.76694 70.7523 5.12386C70.3662 5.48079 69.9156 5.65925 69.4007 5.65925Z"
    fill="#232323"/>
  <path
    d="M56.9297 19.7287C55.9803 19.7287 55.0913 19.5752 54.2626 19.268C53.4339 18.9526 52.734 18.5044 52.1627 17.9233C51.5995 17.334 51.2254 16.6326 51.0404 15.8191L54.6246 14.5243C54.6729 14.765 54.8177 14.9974 55.0591 15.2215C55.3085 15.4456 55.6344 15.6324 56.0366 15.7818C56.4469 15.9229 56.9136 15.9935 57.4365 15.9935C57.9193 15.9935 58.3819 15.9229 58.8244 15.7818C59.2749 15.6324 59.6491 15.429 59.9467 15.1717C60.2525 14.9144 60.4295 14.6156 60.4777 14.2752C60.526 13.9266 60.4254 13.6402 60.176 13.4161C59.9266 13.1837 59.5968 13.0011 59.1864 12.8683C58.7761 12.7272 58.3497 12.6234 57.9072 12.557C56.7084 12.3744 55.6545 12.0756 54.7453 11.6606C53.8362 11.2372 53.1483 10.6562 52.6817 9.91744C52.2231 9.17869 52.0702 8.24073 52.2231 7.10355C52.3759 6.01618 52.8064 5.06576 53.5144 4.25231C54.2224 3.43055 55.0953 2.79141 56.1332 2.33488C57.171 1.87834 58.2572 1.65008 59.3916 1.65008C60.341 1.65008 61.23 1.80779 62.0587 2.12321C62.8874 2.43033 63.5873 2.87856 64.1586 3.4679C64.7378 4.05724 65.1119 4.76279 65.2809 5.58455L61.6966 6.85453C61.6484 6.61382 61.4995 6.38555 61.2501 6.16974C61.0087 5.94562 60.6829 5.76301 60.2726 5.6219C59.8703 5.48079 59.4077 5.41024 58.8847 5.41024C58.4181 5.40194 57.9595 5.47249 57.509 5.6219C57.0584 5.77131 56.6803 5.97467 56.3745 6.23199C56.0688 6.48931 55.8918 6.77983 55.8435 7.10355C55.7872 7.55178 55.8717 7.88795 56.097 8.11207C56.3222 8.32788 56.64 8.48145 57.0504 8.57275C57.4687 8.66406 57.9233 8.74706 58.4141 8.82177C59.5485 8.99608 60.5703 9.30735 61.4794 9.75558C62.3966 10.2038 63.0966 10.8015 63.5793 11.5485C64.0701 12.2956 64.243 13.2045 64.0982 14.2752C63.9534 15.3626 63.527 16.3172 62.819 17.1389C62.119 17.9524 61.2501 18.5874 60.2122 19.0439C59.1744 19.5004 58.0802 19.7287 56.9297 19.7287Z"
    fill="#232323"/>
  <path
    d="M130.578 41.2713C129.3 41.2713 128.137 41.0259 127.09 40.5352C126.052 40.0358 125.178 39.3479 124.468 38.4717C123.758 37.5866 123.248 36.5702 122.937 35.4223C122.635 34.2656 122.578 33.0301 122.764 31.7157C122.95 30.3751 123.367 29.1264 124.015 27.9698C124.672 26.8131 125.488 25.8054 126.464 24.9467C127.441 24.0792 128.514 23.4045 129.686 22.9225C130.866 22.4406 132.077 22.1996 133.32 22.1996C134.748 22.1996 136.048 22.5282 137.22 23.1854C138.4 23.8426 139.354 24.7758 140.082 25.985L138.285 26.8788C137.699 25.9587 136.945 25.2534 136.022 24.7627C135.099 24.272 134.109 24.0266 133.053 24.0266C132.051 24.0266 131.075 24.2281 130.125 24.6312C129.184 25.0255 128.328 25.5776 127.556 26.2873C126.784 26.9971 126.14 27.8164 125.626 28.7452C125.111 29.6741 124.778 30.673 124.627 31.742C124.477 32.8023 124.525 33.7968 124.774 34.7257C125.022 35.6545 125.431 36.4738 125.999 37.1836C126.566 37.8846 127.263 38.4366 128.088 38.8397C128.923 39.234 129.845 39.4312 130.857 39.4312C131.691 39.4312 132.503 39.291 133.293 39.0106C134.092 38.7214 134.833 38.3183 135.516 37.8013C136.208 37.2843 136.821 36.6797 137.353 35.9875C137.885 35.2952 138.307 34.5417 138.618 33.7267H133.599L133.839 32.0575H141.04C140.827 33.328 140.397 34.5198 139.749 35.6326C139.101 36.7454 138.298 37.7268 137.34 38.5768C136.39 39.418 135.334 40.0796 134.172 40.5615C133.018 41.0347 131.82 41.2713 130.578 41.2713Z"
    fill="#232323"/>
  <path
    d="M105.067 40.9293L107.676 22.528H109.699L117.393 37.604L119.536 22.528H121.4L118.791 40.9293H116.781L109.074 25.8534L106.931 40.9293H105.067Z"
    fill="#232323"/>
  <path d="M99.6169 40.9293L102.226 22.528H104.09L101.481 40.9293H99.6169Z" fill="#232323"/>
  <path
    d="M89.097 41.2711C87.8369 41.2711 86.6877 41.0257 85.6494 40.535C84.6111 40.0355 83.7326 39.3521 83.0138 38.4846C82.3038 37.6083 81.7936 36.5919 81.483 35.4352C81.1724 34.2786 81.1103 33.043 81.2966 31.7287C81.483 30.4143 81.8956 29.1788 82.5346 28.0221C83.1735 26.8655 83.9722 25.8534 84.9306 24.9859C85.8979 24.1096 86.9716 23.4262 88.1519 22.9355C89.3322 22.436 90.5524 22.1863 91.8125 22.1863C93.3211 22.1863 94.6567 22.5324 95.8192 23.2246C96.9906 23.9169 97.9135 24.8369 98.5879 25.9848L96.8175 26.8655C96.2851 25.998 95.553 25.3101 94.6212 24.8019C93.6894 24.2849 92.6688 24.0264 91.5596 24.0264C90.5391 24.0264 89.5585 24.2323 88.6178 24.6441C87.6771 25.0472 86.8208 25.6036 86.0487 26.3134C85.2855 27.0232 84.651 27.8425 84.1452 28.7713C83.6394 29.7001 83.311 30.6859 83.1602 31.7287C83.0093 32.7889 83.0537 33.7835 83.2933 34.7123C83.5418 35.6411 83.95 36.4604 84.5179 37.1702C85.0859 37.88 85.7825 38.4364 86.6078 38.8395C87.4331 39.2338 88.3471 39.4309 89.3499 39.4309C90.5124 39.4309 91.6261 39.1724 92.691 38.6554C93.7559 38.1297 94.67 37.4462 95.4332 36.605L96.9506 37.4857C95.9567 38.6335 94.7765 39.5536 93.4098 40.2458C92.0432 40.9293 90.6056 41.2711 89.097 41.2711Z"
    fill="#232323"/>
  <path
    d="M72.4258 22.528H74.7419L78.9217 40.9293H76.9383L76.0331 36.9862H67.0347L65.0247 40.9293H63.0414L72.4258 22.528ZM67.9798 35.1461H75.6205L73.2644 24.7887L67.9798 35.1461Z"
    fill="#232323"/>
  <path
    d="M49.0404 40.9293L51.6494 22.528H57.9722C58.9661 22.528 59.8269 22.769 60.5546 23.2509C61.2912 23.7241 61.8369 24.3681 62.1919 25.183C62.5468 25.9892 62.6533 26.8961 62.5113 27.9038C62.3871 28.8064 62.0854 29.6257 61.6062 30.3617C61.127 31.0978 60.528 31.7068 59.8092 32.1887C59.0992 32.6706 58.3272 32.9905 57.493 33.1482L60.9539 40.9293H58.7975L55.3898 33.2928H51.9822L50.9039 40.9293H49.0404ZM52.2484 31.4526H56.5479C57.2046 31.4526 57.8258 31.2949 58.4115 30.9795C59.0061 30.6553 59.503 30.2215 59.9023 29.6782C60.3106 29.1262 60.5635 28.5041 60.6611 27.8118C60.7676 27.1196 60.6966 26.5018 60.4481 25.9585C60.1996 25.4065 59.8225 24.9727 59.3167 24.6573C58.8197 24.3331 58.2429 24.171 57.5862 24.171H53.2867L52.2484 31.4526Z"
    fill="#232323"/>
  <path d="M46.6998 0.728668H49.2712L42.8427 40.7287H40.2712L46.6998 0.728668Z" fill="url(#paint0_linear_10983_7)"/>
  <path d="M23.911 0.728714H41.5297L39.0127 18.3474H21.394L23.911 0.728714Z" fill="#006A44"/>
  <path d="M2.51696 0.728714H20.1356L17.6187 18.3474H0L2.51696 0.728714Z" fill="#FDB913"/>
  <path d="M20.1356 23.3813H37.7543L35.2373 41H17.6187L20.1356 23.3813Z" fill="#C1272D"/>
  <defs>
    <linearGradient id="paint0_linear_10983_7" x1="44.7712" y1="0.728668" x2="44.7712" y2="40.7287"
                    gradientUnits="userSpaceOnUse">
      <stop stop-color="#FDB913"/>
      <stop offset="0.5" stop-color="#006A44"/>
      <stop offset="1" stop-color="#C1272D"/>
    </linearGradient>
  </defs>
</svg>
